{"glyphs":{"0":{"ha":511,"x_min":0,"x_max":0,"o":"m 258 -32 b 447 131 353 -32 419 50 b 478 339 463 175 478 253 b 410 610 478 432 461 533 b 251 704 371 668 313 704 b 175 685 226 704 200 699 b 114 556 108 650 78 549 l 124 557 b 36 294 67 501 36 397 b 82 93 36 221 51 147 b 258 -32 124 21 192 -32 z m 392 146 b 265 15 361 60 301 21 b 128 104 203 7 157 50 b 89 283 101 153 89 218 b 214 553 89 410 135 538 b 258 585 224 556 260 569 b 225 600 254 597 240 601 b 131 564 207 596 153 578 l 133 568 b 204 650 143 604 174 638 b 253 658 221 656 238 658 b 364 596 297 658 338 636 b 424 358 410 526 424 440 b 392 146 424 272 407 193 z "},"1":{"ha":304,"x_min":0,"x_max":0,"o":"m 160 -39 b 183 -26 172 -44 186 -39 b 182 89 182 8 182 47 b 207 665 182 275 193 508 b 172 700 213 685 190 713 b 47 571 125 667 81 629 b 68 514 26 535 47 514 b 150 608 94 544 115 581 l 153 614 b 136 142 142 479 136 297 b 138 4 136 93 136 46 b 160 -39 142 -10 140 -33 z "},"2":{"ha":543,"x_min":0,"x_max":0,"o":"m 481 3 b 503 33 497 -18 538 -3 b 254 81 454 76 344 82 l 179 76 l 194 88 b 300 176 229 114 263 144 b 481 461 392 261 468 368 b 272 724 500 611 401 732 b 65 585 213 719 106 686 b 63 519 60 569 49 526 b 106 574 76 518 94 560 b 282 669 157 656 232 668 b 432 471 400 681 442 569 b 263 217 424 403 353 303 b 47 60 185 142 106 82 l 40 58 l 26 54 b 46 3 -1 43 17 -6 l 60 10 l 61 11 l 63 11 b 272 33 110 19 186 32 b 319 35 289 33 304 35 b 400 29 349 35 376 33 b 481 3 447 22 468 13 z "},"3":{"ha":511,"x_min":0,"x_max":0,"o":"m 288 -18 b 486 171 379 -4 463 47 b 471 271 494 207 488 242 b 379 367 451 311 418 342 b 257 408 344 386 301 401 b 436 615 319 447 436 532 b 400 688 436 640 426 664 b 300 721 374 711 338 721 b 121 618 222 721 139 678 b 126 560 114 606 113 563 b 153 601 138 553 149 589 b 294 668 161 632 232 668 b 358 650 318 668 342 663 b 378 614 372 639 378 626 b 325 524 378 582 346 546 b 153 404 275 471 204 425 b 172 358 126 394 142 350 b 219 364 186 363 203 364 b 354 326 264 364 313 350 b 426 256 388 306 410 283 b 435 183 439 233 442 211 b 275 32 418 82 350 42 b 75 76 196 22 115 46 b 32 94 64 85 39 106 b 58 46 22 85 46 54 b 288 -18 113 8 196 -28 z "},"4":{"ha":493,"x_min":0,"x_max":0,"o":"m 396 -25 b 419 -6 411 -28 421 -19 b 413 121 414 14 411 60 l 419 257 b 463 258 433 258 449 258 b 479 283 476 258 485 269 b 444 307 471 297 457 307 l 419 307 l 424 349 b 442 661 429 489 438 628 b 421 694 439 674 438 688 b 392 682 406 700 393 696 b 376 371 393 647 379 514 l 371 304 b 219 303 338 303 257 303 b 106 311 175 303 132 304 l 89 314 l 96 319 b 239 619 143 406 201 528 b 231 719 268 690 258 728 b 29 322 188 615 74 397 b 49 283 24 311 31 292 b 242 253 96 258 175 253 b 371 256 269 253 340 253 l 368 140 b 367 89 367 122 367 104 b 371 4 367 53 369 22 b 396 -25 374 -8 381 -21 z "},"5":{"ha":521,"x_min":0,"x_max":0,"o":"m 51 72 b 253 -36 82 7 164 -43 b 478 218 390 -28 481 99 b 224 439 472 363 353 439 b 135 426 194 439 164 435 b 179 646 171 504 178 621 l 188 644 b 239 643 206 643 222 643 b 379 657 286 643 333 647 b 456 700 393 660 463 685 b 411 703 450 713 425 704 b 218 693 381 697 288 693 b 150 696 190 693 165 694 b 129 676 133 700 128 688 l 128 668 b 60 403 132 625 119 490 b 75 364 56 392 58 374 b 96 364 82 361 89 361 l 97 364 b 232 392 143 376 185 392 b 274 388 246 392 260 390 b 428 211 353 374 417 314 b 263 14 435 143 367 26 b 88 85 192 6 125 26 b 60 210 51 142 81 218 b 36 153 42 204 36 179 b 51 72 36 121 44 86 z "},"6":{"ha":497,"x_min":0,"x_max":0,"o":"m 281 -21 b 468 217 378 -6 468 100 b 440 324 468 253 460 289 b 261 429 400 393 331 429 b 108 364 207 429 151 407 l 111 374 b 264 629 150 488 235 593 b 347 706 281 651 338 692 b 271 699 369 736 340 757 b 53 376 176 618 89 483 b 32 247 39 335 32 290 b 281 -21 32 99 113 -42 z m 390 319 b 413 226 406 290 413 258 b 267 22 413 128 346 32 b 82 243 132 0 82 131 b 97 344 82 281 88 317 b 136 336 108 319 125 326 b 265 392 171 372 219 392 b 390 319 317 392 365 368 z "},"7":{"ha":457,"x_min":0,"x_max":0,"o":"m 89 10 b 114 -19 90 -6 100 -18 b 135 3 126 -21 133 -11 b 253 360 132 75 183 219 b 461 651 324 499 408 619 b 440 699 478 664 463 697 b 190 696 385 700 274 696 b 74 700 149 696 104 697 b 49 679 61 703 47 692 b 79 650 50 664 65 651 b 208 646 111 646 158 646 b 372 647 257 646 328 646 l 360 635 b 208 388 310 575 256 482 b 89 10 140 251 86 97 z "},"8":{"ha":449,"x_min":0,"x_max":0,"o":"m 250 -19 b 432 111 328 -19 401 18 b 424 203 442 142 435 174 b 332 324 403 246 369 286 b 263 386 314 346 286 367 l 242 404 l 275 444 b 311 499 286 453 322 488 b 203 439 297 507 246 488 l 201 439 b 126 522 150 485 133 506 b 238 657 97 597 176 654 b 369 535 313 663 363 617 b 315 422 372 493 353 449 b 321 389 307 414 304 385 b 407 549 374 399 407 472 b 403 594 407 564 406 579 b 224 706 390 672 290 713 b 69 560 136 697 69 635 b 79 511 69 544 72 528 b 171 404 99 465 135 429 l 154 383 b 76 281 126 351 99 318 b 31 156 50 242 31 199 b 65 67 31 125 42 94 b 250 -19 103 14 179 -19 z m 379 133 b 246 31 360 58 303 31 b 96 93 183 31 126 60 b 81 142 86 107 81 124 b 121 253 81 172 94 210 b 197 351 143 286 168 318 l 214 369 l 256 333 l 303 292 b 376 190 338 256 361 221 b 379 133 383 168 385 150 z "},"9":{"ha":525,"x_min":0,"x_max":0,"o":"m 161 -14 b 444 351 282 56 403 250 b 475 506 463 397 475 453 b 460 593 475 536 471 567 b 251 722 425 667 354 724 b 46 503 146 719 46 626 b 60 422 46 476 50 450 b 221 300 89 343 157 314 b 389 349 272 290 349 311 b 124 3 311 213 233 85 b 161 -14 74 -35 132 -32 z m 374 383 b 224 350 332 351 272 338 b 104 449 176 360 122 389 b 96 504 99 468 96 486 b 257 671 96 600 171 669 b 421 485 367 672 421 581 b 401 386 421 451 415 417 l 393 388 b 374 383 388 389 379 389 z "},"A":{"ha":1471,"x_min":0,"x_max":0,"o":"m 122 372 b 49 371 93 375 69 375 b 8 324 22 367 8 347 b 24 279 8 310 13 294 b 521 128 61 224 211 157 b 107 -303 375 -86 224 -312 b 106 -326 93 -301 94 -315 b 581 124 215 -360 332 -233 b 768 115 639 119 700 117 l 772 114 b 1217 -343 944 22 1104 -147 b 1261 -325 1231 -365 1264 -335 b 1149 124 1219 -169 1182 -31 b 1438 169 1253 132 1407 149 b 1460 207 1453 181 1465 213 b 1140 167 1438 206 1264 181 b 1042 857 1082 467 1042 664 b 1044 933 1042 882 1043 908 l 1046 933 l 1049 938 b 1001 972 1058 953 1015 985 l 1001 969 l 999 969 l 997 968 b 596 240 890 736 753 483 b 122 372 383 331 192 367 z m 768 156 b 646 218 728 178 686 199 l 660 238 b 990 844 792 464 892 621 b 1090 163 988 694 1042 376 l 1089 163 b 768 156 958 160 843 153 z m 61 300 b 142 338 42 343 124 340 b 578 214 203 331 367 308 l 547 168 b 61 300 318 188 88 253 z m 1079 119 l 1100 119 b 1181 -194 1124 15 1151 -87 l 1147 -154 b 840 113 1058 -46 951 42 b 1079 119 903 113 986 118 z m 686 163 b 608 164 661 163 635 163 b 628 192 615 172 622 182 z "},"Æ":{"ha":1931,"x_min":0,"x_max":0,"o":"m 1103 604 b 1426 910 1119 768 1276 883 b 1489 915 1447 913 1468 915 b 1657 832 1561 915 1626 892 b 1685 822 1668 815 1672 769 b 1468 967 1679 903 1586 967 b 1422 964 1453 967 1438 967 b 1054 657 1253 942 1089 821 b 1043 808 1047 717 1043 768 b 1042 899 1040 846 1039 876 b 1044 933 1040 917 1042 928 l 1046 933 l 1049 938 b 1001 972 1058 953 1015 985 l 1001 969 l 999 969 l 997 968 b 549 169 881 714 725 433 b 300 207 460 178 375 190 b 276 164 271 193 265 178 b 519 126 364 146 443 135 b 107 -303 374 -87 222 -311 b 106 -326 93 -301 94 -315 b 579 121 215 -360 332 -235 b 858 111 672 113 764 111 l 933 111 b 907 -12 917 71 907 29 b 935 -129 907 -51 915 -90 b 1217 -331 993 -237 1094 -303 l 1218 -333 b 1264 -340 1232 -356 1269 -362 b 1379 -349 1300 -346 1339 -349 b 1881 -24 1661 -349 1890 -133 b 1861 -7 1881 -11 1865 3 b 1364 -293 1814 -143 1586 -286 b 1249 -286 1325 -293 1286 -292 b 1149 122 1213 -158 1179 -17 b 1336 147 1211 128 1281 138 b 1460 207 1407 160 1440 163 b 1139 167 1438 206 1263 181 l 1121 260 b 1169 293 1136 272 1153 283 l 1197 307 b 1431 226 1264 263 1346 235 b 1593 331 1507 219 1629 243 b 1385 407 1569 388 1482 413 b 1199 363 1321 403 1254 385 b 1103 604 1133 421 1093 504 z m 660 238 b 990 844 792 464 892 621 l 992 832 b 1064 283 1003 638 1029 458 b 954 153 1021 247 982 203 b 889 151 933 153 911 151 b 608 164 801 151 704 156 z m 1188 -221 l 1203 -276 b 979 -126 1104 -253 1019 -204 b 957 -29 964 -94 957 -62 b 994 111 957 18 971 67 b 1017 113 1001 111 1008 113 b 1100 118 1035 113 1067 115 b 1188 -221 1126 6 1156 -106 z m 1386 360 b 1554 303 1476 368 1557 347 b 1433 269 1551 267 1450 268 b 1246 326 1367 271 1301 292 b 1386 360 1289 342 1338 354 z m 1090 163 l 1089 163 b 1021 157 1068 160 1046 158 b 1076 222 1038 181 1056 203 b 1090 163 1081 203 1085 182 z m 1090 417 b 1151 342 1107 388 1128 364 l 1132 331 b 1110 317 1124 326 1117 322 b 1090 417 1103 351 1096 383 z "},"Á":{"ha":1471,"x_min":0,"x_max":0,"o":"m 122 372 b 49 371 93 375 69 375 b 8 324 22 367 8 347 b 24 279 8 310 13 294 b 521 128 61 224 211 157 b 107 -303 375 -86 224 -312 b 106 -326 93 -301 94 -315 b 581 124 215 -360 332 -233 b 768 115 639 119 700 117 l 772 114 b 1204 -285 944 22 1106 -137 l 1218 -333 b 1264 -340 1232 -356 1269 -362 l 1254 -307 b 1256 -299 1256 -306 1256 -303 l 1250 -290 b 1149 124 1214 -161 1179 -18 b 1438 169 1253 132 1407 149 b 1460 207 1453 181 1465 213 b 1140 167 1438 206 1264 181 b 1043 808 1085 429 1046 676 b 1042 899 1040 846 1039 876 b 1044 933 1040 917 1042 928 l 1046 933 l 1049 938 b 1001 972 1058 953 1015 985 l 1001 969 l 999 969 l 997 968 b 596 240 890 736 753 483 b 122 372 383 331 192 367 z m 768 156 b 646 218 728 178 686 199 l 660 238 b 990 844 792 464 892 621 l 992 832 b 1090 163 1006 593 1042 376 l 1089 163 b 768 156 958 160 843 153 z m 61 300 b 142 338 42 343 124 340 b 578 214 203 331 367 308 l 547 168 b 61 300 318 188 88 253 z m 1079 119 l 1100 119 b 1181 -194 1124 15 1151 -87 l 1147 -154 b 840 113 1058 -46 951 42 b 1079 119 903 113 986 118 z m 1040 1040 b 1190 1106 1060 1025 1096 1049 b 1144 1142 1203 1124 1157 1151 b 1036 1064 1121 1122 1051 1083 b 1040 1040 1031 1060 1026 1049 z m 686 163 b 608 164 661 163 635 163 b 628 192 615 172 622 182 z "},"Â":{"ha":1471,"x_min":0,"x_max":0,"o":"m 122 372 b 49 371 93 375 69 375 b 8 324 22 367 8 347 b 24 279 8 310 13 294 b 521 128 61 224 211 157 b 107 -303 375 -86 224 -312 b 106 -326 93 -301 94 -315 b 581 124 215 -360 332 -233 b 768 115 639 119 700 117 l 772 114 b 1204 -285 944 22 1106 -137 l 1218 -333 b 1264 -340 1232 -356 1269 -362 l 1254 -307 b 1256 -299 1256 -306 1256 -303 l 1250 -290 b 1149 124 1214 -161 1179 -18 b 1438 169 1253 132 1407 149 b 1460 207 1453 181 1465 213 b 1140 167 1438 206 1264 181 b 1043 808 1085 429 1046 676 b 1042 899 1040 846 1039 876 b 1044 933 1040 917 1042 928 l 1046 933 l 1049 938 b 1001 972 1058 953 1015 985 l 1001 969 l 999 969 l 997 968 b 596 240 890 736 753 483 b 122 372 383 331 192 367 z m 768 156 b 646 218 728 178 686 199 l 660 238 b 990 844 792 464 892 621 l 992 832 b 1090 163 1006 593 1042 376 l 1089 163 b 768 156 958 160 843 153 z m 61 300 b 142 338 42 343 124 340 b 578 214 203 331 367 308 l 547 168 b 61 300 318 188 88 253 z m 1079 119 l 1100 119 b 1181 -194 1124 15 1151 -87 l 1147 -154 b 840 113 1058 -46 951 42 b 1079 119 903 113 986 118 z m 1078 1051 b 1103 1049 1088 1044 1099 1043 b 1099 1075 1113 1056 1110 1068 b 1063 1121 1082 1092 1069 1104 b 1024 1136 1056 1133 1035 1142 b 976 1083 990 1097 986 1093 b 974 1058 969 1078 965 1065 b 1007 1058 982 1049 1000 1053 l 1042 1088 b 1078 1051 1051 1074 1067 1061 z m 686 163 b 608 164 661 163 635 163 b 628 192 615 172 622 182 z "},"Ä":{"ha":1471,"x_min":0,"x_max":0,"o":"m 122 372 b 49 371 93 375 69 375 b 8 324 22 367 8 347 b 24 279 8 310 13 294 b 521 128 61 224 211 157 b 107 -303 375 -86 224 -312 b 106 -326 93 -301 94 -315 b 581 124 215 -360 332 -233 b 768 115 639 119 700 117 l 772 114 b 1204 -285 944 22 1106 -137 l 1218 -333 b 1264 -340 1232 -356 1269 -362 l 1254 -307 b 1256 -299 1256 -306 1256 -303 l 1250 -290 b 1149 124 1214 -161 1179 -18 b 1438 169 1253 132 1407 149 b 1460 207 1453 181 1465 213 b 1140 167 1438 206 1264 181 b 1043 808 1085 429 1046 676 b 1042 899 1040 846 1039 876 b 1044 933 1040 917 1042 928 l 1046 933 l 1049 938 b 1001 972 1058 953 1015 985 l 1001 969 l 999 969 l 997 968 b 596 240 890 736 753 483 b 122 372 383 331 192 367 z m 768 156 b 646 218 728 178 686 199 l 660 238 b 990 844 792 464 892 621 l 992 832 b 1090 163 1006 593 1042 376 l 1089 163 b 768 156 958 160 843 153 z m 61 300 b 142 338 42 343 124 340 b 578 214 203 331 367 308 l 547 168 b 61 300 318 188 88 253 z m 1079 119 l 1100 119 b 1181 -194 1124 15 1151 -87 l 1147 -154 b 840 113 1058 -46 951 42 b 1079 119 903 113 986 118 z m 900 1051 b 963 1051 918 1033 946 1033 b 957 1115 981 1069 975 1099 b 894 1115 939 1133 913 1133 b 900 1051 879 1099 883 1069 z m 1115 1051 b 1176 1051 1132 1033 1158 1033 b 1171 1115 1194 1069 1188 1099 b 1113 1115 1156 1133 1128 1133 b 1115 1051 1094 1099 1100 1069 z m 686 163 b 608 164 661 163 635 163 b 628 192 615 172 622 182 z "},"À":{"ha":1471,"x_min":0,"x_max":0,"o":"m 122 372 b 49 371 93 375 69 375 b 8 324 22 367 8 347 b 24 279 8 310 13 294 b 521 128 61 224 211 157 b 107 -303 375 -86 224 -312 b 106 -326 93 -301 94 -315 b 581 124 215 -360 332 -233 b 768 115 639 119 700 117 l 772 114 b 1204 -285 944 22 1106 -137 l 1218 -333 b 1264 -340 1232 -356 1269 -362 l 1254 -307 b 1256 -299 1256 -306 1256 -303 l 1250 -290 b 1149 124 1214 -161 1179 -18 b 1438 169 1253 132 1407 149 b 1460 207 1453 181 1465 213 b 1140 167 1438 206 1264 181 b 1043 808 1085 429 1046 676 b 1042 899 1040 846 1039 876 b 1044 933 1040 917 1042 928 l 1046 933 l 1049 938 b 1001 972 1058 953 1015 985 l 1001 969 l 999 969 l 997 968 b 596 240 890 736 753 483 b 122 372 383 331 192 367 z m 768 156 b 646 218 728 178 686 199 l 660 238 b 990 844 792 464 892 621 l 992 832 b 1090 163 1006 593 1042 376 l 1089 163 b 768 156 958 160 843 153 z m 61 300 b 142 338 42 343 124 340 b 578 214 203 331 367 308 l 547 168 b 61 300 318 188 88 253 z m 1079 119 l 1100 119 b 1181 -194 1124 15 1151 -87 l 1147 -154 b 840 113 1058 -46 951 42 b 1079 119 903 113 986 118 z m 911 1156 b 882 1125 897 1160 882 1135 b 897 1099 882 1115 885 1104 b 1022 1040 906 1094 915 1093 b 1049 1040 1035 1033 1046 1033 b 1038 1075 1051 1047 1050 1065 b 911 1156 1029 1082 975 1128 z m 686 163 b 608 164 661 163 635 163 b 628 192 615 172 622 182 z "},"Å":{"ha":1471,"x_min":0,"x_max":0,"o":"m 122 372 b 49 371 93 375 69 375 b 8 324 22 367 8 347 b 24 279 8 310 13 294 b 521 128 61 224 211 157 b 107 -303 375 -86 224 -312 b 106 -326 93 -301 94 -315 b 581 124 215 -360 332 -233 b 768 115 639 119 700 117 l 772 114 b 1204 -285 944 22 1106 -137 l 1218 -333 b 1264 -340 1232 -356 1269 -362 l 1254 -307 b 1256 -299 1256 -306 1256 -303 l 1250 -290 b 1149 124 1214 -161 1179 -18 b 1438 169 1253 132 1407 149 b 1460 207 1453 181 1465 213 b 1140 167 1438 206 1264 181 b 1043 808 1085 429 1046 676 b 1042 899 1040 846 1039 876 b 1044 933 1040 917 1042 928 l 1046 933 l 1049 938 b 1001 972 1058 953 1015 985 l 1001 969 l 999 969 l 997 968 b 596 240 890 736 753 483 b 122 372 383 331 192 367 z m 768 156 b 646 218 728 178 686 199 l 660 238 b 990 844 792 464 892 621 l 992 832 b 1090 163 1006 593 1042 376 l 1089 163 b 768 156 958 160 843 153 z m 61 300 b 142 338 42 343 124 340 b 578 214 203 331 367 308 l 547 168 b 61 300 318 188 88 253 z m 1079 119 l 1100 119 b 1181 -194 1124 15 1151 -87 l 1147 -154 b 840 113 1058 -46 951 42 b 1079 119 903 113 986 118 z m 1061 983 b 1128 1038 1093 988 1149 1003 b 1058 1082 1108 1061 1088 1081 b 1040 1072 1047 1083 1039 1081 b 1092 1035 1040 1057 1079 1038 b 1039 1011 1083 1013 1057 1011 b 1000 1021 1033 1011 1003 1014 b 1036 1049 996 1032 1018 1049 b 1039 1065 1044 1051 1044 1058 b 1008 1078 1032 1074 1017 1079 b 957 1031 983 1075 956 1054 b 1061 983 960 992 1025 979 z m 686 163 b 608 164 661 163 635 163 b 628 192 615 172 622 182 z "},"Ã":{"ha":1471,"x_min":0,"x_max":0,"o":"m 122 372 b 49 371 93 375 69 375 b 8 324 22 367 8 347 b 24 279 8 310 13 294 b 521 128 61 224 211 157 b 107 -303 375 -86 224 -312 b 106 -326 93 -301 94 -315 b 581 124 215 -360 332 -233 b 768 115 639 119 700 117 l 772 114 b 1204 -285 944 22 1106 -137 l 1218 -333 b 1264 -340 1232 -356 1269 -362 l 1254 -307 b 1256 -299 1256 -306 1256 -303 l 1250 -290 b 1149 124 1214 -161 1179 -18 b 1438 169 1253 132 1407 149 b 1460 207 1453 181 1465 213 b 1140 167 1438 206 1264 181 b 1043 808 1085 429 1046 676 b 1042 899 1040 846 1039 876 b 1044 933 1040 917 1042 928 l 1046 933 l 1049 938 b 1001 972 1058 953 1015 985 l 1001 969 l 999 969 l 997 968 b 596 240 890 736 753 483 b 122 372 383 331 192 367 z m 768 156 b 646 218 728 178 686 199 l 660 238 b 990 844 792 464 892 621 l 992 832 b 1090 163 1006 593 1042 376 l 1089 163 b 768 156 958 160 843 153 z m 61 300 b 142 338 42 343 124 340 b 578 214 203 331 367 308 l 547 168 b 61 300 318 188 88 253 z m 1079 119 l 1100 119 b 1181 -194 1124 15 1151 -87 l 1147 -154 b 840 113 1058 -46 951 42 b 1079 119 903 113 986 118 z m 1021 1049 b 1096 1078 1054 1038 1092 1046 b 1056 1115 1100 1110 1069 1118 b 1047 1096 1046 1114 1044 1104 b 1006 1092 1047 1074 1017 1088 b 921 1114 979 1101 949 1121 b 911 1056 889 1106 892 1064 b 944 1060 922 1049 949 1053 b 1021 1049 926 1092 1010 1053 z m 686 163 b 608 164 661 163 635 163 b 628 192 615 172 622 182 z "},"B":{"ha":1371,"x_min":0,"x_max":0,"o":"m 485 3 b 293 -164 401 -37 325 -93 b 285 -204 288 -179 285 -192 b 560 -347 285 -311 488 -344 b 789 -311 638 -349 719 -336 b 1108 65 963 -251 1108 -112 b 1104 115 1108 82 1107 99 l 1107 117 b 1343 142 1178 128 1257 135 b 1351 158 1351 143 1361 149 b 1263 171 1343 168 1308 171 b 1090 160 1211 171 1144 167 b 882 361 1049 260 969 324 b 1097 626 1015 407 1100 518 b 792 903 1094 740 1000 861 b 575 921 721 918 646 924 b 594 1075 581 983 588 1036 b 567 1094 594 1082 581 1093 b 546 1089 544 1099 547 1094 b 524 918 538 1051 531 990 l 493 915 b -28 604 271 892 63 764 b -76 410 -62 543 -76 474 b -37 247 -76 347 -62 289 b 228 100 33 128 146 100 b 331 117 282 100 324 113 b 319 131 344 126 331 135 b 256 122 300 125 276 122 b -28 410 68 119 -28 263 b 14 572 -28 465 -14 522 b 519 874 104 731 306 854 b 483 140 500 624 483 379 b 485 3 483 94 483 49 z m 1049 154 b 639 65 936 138 776 114 b 529 24 604 53 567 40 b 571 879 533 299 554 625 b 624 881 589 881 606 881 b 769 869 674 881 722 876 b 1047 619 961 835 1049 717 b 825 388 1046 510 921 403 b 715 406 785 400 747 406 b 617 385 674 406 639 397 b 603 357 607 381 599 379 b 732 333 613 336 678 331 b 829 343 768 335 799 336 b 1049 154 921 315 1013 249 z m 669 24 b 1061 110 781 64 903 85 b 761 -272 1079 -104 908 -222 b 536 -304 688 -296 607 -307 b 326 -194 468 -303 293 -290 b 489 -51 360 -133 422 -86 b 510 -144 493 -90 500 -124 b 542 -175 514 -156 526 -174 b 551 -164 550 -175 553 -171 b 531 -31 539 -133 533 -86 b 669 24 578 -8 628 8 z "},"":{"ha":1436,"x_min":0,"x_max":0,"o":"m 675 161 b 669 32 672 125 671 81 l 632 15 l 579 -15 b 525 -51 557 -26 540 -39 b 428 -189 463 -99 432 -146 b 451 -250 428 -210 438 -232 b 521 -303 465 -271 492 -289 b 733 -346 585 -332 658 -346 b 817 -340 761 -346 789 -343 b 1010 -292 885 -333 951 -315 b 1254 31 1160 -229 1275 -115 b 1224 132 1253 65 1240 100 l 1214 150 l 1421 183 b 1428 207 1432 186 1433 196 b 1385 214 1421 211 1404 214 b 1208 193 1331 214 1243 200 l 1190 189 l 1179 203 b 947 385 1118 278 1039 338 l 914 401 l 956 417 b 1058 471 992 433 1028 451 b 1169 608 1119 510 1161 557 b 1139 710 1176 640 1165 674 b 1061 779 1121 732 1096 756 b 779 881 982 833 883 867 b 794 978 785 919 789 951 b 768 999 796 985 782 996 b 747 993 746 1003 749 999 b 729 885 740 967 735 931 l 693 888 b 640 889 676 889 658 889 b 526 882 603 889 564 886 b 379 854 476 876 428 867 b 32 472 186 799 32 650 b 42 397 32 447 35 422 b 461 133 79 229 294 115 b 499 171 540 142 542 188 b 453 158 486 165 469 161 b 90 386 301 140 128 253 b 83 451 85 408 83 431 b 414 817 83 617 228 764 b 558 844 463 829 510 839 b 686 851 601 850 644 851 l 724 849 b 692 476 711 743 700 606 l 683 479 l 631 490 b 406 510 546 506 471 513 b 278 435 326 506 264 485 b 340 369 285 408 307 386 b 432 342 364 356 400 347 b 593 331 492 331 563 331 b 611 332 599 331 604 331 l 664 336 b 683 339 671 336 676 338 b 675 161 679 268 676 206 z m 629 -43 b 668 -22 640 -36 654 -29 b 690 -240 667 -110 671 -199 b 721 -271 693 -251 706 -269 b 731 -260 729 -271 732 -267 l 724 -253 b 707 -90 711 -190 707 -139 b 711 -1 707 -60 708 -31 b 1168 140 819 47 969 96 l 1175 140 l 1176 135 b 1203 44 1189 106 1200 76 b 971 -256 1221 -87 1117 -196 b 790 -303 914 -281 851 -296 b 715 -307 765 -306 740 -307 b 531 -272 647 -307 583 -296 b 482 -207 499 -258 481 -239 b 568 -85 482 -174 510 -131 b 578 -79 569 -82 575 -81 z m 1040 757 b 1097 706 1067 739 1086 722 b 1119 629 1119 679 1125 654 b 1017 504 1114 585 1075 542 b 858 431 971 476 917 451 l 851 426 l 814 440 b 743 464 790 450 767 457 b 775 844 753 604 763 739 b 1040 757 876 833 969 803 z m 838 374 l 872 385 l 892 376 b 1151 182 996 329 1090 265 l 1151 181 l 1132 176 b 715 51 958 138 821 94 l 724 171 l 735 347 b 838 374 768 354 803 363 z m 678 446 b 690 443 682 444 686 443 l 686 382 l 671 379 l 617 372 b 569 369 601 371 585 369 b 419 378 536 367 474 368 b 350 397 389 383 365 390 b 325 424 336 404 329 413 b 436 471 319 447 354 468 b 678 446 488 475 554 469 z m 772 422 l 801 411 l 800 411 b 738 394 781 404 760 400 b 740 431 739 406 740 418 z "},"C":{"ha":1232,"x_min":0,"x_max":0,"o":"m 458 -299 b 518 -301 479 -300 499 -301 b 1082 139 810 -301 1038 -96 b 1061 208 1093 197 1061 229 b 506 -268 1021 -36 751 -268 b 454 -264 489 -268 471 -267 b 82 271 194 -228 76 53 b 643 917 90 593 311 928 b 863 686 806 911 863 811 b 660 222 863 515 756 300 b 656 203 653 217 647 207 b 731 236 667 197 722 229 b 917 667 831 317 917 504 b 624 953 917 821 839 953 b 22 267 261 953 28 588 b 458 -299 18 -7 190 -274 z "},"Ç":{"ha":1232,"x_min":0,"x_max":0,"o":"m 453 -535 b 506 -532 474 -540 490 -536 b 549 -458 531 -521 558 -492 b 529 -436 544 -451 538 -443 b 493 -412 519 -425 504 -418 b 463 -404 481 -411 472 -407 l 461 -404 l 460 -400 b 474 -368 463 -392 471 -371 b 479 -356 476 -365 479 -360 b 1082 83 785 -368 1036 -157 b 1061 153 1093 142 1061 174 b 492 -324 1021 -92 739 -324 b 440 -319 474 -324 457 -322 b 82 215 181 -283 76 -3 b 643 917 90 538 311 928 b 863 686 806 911 863 811 b 660 222 863 515 756 300 b 656 203 653 217 647 207 b 731 236 667 197 722 229 b 917 667 831 317 917 504 b 624 953 917 821 839 953 b 22 211 261 953 28 532 b 428 -353 18 -57 169 -318 b 418 -375 424 -361 419 -369 b 411 -408 411 -385 410 -397 b 413 -414 410 -411 413 -412 b 438 -437 415 -425 425 -433 l 494 -453 l 501 -457 l 504 -458 b 499 -472 501 -460 501 -465 b 472 -490 494 -481 486 -487 b 447 -494 463 -496 454 -496 b 443 -492 446 -494 443 -492 b 442 -487 443 -492 440 -490 b 406 -468 433 -475 418 -465 b 399 -492 396 -469 393 -481 b 453 -535 411 -515 433 -532 z "},"D":{"ha":1690,"x_min":0,"x_max":0,"o":"m 814 1032 b 793 1057 818 1039 808 1050 b 761 1056 778 1065 764 1064 b 740 881 756 1042 747 961 b 613 889 697 886 654 889 b 538 886 586 889 561 889 b 29 517 265 865 29 726 b 42 429 29 489 33 460 b 504 104 97 244 306 90 b 549 143 581 111 600 158 b 503 132 536 139 519 133 b 94 415 322 121 138 271 b 82 499 86 444 82 472 b 569 846 82 697 311 826 b 646 849 594 847 619 849 b 738 844 676 849 707 847 b 729 733 733 801 731 760 b 700 44 718 550 703 243 l 700 -12 b 524 -167 585 -75 540 -124 b 546 -264 515 -200 521 -233 b 586 -299 556 -275 571 -289 b 771 -349 633 -333 700 -349 b 813 -347 785 -349 799 -349 b 910 -332 846 -346 881 -340 b 1257 -144 1035 -304 1165 -240 b 1410 115 1329 -72 1381 18 l 1413 131 l 1471 140 l 1674 167 b 1679 179 1685 168 1686 169 b 1607 193 1672 186 1656 193 b 1422 176 1568 193 1511 189 l 1426 206 b 1429 265 1429 225 1429 246 b 1306 601 1429 379 1392 496 b 792 872 1186 744 986 836 b 814 1032 797 940 804 1008 z m 1263 601 b 1378 275 1342 500 1378 386 b 1367 168 1378 239 1374 203 l 1365 168 l 1357 165 b 751 8 1085 119 886 65 b 751 21 753 13 751 17 b 783 717 751 218 769 511 b 790 838 785 740 786 786 b 1263 601 971 810 1149 731 z m 743 -236 b 756 -224 751 -236 758 -231 l 754 -217 b 749 -101 751 -214 749 -201 l 749 -47 b 1318 115 871 10 1056 67 l 1351 119 l 1349 113 b 1211 -111 1322 31 1274 -47 b 874 -293 1118 -204 992 -265 b 776 -307 838 -300 807 -306 b 710 -308 753 -310 728 -310 b 608 -281 663 -306 629 -293 b 578 -196 582 -260 567 -232 b 701 -74 586 -156 629 -115 b 743 -236 706 -118 700 -233 z "},"E":{"ha":1090,"x_min":0,"x_max":0,"o":"m 261 611 b 585 917 278 775 435 890 b 647 922 606 919 626 922 b 815 839 719 922 785 899 b 843 829 826 822 831 776 b 626 974 838 910 744 974 b 581 971 611 974 596 974 b 207 615 394 947 217 803 b 310 349 200 500 242 411 l 290 338 b 65 -4 175 271 65 138 b 93 -122 65 -43 74 -83 b 538 -342 175 -276 343 -342 b 1039 -17 819 -342 1049 -126 b 1019 0 1039 -4 1024 10 b 522 -286 972 -136 744 -279 b 138 -119 367 -290 199 -239 b 115 -22 122 -89 115 -56 b 328 300 115 103 213 235 l 356 314 b 589 233 422 269 504 242 b 751 338 665 226 788 250 b 543 414 728 394 640 419 b 357 369 479 410 413 392 b 261 611 292 428 251 511 z m 544 367 b 713 310 635 375 715 354 b 592 276 710 274 608 275 b 404 333 525 278 460 299 b 544 367 447 349 496 361 z "},"É":{"ha":1090,"x_min":0,"x_max":0,"o":"m 261 611 b 585 917 278 775 435 890 b 647 922 606 919 626 922 b 815 839 719 922 785 899 b 843 829 826 822 831 776 b 626 974 838 910 744 974 b 581 971 611 974 596 974 b 207 615 394 947 217 803 b 310 349 200 500 242 411 l 290 338 b 65 -4 175 271 65 138 b 93 -122 65 -43 74 -83 b 538 -342 175 -276 343 -342 b 1039 -17 819 -342 1049 -126 b 1019 0 1039 -4 1024 10 b 522 -286 972 -136 744 -279 b 138 -119 367 -290 199 -239 b 115 -22 122 -89 115 -56 b 328 300 115 103 213 235 l 356 314 b 589 233 422 269 504 242 b 751 338 665 226 788 250 b 543 414 728 394 640 419 b 357 369 479 410 413 392 b 261 611 292 428 251 511 z m 544 367 b 713 310 635 375 715 354 b 592 276 710 274 608 275 b 404 333 525 278 460 299 b 544 367 447 349 496 361 z m 517 1039 b 667 1104 536 1024 572 1047 b 621 1140 679 1122 633 1150 b 513 1063 597 1121 528 1082 b 517 1039 507 1058 503 1047 z "},"Ê":{"ha":1090,"x_min":0,"x_max":0,"o":"m 261 611 b 585 917 278 775 435 890 b 647 922 606 919 626 922 b 815 839 719 922 785 899 b 843 829 826 822 831 776 b 626 974 838 910 744 974 b 581 971 611 974 596 974 b 207 615 394 947 217 803 b 310 349 200 500 242 411 l 290 338 b 65 -4 175 271 65 138 b 93 -122 65 -43 74 -83 b 538 -342 175 -276 343 -342 b 1039 -17 819 -342 1049 -126 b 1019 0 1039 -4 1024 10 b 522 -286 972 -136 744 -279 b 138 -119 367 -290 199 -239 b 115 -22 122 -89 115 -56 b 328 300 115 103 213 235 l 356 314 b 589 233 422 269 504 242 b 751 338 665 226 788 250 b 543 414 728 394 640 419 b 357 369 479 410 413 392 b 261 611 292 428 251 511 z m 544 367 b 713 310 635 375 715 354 b 592 276 710 274 608 275 b 404 333 525 278 460 299 b 544 367 447 349 496 361 z m 586 1043 b 611 1040 596 1036 607 1035 b 607 1067 621 1047 618 1060 b 571 1113 590 1083 578 1096 b 532 1128 564 1125 543 1133 b 485 1075 499 1089 494 1085 b 482 1050 478 1069 474 1057 b 515 1050 490 1040 508 1044 l 550 1079 b 586 1043 560 1065 575 1053 z "},"Ë":{"ha":1090,"x_min":0,"x_max":0,"o":"m 261 611 b 585 917 278 775 435 890 b 647 922 606 919 626 922 b 815 839 719 922 785 899 b 843 829 826 822 831 776 b 626 974 838 910 744 974 b 581 971 611 974 596 974 b 207 615 394 947 217 803 b 310 349 200 500 242 411 l 290 338 b 65 -4 175 271 65 138 b 93 -122 65 -43 74 -83 b 538 -342 175 -276 343 -342 b 1039 -17 819 -342 1049 -126 b 1019 0 1039 -4 1024 10 b 522 -286 972 -136 744 -279 b 138 -119 367 -290 199 -239 b 115 -22 122 -89 115 -56 b 328 300 115 103 213 235 l 356 314 b 589 233 422 269 504 242 b 751 338 665 226 788 250 b 543 414 728 394 640 419 b 357 369 479 410 413 392 b 261 611 292 428 251 511 z m 544 367 b 713 310 635 375 715 354 b 592 276 710 274 608 275 b 404 333 525 278 460 299 b 544 367 447 349 496 361 z m 451 1057 b 511 1057 468 1040 494 1040 b 506 1118 528 1074 522 1101 b 446 1118 489 1135 463 1135 b 451 1057 431 1101 435 1074 z m 654 1057 b 711 1057 669 1040 696 1040 b 706 1118 728 1074 722 1101 b 651 1118 692 1135 665 1135 b 654 1057 635 1101 640 1074 z "},"È":{"ha":1090,"x_min":0,"x_max":0,"o":"m 261 611 b 585 917 278 775 435 890 b 647 922 606 919 626 922 b 815 839 719 922 785 899 b 843 829 826 822 831 776 b 626 974 838 910 744 974 b 581 971 611 974 596 974 b 207 615 394 947 217 803 b 310 349 200 500 242 411 l 290 338 b 65 -4 175 271 65 138 b 93 -122 65 -43 74 -83 b 538 -342 175 -276 343 -342 b 1039 -17 819 -342 1049 -126 b 1019 0 1039 -4 1024 10 b 522 -286 972 -136 744 -279 b 138 -119 367 -290 199 -239 b 115 -22 122 -89 115 -56 b 328 300 115 103 213 235 l 356 314 b 589 233 422 269 504 242 b 751 338 665 226 788 250 b 543 414 728 394 640 419 b 357 369 479 410 413 392 b 261 611 292 428 251 511 z m 544 367 b 713 310 635 375 715 354 b 592 276 710 274 608 275 b 404 333 525 278 460 299 b 544 367 447 349 496 361 z m 463 1144 b 436 1114 449 1149 436 1124 b 451 1088 436 1104 439 1093 b 576 1029 460 1083 469 1082 b 603 1029 589 1022 600 1022 b 601 1061 606 1036 614 1051 b 463 1144 593 1068 526 1117 z "},"Ð":{"ha":1690,"x_min":0,"x_max":0,"o":"m 540 297 b 586 274 553 281 571 274 b 706 271 636 272 674 271 b 700 44 703 189 700 110 l 700 -12 b 524 -167 585 -75 540 -124 b 546 -264 515 -200 521 -233 b 586 -299 556 -275 571 -289 b 771 -349 633 -333 700 -349 b 813 -347 785 -349 799 -349 b 910 -332 846 -346 881 -340 b 1257 -144 1035 -304 1165 -240 b 1410 115 1329 -72 1381 18 l 1413 131 l 1471 140 l 1674 167 b 1679 179 1685 168 1686 169 b 1607 193 1672 186 1656 193 b 1422 176 1568 193 1511 189 l 1426 206 b 1429 265 1429 225 1429 246 b 1306 601 1429 379 1392 496 b 792 872 1186 744 986 836 b 814 1032 797 940 804 1008 b 793 1057 818 1039 808 1050 b 761 1056 778 1065 764 1064 b 740 881 756 1042 747 961 b 613 889 697 886 654 889 b 538 886 586 889 561 889 b 29 517 265 865 29 726 b 42 429 29 489 33 460 b 504 104 97 244 306 90 b 549 143 581 111 600 158 b 503 132 536 139 519 133 b 94 415 322 121 138 271 b 82 499 86 444 82 472 b 569 846 82 697 311 826 b 646 849 594 847 619 849 b 738 844 676 849 707 847 b 729 733 733 801 731 760 b 708 329 722 625 714 475 b 596 331 667 331 626 331 b 542 329 575 331 556 329 b 540 297 526 329 528 311 z m 1263 601 b 1378 275 1342 500 1378 386 b 1367 168 1378 239 1374 203 l 1365 168 l 1357 165 b 751 8 1085 119 886 65 b 751 21 753 13 751 17 b 757 269 751 93 754 179 b 924 265 813 268 850 265 b 938 292 939 265 949 275 b 889 322 929 307 907 322 l 760 328 b 783 717 767 464 775 603 b 790 838 785 740 786 786 b 1263 601 971 810 1149 731 z m 743 -236 b 756 -224 751 -236 758 -231 l 754 -217 b 749 -101 751 -214 749 -201 l 749 -47 b 1318 115 871 10 1056 67 l 1351 119 l 1349 113 b 1211 -111 1322 31 1274 -47 b 874 -293 1118 -204 992 -265 b 776 -307 838 -300 807 -306 b 710 -308 753 -310 728 -310 b 608 -281 663 -306 629 -293 b 578 -196 582 -260 567 -232 b 701 -74 586 -156 629 -115 b 743 -236 706 -118 700 -233 z "},"€":{"ha":608,"x_min":0,"x_max":0,"o":"m 83 358 b 101 356 89 356 93 356 b 99 275 99 329 99 301 l 60 278 b 43 253 44 279 39 265 b 74 224 46 233 60 224 l 115 222 b 171 107 125 181 144 149 b 406 -24 215 38 311 -19 b 529 17 451 -25 492 -12 b 554 82 539 25 568 69 b 504 61 544 94 517 71 b 390 28 472 42 426 28 b 213 125 317 32 244 79 b 168 221 190 161 179 183 l 478 226 b 497 249 493 222 497 235 b 460 279 493 265 475 275 l 151 275 b 154 353 150 301 150 329 b 410 365 242 350 326 365 b 479 361 433 365 456 364 b 500 388 493 361 504 371 b 438 413 500 400 451 413 b 361 421 410 418 385 421 b 163 410 294 421 236 404 l 161 408 b 317 613 188 476 224 567 b 392 628 338 622 364 628 b 514 564 446 628 501 608 b 521 528 517 550 506 528 b 553 560 535 526 557 546 b 408 674 539 635 471 669 b 261 643 356 682 296 667 b 106 408 181 592 128 501 b 71 414 93 408 79 410 b 51 389 57 414 47 403 b 83 358 51 372 67 358 z "},"F":{"ha":1164,"x_min":0,"x_max":0,"o":"m -71 732 b -44 690 -86 708 -60 685 b 489 888 94 754 304 829 b 475 467 479 757 475 628 b 476 281 475 410 475 349 b 103 256 357 276 239 268 b 101 233 94 254 92 244 b 108 226 103 231 104 229 b 110 224 108 225 110 224 b 139 215 121 217 132 213 l 142 215 b 456 -31 249 186 383 90 b 481 -72 465 -43 469 -57 b 501 -335 481 -107 490 -307 b 501 -339 501 -336 503 -337 b 535 -362 508 -350 524 -364 b 557 -257 549 -361 557 -312 b 526 -94 557 -197 547 -128 l 522 240 b 839 244 596 243 754 244 b 994 243 888 244 939 243 b 1000 263 1006 243 1011 251 b 965 285 992 275 976 285 l 860 285 b 521 282 767 285 601 283 b 543 906 522 482 522 646 b 776 972 635 933 715 956 b 1096 1019 897 1003 1007 1019 b 1322 938 1207 1019 1288 993 b 1338 949 1326 929 1340 932 b 1078 1058 1317 1032 1204 1058 b 771 1019 972 1058 856 1040 b 553 957 714 1004 636 983 b 560 971 554 964 557 968 b 543 997 563 976 557 990 b 508 1004 526 1008 515 1008 b 492 938 500 990 496 968 b -8 757 310 879 107 806 z m 213 221 b 475 238 301 229 392 235 l 478 4 b 213 221 422 81 326 165 z "},"":{"ha":1156,"x_min":0,"x_max":0,"o":"m 97 181 b 131 164 108 169 122 161 b 379 194 211 175 293 186 b 414 43 394 143 404 92 l 415 26 l 415 14 b 414 -81 414 -18 414 -50 b 439 -357 414 -190 421 -289 b 489 -378 447 -379 488 -397 b 494 -240 492 -331 494 -286 b 479 -39 494 -174 490 -107 l 474 -10 l 486 204 b 1014 236 660 218 843 228 b 1019 257 1025 236 1029 246 b 985 278 1011 269 996 278 b 490 249 822 269 654 261 b 581 824 507 453 536 644 l 588 842 l 636 849 b 1117 875 754 860 975 872 b 1090 917 1144 881 1118 917 b 603 889 940 914 732 901 l 599 889 l 601 899 l 617 928 b 599 957 618 935 614 947 b 567 960 585 965 572 967 b 540 882 558 946 549 918 l 514 879 b -93 746 278 850 79 804 b -56 704 -112 739 -81 703 b 138 632 15 711 79 682 b 228 526 168 604 200 568 b 303 394 254 488 282 443 b 367 238 328 342 349 289 b 97 204 275 228 182 217 b 97 181 86 203 88 192 z m 524 821 b 432 243 486 653 456 478 b 410 242 424 243 418 242 b 349 386 392 292 371 340 b 271 528 326 438 299 485 b 161 650 239 575 200 617 b 38 726 124 683 82 710 l 28 731 l 79 746 b 460 826 194 778 319 806 l 526 835 z "},"":{"ha":1438,"x_min":0,"x_max":0,"o":"m 383 326 b 410 399 403 349 422 399 b 375 367 404 399 394 390 b 261 301 344 332 301 300 b 53 532 143 307 53 411 b 90 665 53 575 65 621 b 583 843 174 813 368 828 b 642 844 597 844 618 844 b 846 842 718 844 828 840 l 839 778 b 808 360 832 660 819 511 l 806 281 b 436 256 686 276 572 268 b 433 233 428 254 424 244 b 440 226 435 231 436 229 b 442 224 440 225 442 224 b 469 215 451 217 463 213 l 472 215 b 771 -31 578 186 704 90 b 793 -72 779 -43 783 -57 b 792 -103 790 -82 793 -93 b 790 -171 792 -126 790 -150 b 793 -253 790 -201 792 -229 b 801 -335 794 -287 792 -319 b 801 -339 801 -336 803 -337 b 838 -362 808 -350 826 -361 b 850 -353 846 -362 854 -360 l 849 -351 b 872 -247 865 -325 872 -289 b 843 -94 872 -200 863 -147 l 854 240 b 1088 244 928 243 1003 244 b 1243 243 1136 244 1188 243 b 1250 263 1254 243 1260 251 b 1217 285 1242 275 1228 285 l 1111 285 b 856 282 1018 285 936 283 b 860 335 860 300 858 318 b 892 757 869 486 885 638 b 900 842 893 788 896 817 b 1111 843 969 843 1040 843 l 1271 843 b 1611 851 1393 843 1511 844 b 1758 869 1667 856 1718 861 b 1763 892 1768 869 1772 882 b 1722 907 1750 904 1735 910 b 1581 890 1683 899 1635 894 b 1278 882 1492 883 1388 882 b 963 883 1175 882 1068 883 l 904 883 b 926 981 908 933 919 968 b 913 1007 932 986 925 1000 b 876 1013 896 1017 885 1018 b 850 882 863 996 857 947 b 632 885 779 881 704 885 b 560 883 607 885 583 885 b 40 690 344 872 129 857 b 6 546 17 644 6 594 b 275 272 6 400 107 265 b 383 326 328 274 364 303 z m 543 221 b 803 238 633 229 719 235 l 794 4 b 543 221 743 81 654 165 z "},"G":{"ha":1318,"x_min":0,"x_max":0,"o":"m 397 192 b 435 174 406 182 424 172 b 976 242 588 204 785 232 b 967 174 974 225 969 201 b 960 107 964 154 961 132 l 958 107 l 950 88 b 456 -267 872 -74 669 -265 b 88 200 228 -268 88 -78 b 89 258 88 219 88 239 b 628 901 108 557 343 872 b 668 903 642 903 654 903 b 883 789 761 903 850 872 b 897 714 892 768 897 742 b 783 493 897 643 865 558 b 842 496 763 476 801 463 b 944 699 914 553 944 629 b 910 819 944 743 932 786 b 628 949 843 918 739 954 b 38 256 283 929 50 569 b 485 -307 24 -108 219 -314 b 939 -50 683 -301 847 -172 l 947 -37 b 943 -174 944 -82 943 -128 b 964 -453 943 -279 950 -381 b 993 -481 965 -464 978 -475 b 1014 -472 1006 -486 1015 -482 b 992 -233 997 -385 992 -308 b 1004 57 992 -137 1000 -46 l 1007 78 l 1011 82 b 1033 240 1032 142 1043 197 b 1035 243 1033 240 1033 242 b 1110 244 1060 243 1085 244 b 1183 243 1135 244 1160 243 b 1192 265 1193 244 1197 253 b 1157 285 1183 276 1169 285 b 1076 286 1128 286 1103 286 b 397 217 839 286 586 253 b 397 192 386 214 386 203 z "},"":{"ha":1247,"x_min":0,"x_max":0,"o":"m 946 313 b 593 -40 968 85 772 -15 b 113 326 396 -68 104 44 b 760 911 122 681 474 943 b 990 681 899 896 1021 826 b 833 497 976 615 926 540 b 892 486 808 485 846 463 b 1035 658 974 525 1018 593 b 769 956 1063 822 913 935 b 69 328 424 1003 81 692 b 619 -87 61 38 371 -118 b 929 89 767 -69 867 1 b 889 -142 915 0 897 -104 b 319 -168 697 -146 488 -157 b -218 -357 131 -181 -207 -218 b 254 -594 -228 -485 19 -581 b 331 -597 281 -596 306 -597 b 924 -185 624 -597 856 -460 b 1126 -182 993 -183 1061 -182 b 1815 -200 1400 -182 1631 -194 b 1889 -192 1869 -201 1889 -197 b 1817 -168 1889 -183 1850 -171 b 1074 -139 1751 -162 1457 -139 b 939 -140 1029 -139 986 -139 b 1003 208 953 -78 993 143 b 1004 319 1008 240 1007 288 b 946 313 968 326 956 321 z m 340 -550 b 269 -549 317 -550 294 -550 b -176 -374 68 -540 -164 -461 b 333 -212 -192 -267 203 -222 b 874 -186 493 -200 683 -192 b 340 -550 801 -457 601 -550 z "},"H":{"ha":1399,"x_min":0,"x_max":0,"o":"m 103 378 b 29 376 74 381 50 381 b -10 301 -12 369 -29 342 b 506 129 14 249 182 163 b 532 -271 508 -43 517 -192 b 565 -299 542 -283 550 -297 b 576 -286 574 -297 576 -293 l 572 -279 b 554 124 564 -171 557 -19 b 743 115 613 119 675 117 b 1085 -332 883 11 1035 -151 b 1092 -361 1086 -343 1088 -354 b 1093 -367 1092 -362 1092 -364 b 1096 -368 1093 -369 1094 -369 b 1133 -389 1107 -379 1122 -387 b 1146 -378 1143 -390 1146 -385 l 1143 -371 l 1144 -371 b 1131 -297 1142 -367 1138 -349 b 1101 121 1111 -112 1100 -46 b 1340 160 1181 128 1263 140 b 1385 207 1389 172 1390 213 b 1101 169 1306 193 1204 179 b 1108 624 1101 357 1103 511 b 1150 944 1114 750 1136 925 b 1139 975 1156 951 1151 964 b 1100 981 1128 985 1104 988 b 1051 313 1057 815 1051 567 l 1051 165 b 817 154 967 158 886 154 b 749 156 792 154 769 154 l 710 179 b 554 258 656 210 604 236 l 557 331 b 601 993 568 607 571 867 b 542 1013 604 1015 553 1028 b 504 279 518 856 506 556 b 103 378 318 354 168 372 z m 33 325 b 96 346 38 339 60 346 b 504 242 182 346 346 307 l 504 175 b 33 325 268 204 22 279 z m 1068 -161 b 808 114 993 -46 901 46 b 892 113 831 114 860 113 b 1051 118 939 113 993 114 b 1068 -161 1053 -11 1060 -72 z m 667 163 b 554 169 631 163 593 165 l 554 219 b 667 163 593 201 631 183 z "},"":{"ha":1890,"x_min":0,"x_max":0,"o":"m 1094 460 b 682 935 1086 744 921 928 b 114 607 456 942 199 824 b 81 433 92 549 81 489 b 143 218 81 350 104 274 b 379 101 210 126 303 101 b 519 131 453 101 511 125 b 507 143 532 140 518 149 b 444 128 488 135 465 131 b 136 447 256 108 136 269 b 158 579 136 492 143 536 b 682 893 232 790 468 901 b 1046 482 881 886 1026 733 b 1049 310 1047 426 1049 368 b 1047 183 1049 268 1047 226 b 690 164 914 182 786 178 b 688 140 679 164 678 153 b 718 122 696 129 711 121 b 1047 139 828 131 938 136 b 1046 -139 1046 46 1046 -49 b 1049 -357 1046 -214 1046 -287 b 1075 -386 1049 -367 1060 -379 b 1097 -379 1086 -392 1100 -389 b 1094 -206 1096 -343 1094 -282 b 1096 139 1094 -104 1096 21 b 1274 140 1156 140 1214 140 b 1515 139 1354 140 1435 140 b 1536 -399 1517 -54 1524 -226 b 1556 -486 1543 -437 1547 -469 l 1557 -490 b 1590 -514 1568 -503 1579 -512 b 1603 -503 1600 -515 1603 -510 l 1600 -496 l 1601 -496 b 1588 -422 1599 -492 1594 -474 b 1564 61 1571 -257 1564 -96 l 1564 138 l 1840 135 b 1847 156 1851 133 1854 143 b 1811 178 1838 168 1822 176 l 1563 182 b 1576 715 1564 339 1571 597 b 1607 944 1582 842 1593 925 b 1596 975 1613 951 1608 964 b 1564 981 1585 985 1568 988 b 1526 742 1543 957 1532 863 b 1517 235 1522 632 1517 394 l 1517 182 l 1442 182 b 1096 183 1338 182 1215 183 b 1094 460 1096 293 1096 397 z "},"":{"ha":1244,"x_min":0,"x_max":0,"o":"m 296 -368 b 335 -396 306 -381 319 -394 b 346 -383 343 -394 346 -390 l 342 -376 b 324 136 331 -240 322 -35 b 593 140 414 139 503 140 b 863 139 683 140 772 139 b 883 -399 864 -54 871 -226 b 903 -486 890 -437 894 -469 l 904 -490 b 944 -514 915 -503 933 -512 b 957 -503 954 -515 957 -510 l 954 -496 l 956 -496 b 942 -422 953 -492 949 -474 b 918 61 925 -257 918 -96 l 918 138 l 1194 135 b 1201 149 1206 133 1208 136 b 1165 171 1192 161 1176 169 l 917 182 b 931 715 918 339 925 597 b 961 944 936 842 947 925 b 950 975 967 951 963 964 b 911 981 939 985 915 988 b 874 742 890 957 879 863 b 864 235 869 632 864 394 l 864 182 l 794 182 b 407 185 678 182 539 185 l 325 185 b 326 233 325 201 325 218 b 371 1035 338 510 340 908 b 311 1054 374 1057 322 1069 b 268 233 281 940 278 475 b 267 183 267 218 267 201 b 44 168 183 182 107 176 b 42 140 33 168 32 153 b 72 122 50 129 65 121 b 267 135 138 128 201 132 b 296 -368 267 -39 274 -297 z "},"I":{"ha":928,"x_min":0,"x_max":0,"o":"m 1147 899 b 1153 921 1158 899 1160 908 b 1117 940 1144 932 1129 940 b 593 907 944 931 774 922 b 619 961 601 928 610 946 b 601 990 624 968 613 982 b 565 997 583 1001 569 1003 b 524 901 550 976 536 943 b 25 835 367 886 203 865 b 22 811 14 833 15 822 b 60 793 32 800 49 792 b 510 853 210 819 360 839 b 394 171 453 649 410 315 b 375 -153 386 103 375 -36 b -147 -244 196 -174 17 -206 b -147 -269 -158 -247 -157 -258 b -111 -286 -137 -281 -122 -287 b 375 -201 -31 -267 193 -228 b 390 -326 376 -260 381 -306 b 417 -350 397 -337 401 -347 b 428 -339 425 -350 429 -346 l 424 -332 b 415 -196 418 -285 415 -240 b 540 -181 463 -189 504 -185 b 860 -161 650 -168 761 -161 b 1026 -171 922 -161 976 -164 b 1039 -153 1040 -172 1046 -165 b 1004 -129 1032 -142 1017 -132 b 839 -119 954 -122 900 -119 b 508 -139 736 -119 619 -128 l 417 -147 b 447 151 421 -46 436 51 b 576 860 483 392 521 686 b 1147 899 768 876 958 888 z "},"Í":{"ha":928,"x_min":0,"x_max":0,"o":"m 1147 899 b 1153 921 1158 899 1160 908 b 1117 940 1144 932 1129 940 b 593 907 944 931 774 922 b 619 961 601 928 610 946 b 601 990 624 968 613 982 b 565 997 583 1001 569 1003 b 524 901 550 976 536 943 b 25 835 367 886 203 865 b 22 811 14 833 15 822 b 60 793 32 800 49 792 b 510 853 210 819 360 839 b 394 171 453 649 410 315 b 375 -153 386 103 375 -36 b -147 -244 196 -174 17 -206 b -147 -269 -158 -247 -157 -258 b -111 -286 -137 -281 -122 -287 b 375 -201 -31 -267 193 -228 b 390 -326 376 -260 381 -306 b 417 -350 397 -337 401 -347 b 428 -339 425 -350 429 -346 l 424 -332 b 415 -196 418 -285 415 -240 b 540 -181 463 -189 504 -185 b 860 -161 650 -168 761 -161 b 1026 -171 922 -161 976 -164 b 1039 -153 1040 -172 1046 -165 b 1004 -129 1032 -142 1017 -132 b 839 -119 954 -122 900 -119 b 508 -139 736 -119 619 -128 l 417 -147 b 447 151 421 -46 436 51 b 576 860 483 392 521 686 b 1147 899 768 876 958 888 z m 572 1075 b 722 1140 592 1060 628 1083 b 676 1176 735 1158 689 1186 b 568 1099 653 1157 583 1118 b 572 1075 563 1094 558 1083 z "},"Î":{"ha":928,"x_min":0,"x_max":0,"o":"m 1147 899 b 1153 921 1158 899 1160 908 b 1117 940 1144 932 1129 940 b 593 907 944 931 774 922 b 619 961 601 928 610 946 b 601 990 624 968 613 982 b 565 997 583 1001 569 1003 b 524 901 550 976 536 943 b 25 835 367 886 203 865 b 22 811 14 833 15 822 b 60 793 32 800 49 792 b 510 853 210 819 360 839 b 394 171 453 649 410 315 b 375 -153 386 103 375 -36 b -147 -244 196 -174 17 -206 b -147 -269 -158 -247 -157 -258 b -111 -286 -137 -281 -122 -287 b 375 -201 -31 -267 193 -228 b 390 -326 376 -260 381 -306 b 417 -350 397 -337 401 -347 b 428 -339 425 -350 429 -346 l 424 -332 b 415 -196 418 -285 415 -240 b 540 -181 463 -189 504 -185 b 860 -161 650 -168 761 -161 b 1026 -171 922 -161 976 -164 b 1039 -153 1040 -172 1046 -165 b 1004 -129 1032 -142 1017 -132 b 839 -119 954 -122 900 -119 b 508 -139 736 -119 619 -128 l 417 -147 b 447 151 421 -46 436 51 b 576 860 483 392 521 686 b 1147 899 768 876 958 888 z m 625 1097 b 650 1094 635 1090 646 1089 b 646 1121 660 1101 657 1114 b 610 1167 629 1138 617 1150 b 571 1182 603 1179 582 1188 b 524 1129 538 1143 533 1139 b 521 1104 517 1124 513 1111 b 554 1104 529 1094 547 1099 l 589 1133 b 625 1097 599 1119 614 1107 z "},"Ï":{"ha":928,"x_min":0,"x_max":0,"o":"m 1147 899 b 1153 921 1158 899 1160 908 b 1117 940 1144 932 1129 940 b 593 907 944 931 774 922 b 619 961 601 928 610 946 b 601 990 624 968 613 982 b 565 997 583 1001 569 1003 b 524 901 550 976 536 943 b 25 835 367 886 203 865 b 22 811 14 833 15 822 b 60 793 32 800 49 792 b 510 853 210 819 360 839 b 394 171 453 649 410 315 b 375 -153 386 103 375 -36 b -147 -244 196 -174 17 -206 b -147 -269 -158 -247 -157 -258 b -111 -286 -137 -281 -122 -287 b 375 -201 -31 -267 193 -228 b 390 -326 376 -260 381 -306 b 417 -350 397 -337 401 -347 b 428 -339 425 -350 429 -346 l 424 -332 b 415 -196 418 -285 415 -240 b 540 -181 463 -189 504 -185 b 860 -161 650 -168 761 -161 b 1026 -171 922 -161 976 -164 b 1039 -153 1040 -172 1046 -165 b 1004 -129 1032 -142 1017 -132 b 839 -119 954 -122 900 -119 b 508 -139 736 -119 619 -128 l 417 -147 b 447 151 421 -46 436 51 b 576 860 483 392 521 686 b 1147 899 768 876 958 888 z m 457 1083 b 519 1083 475 1067 501 1067 b 513 1147 536 1101 531 1129 b 451 1147 496 1165 468 1165 b 457 1083 436 1129 440 1101 z m 669 1083 b 729 1083 685 1067 713 1067 b 724 1147 747 1101 742 1129 b 665 1147 708 1165 681 1165 b 669 1083 649 1129 654 1101 z "},"Ì":{"ha":928,"x_min":0,"x_max":0,"o":"m 1147 899 b 1153 921 1158 899 1160 908 b 1117 940 1144 932 1129 940 b 593 907 944 931 774 922 b 619 961 601 928 610 946 b 601 990 624 968 613 982 b 565 997 583 1001 569 1003 b 524 901 550 976 536 943 b 25 835 367 886 203 865 b 22 811 14 833 15 822 b 60 793 32 800 49 792 b 510 853 210 819 360 839 b 394 171 453 649 410 315 b 375 -153 386 103 375 -36 b -147 -244 196 -174 17 -206 b -147 -269 -158 -247 -157 -258 b -111 -286 -137 -281 -122 -287 b 375 -201 -31 -267 193 -228 b 390 -326 376 -260 381 -306 b 417 -350 397 -337 401 -347 b 428 -339 425 -350 429 -346 l 424 -332 b 415 -196 418 -285 415 -240 b 540 -181 463 -189 504 -185 b 860 -161 650 -168 761 -161 b 1026 -171 922 -161 976 -164 b 1039 -153 1040 -172 1046 -165 b 1004 -129 1032 -142 1017 -132 b 839 -119 954 -122 900 -119 b 508 -139 736 -119 619 -128 l 417 -147 b 447 151 421 -46 436 51 b 576 860 483 392 521 686 b 1147 899 768 876 958 888 z m 444 1183 b 413 1153 431 1188 413 1163 b 428 1126 413 1143 415 1132 b 553 1068 436 1122 446 1121 b 579 1068 565 1061 576 1061 b 574 1101 582 1075 586 1092 b 444 1183 565 1108 508 1156 z "},"J":{"ha":892,"x_min":0,"x_max":0,"o":"m 917 849 b 922 871 928 849 928 858 b 886 883 913 882 899 883 b 565 861 775 876 671 869 l 561 876 b 532 883 549 892 539 893 l 532 858 b -157 768 322 842 108 815 b -160 744 -168 767 -165 756 b -121 728 -149 733 -132 725 b 535 818 110 769 319 797 b 538 596 536 761 538 682 b 519 182 538 460 533 304 b -149 -132 314 149 -29 8 b -200 -267 -183 -171 -200 -219 b -167 -372 -200 -304 -189 -340 b 97 -494 -101 -451 -6 -487 b 569 139 408 -515 529 -121 b 875 181 717 164 788 174 b 889 193 886 181 896 182 b 769 213 853 207 813 213 b 578 192 711 213 646 203 b 589 461 585 290 589 378 b 576 796 589 575 583 682 l 574 821 b 917 849 686 832 799 840 z m 79 -454 b -133 -358 3 -447 -90 -410 b -168 -275 -157 -331 -168 -303 b 478 118 -168 -89 314 79 l 515 126 b 79 -454 469 -128 357 -475 z "},"K":{"ha":967,"x_min":0,"x_max":0,"o":"m 189 -272 b 231 -312 199 -285 215 -311 b 242 -300 239 -311 242 -307 l 238 -293 b 221 175 225 -168 221 0 b 344 196 263 176 306 183 b 961 -297 586 35 846 -182 b 989 -304 968 -307 982 -308 b 988 -282 997 -300 996 -290 b 392 217 768 -62 617 61 b 747 463 488 261 633 354 b 957 835 836 547 957 708 b 944 899 957 857 953 879 b 918 915 940 910 926 917 b 914 892 908 914 907 903 b 924 853 921 881 924 868 b 706 500 924 747 768 558 b 351 251 593 393 454 299 b 222 321 308 275 264 300 b 267 979 226 578 242 831 b 207 999 269 1001 218 1014 b 167 347 181 842 168 593 b 7 386 99 376 40 394 b -35 321 -14 379 -36 347 b 125 182 -33 257 38 199 b 167 175 139 179 153 176 b 189 -272 169 0 178 -162 z m 0 307 b 11 338 -1 317 -1 333 b 167 289 38 347 103 319 l 167 217 b 122 224 151 218 136 219 b 0 307 63 239 11 272 z m 274 235 b 272 226 274 232 272 229 b 221 217 256 221 239 218 l 221 261 z "},"L":{"ha":1065,"x_min":0,"x_max":0,"o":"m 1360 -175 b 456 -118 1183 -147 711 -122 b 506 76 485 -50 501 24 l 507 90 l 529 97 b 878 596 724 169 865 375 b 613 983 888 763 806 993 b 450 619 443 968 450 742 b 457 222 451 424 457 308 b 456 156 457 199 457 176 l 453 126 b 300 111 419 118 342 106 b 53 378 144 132 53 251 b 71 474 53 410 58 442 b 76 511 75 488 83 503 b 40 479 71 518 46 493 b 19 364 26 439 19 401 b 290 72 19 217 128 100 b 360 67 314 68 338 67 b 443 75 389 67 417 69 l 447 76 b 406 -118 438 -12 422 -61 b 288 -117 358 -118 321 -117 b 185 -124 249 -117 217 -118 b 118 -218 136 -131 111 -190 b 253 -304 133 -276 197 -304 b 433 -165 332 -304 392 -243 b 1375 -214 681 -169 1167 -186 l 1381 -221 b 1390 -212 1388 -219 1389 -218 b 1360 -175 1389 -199 1378 -181 z m 513 147 l 510 146 l 513 193 b 515 278 514 222 515 250 b 503 621 515 399 503 510 l 503 668 b 614 940 503 775 510 929 b 828 639 769 960 828 775 b 825 594 828 624 826 608 b 513 147 803 399 679 218 z m 254 -258 b 151 -212 204 -272 160 -250 b 188 -172 149 -197 147 -176 b 318 -165 213 -169 257 -165 b 375 -167 336 -165 354 -165 b 254 -258 343 -207 300 -243 z "},"M":{"ha":1172,"x_min":0,"x_max":0,"o":"m 543 -36 b 588 18 557 -49 589 -17 b 983 869 653 199 914 761 b 950 346 967 704 950 517 b 953 235 950 308 951 271 b 1153 -282 963 40 996 -282 b 1158 -264 1169 -282 1167 -267 b 1003 243 1054 -231 1011 -31 b 1001 346 1001 278 1001 311 b 1036 901 1001 519 1015 686 b 976 939 1038 929 999 968 b 564 85 921 892 660 322 b 458 778 506 324 490 585 b 403 813 453 804 407 832 b 403 808 403 811 401 810 b 393 742 400 792 399 763 b -437 -121 315 461 -31 -247 b -439 -139 -451 -117 -450 -129 b 426 708 -129 -282 268 171 b 543 -36 447 468 488 218 z "},"N":{"ha":1117,"x_min":0,"x_max":0,"o":"m 794 -215 b 867 328 808 -40 846 190 b 882 429 871 363 878 394 b 1108 908 929 699 1000 890 b 1104 926 1117 910 1121 925 b 835 444 950 950 871 635 b 817 333 828 408 821 371 b 751 -125 800 219 767 22 b 394 785 638 179 450 626 b 335 813 386 810 336 832 b 336 808 336 811 335 810 b 335 742 335 792 336 761 b -390 -283 289 453 29 -361 b -389 -301 -404 -281 -401 -293 b 378 699 -64 -407 260 150 b 746 -239 489 453 649 10 b 794 -215 756 -264 793 -228 z "},"Ñ":{"ha":1258,"x_min":0,"x_max":0,"o":"m 529 886 b 488 899 522 894 504 899 b 446 876 468 899 449 893 b 294 200 457 736 392 449 b -97 -350 168 -124 19 -311 b -97 -369 -107 -353 -107 -356 b -24 -347 -85 -383 -33 -353 b 351 185 122 -274 254 -53 b 499 685 422 360 474 543 b 863 -239 599 304 789 -106 b 922 -253 875 -265 917 -271 b 1418 903 1018 429 1194 897 b 1422 929 1431 903 1438 913 b 1046 521 1367 972 1189 906 b 876 -156 997 390 901 57 b 518 810 735 106 569 575 z m 876 918 b 915 911 889 914 903 911 b 979 957 947 911 975 926 b 924 1008 985 1001 943 1013 b 913 982 911 1007 908 993 b 856 976 913 951 871 971 b 740 1007 819 990 778 1017 b 707 964 717 1001 707 982 b 726 928 707 949 714 933 b 772 933 742 918 778 924 b 876 918 747 976 861 924 z "},"O":{"ha":1265,"x_min":0,"x_max":0,"o":"m 431 -361 b 533 -374 468 -369 500 -374 b 838 -171 660 -369 764 -283 b 926 0 874 -118 906 -65 l 932 22 l 954 28 b 1221 138 1076 57 1158 100 b 1264 203 1251 160 1285 215 b 964 86 1210 169 1065 113 l 946 83 l 953 110 b 969 299 965 163 969 235 b 967 383 969 329 968 358 b 426 933 929 660 783 953 b 15 524 201 919 15 746 b 49 358 15 471 25 415 b 67 317 54 343 63 331 b 136 208 88 276 111 240 l 149 197 l 149 175 b 219 -161 149 60 167 -61 b 431 -360 264 -249 332 -321 z m 886 69 b 678 42 822 56 750 44 b 633 43 663 42 647 42 b 221 175 486 43 331 76 l 200 197 l 200 203 b 267 506 206 315 226 424 b 404 646 304 592 354 640 b 417 668 419 646 425 658 b 383 686 410 679 396 688 b 219 532 313 681 257 615 b 153 263 185 458 163 363 l 151 254 l 139 271 b 94 354 124 297 108 325 b 64 507 74 407 64 458 b 442 892 64 717 242 882 b 911 396 763 907 883 651 b 917 300 915 368 917 335 b 896 99 917 231 910 154 z m 792 -143 b 514 -332 718 -257 618 -329 b 435 -322 486 -333 460 -329 l 419 -317 b 267 -158 353 -286 303 -229 b 201 115 228 -81 203 14 l 199 147 l 203 143 b 300 81 231 118 265 97 b 651 -8 408 22 533 -8 b 697 -8 667 -10 681 -10 b 828 4 740 -7 788 -3 l 869 8 l 853 -29 b 792 -143 835 -69 817 -108 z "},"Œ":{"ha":1794,"x_min":0,"x_max":0,"o":"m 938 611 b 1261 917 954 775 1111 890 b 1324 922 1282 919 1303 922 b 1492 839 1396 922 1461 899 b 1519 829 1503 822 1507 776 b 1303 974 1514 910 1421 974 b 1257 971 1288 974 1272 974 b 888 656 1083 949 918 824 b 426 933 807 821 663 946 b 15 524 201 919 15 746 b 49 358 15 471 25 415 b 67 317 54 343 63 331 b 136 208 88 276 111 240 l 149 197 l 149 175 b 219 -161 149 60 167 -61 b 431 -360 264 -249 332 -321 l 431 -361 b 533 -374 468 -369 500 -374 b 819 -196 650 -369 747 -296 b 1214 -342 911 -297 1053 -342 b 1715 -17 1496 -342 1725 -126 b 1696 0 1715 -4 1700 10 b 1199 -286 1649 -136 1421 -279 b 843 -162 1063 -289 918 -251 b 969 278 931 -29 965 125 b 1004 300 981 286 992 293 l 1032 314 b 1265 233 1099 269 1181 242 b 1428 338 1342 226 1464 250 b 1219 414 1404 394 1317 419 b 1033 369 1156 410 1089 392 b 938 611 968 428 928 511 z m 514 -332 b 435 -322 486 -333 460 -329 l 419 -317 b 267 -158 353 -286 303 -229 b 201 115 228 -81 203 14 l 199 147 l 203 143 b 549 -1 292 63 439 13 b 597 -4 565 -4 581 -4 b 713 43 664 -4 722 13 b 639 39 689 40 664 39 b 221 175 492 39 329 85 l 200 197 l 200 203 b 267 506 206 315 226 424 b 404 646 304 592 354 640 b 417 668 419 646 425 658 b 383 686 410 679 396 688 b 219 532 313 681 257 615 b 153 263 185 458 163 363 l 151 254 l 139 271 b 94 354 124 297 108 325 b 64 507 74 407 64 458 b 442 892 64 717 242 882 b 889 521 710 904 838 728 b 892 508 889 517 890 513 b 911 396 900 471 907 433 b 917 304 914 365 917 335 b 742 -4 821 232 742 117 b 769 -122 742 -43 750 -83 l 783 -146 b 514 -332 708 -258 610 -329 z m 1221 367 b 1389 310 1311 375 1392 354 b 1268 276 1386 274 1285 275 b 1081 333 1201 278 1136 299 b 1221 367 1124 349 1172 361 z m 808 -106 b 792 -21 797 -78 792 -50 b 914 232 792 69 842 163 b 808 -106 903 106 864 -11 z m 968 367 b 986 349 974 360 979 354 l 969 339 b 968 367 969 347 968 357 z "},"Ó":{"ha":1242,"x_min":0,"x_max":0,"o":"m 431 -361 b 533 -374 468 -369 500 -374 b 838 -171 660 -369 764 -283 b 926 0 874 -118 906 -65 l 932 22 l 954 28 b 1221 138 1076 57 1158 100 b 1264 203 1251 160 1285 215 b 964 86 1210 169 1065 113 l 946 83 l 953 110 b 969 299 965 163 969 235 b 967 383 969 329 968 358 b 426 933 929 660 783 953 b 15 524 201 919 15 746 b 49 358 15 471 25 415 b 67 317 54 343 63 331 b 136 208 88 276 111 240 l 149 197 l 149 175 b 219 -161 149 60 167 -61 b 431 -360 264 -249 332 -321 z m 886 69 b 678 42 822 56 750 44 b 633 43 663 42 647 42 b 221 175 486 43 331 76 l 200 197 l 200 203 b 267 506 206 315 226 424 b 404 646 304 592 354 640 b 417 668 419 646 425 658 b 383 686 410 679 396 688 b 219 532 313 681 257 615 b 153 263 185 458 163 363 l 151 254 l 139 271 b 94 354 124 297 108 325 b 64 507 74 407 64 458 b 442 892 64 717 242 882 b 911 396 763 907 883 651 b 917 300 915 368 917 335 b 896 99 917 231 910 154 z m 792 -143 b 514 -332 718 -257 618 -329 b 435 -322 486 -333 460 -329 l 419 -317 b 267 -158 353 -286 303 -229 b 201 115 228 -81 203 14 l 199 147 l 203 143 b 300 81 231 118 265 97 b 651 -8 408 22 533 -8 b 697 -8 667 -10 681 -10 b 828 4 740 -7 788 -3 l 869 8 l 853 -29 b 792 -143 835 -69 817 -108 z m 489 1026 b 639 1092 508 1011 544 1035 b 593 1128 651 1110 606 1138 b 485 1050 569 1108 500 1069 b 489 1026 479 1046 475 1035 z "},"Ô":{"ha":1242,"x_min":0,"x_max":0,"o":"m 431 -361 b 533 -374 468 -369 500 -374 b 838 -171 660 -369 764 -283 b 926 0 874 -118 906 -65 l 932 22 l 954 28 b 1221 138 1076 57 1158 100 b 1264 203 1251 160 1285 215 b 964 86 1210 169 1065 113 l 946 83 l 953 110 b 969 299 965 163 969 235 b 967 383 969 329 968 358 b 426 933 929 660 783 953 b 15 524 201 919 15 746 b 49 358 15 471 25 415 b 67 317 54 343 63 331 b 136 208 88 276 111 240 l 149 197 l 149 175 b 219 -161 149 60 167 -61 b 431 -360 264 -249 332 -321 z m 886 69 b 678 42 822 56 750 44 b 633 43 663 42 647 42 b 221 175 486 43 331 76 l 200 197 l 200 203 b 267 506 206 315 226 424 b 404 646 304 592 354 640 b 417 668 419 646 425 658 b 383 686 410 679 396 688 b 219 532 313 681 257 615 b 153 263 185 458 163 363 l 151 254 l 139 271 b 94 354 124 297 108 325 b 64 507 74 407 64 458 b 442 892 64 717 242 882 b 911 396 763 907 883 651 b 917 300 915 368 917 335 b 896 99 917 231 910 154 z m 792 -143 b 514 -332 718 -257 618 -329 b 435 -322 486 -333 460 -329 l 419 -317 b 267 -158 353 -286 303 -229 b 201 115 228 -81 203 14 l 199 147 l 203 143 b 300 81 231 118 265 97 b 651 -8 408 22 533 -8 b 697 -8 667 -10 681 -10 b 828 4 740 -7 788 -3 l 869 8 l 853 -29 b 792 -143 835 -69 817 -108 z m 557 996 b 586 993 568 989 581 988 b 581 1022 597 1001 593 1015 b 540 1075 563 1042 547 1056 b 496 1092 532 1089 508 1099 b 443 1032 458 1047 453 1043 b 439 1004 435 1026 431 1013 b 476 1004 449 993 469 997 l 517 1038 b 557 996 528 1021 544 1007 z "},"Ö":{"ha":1242,"x_min":0,"x_max":0,"o":"m 431 -361 b 533 -374 468 -369 500 -374 b 838 -171 660 -369 764 -283 b 926 0 874 -118 906 -65 l 932 22 l 954 28 b 1221 138 1076 57 1158 100 b 1264 203 1251 160 1285 215 b 964 86 1210 169 1065 113 l 946 83 l 953 110 b 969 299 965 163 969 235 b 967 383 969 329 968 358 b 426 933 929 660 783 953 b 15 524 201 919 15 746 b 49 358 15 471 25 415 b 67 317 54 343 63 331 b 136 208 88 276 111 240 l 149 197 l 149 175 b 219 -161 149 60 167 -61 b 431 -360 264 -249 332 -321 z m 886 69 b 678 42 822 56 750 44 b 633 43 663 42 647 42 b 221 175 486 43 331 76 l 200 197 l 200 203 b 267 506 206 315 226 424 b 404 646 304 592 354 640 b 417 668 419 646 425 658 b 383 686 410 679 396 688 b 219 532 313 681 257 615 b 153 263 185 458 163 363 l 151 254 l 139 271 b 94 354 124 297 108 325 b 64 507 74 407 64 458 b 442 892 64 717 242 882 b 911 396 763 907 883 651 b 917 300 915 368 917 335 b 896 99 917 231 910 154 z m 792 -143 b 514 -332 718 -257 618 -329 b 435 -322 486 -333 460 -329 l 419 -317 b 267 -158 353 -286 303 -229 b 201 115 228 -81 203 14 l 199 147 l 203 143 b 300 81 231 118 265 97 b 651 -8 408 22 533 -8 b 697 -8 667 -10 681 -10 b 828 4 740 -7 788 -3 l 869 8 l 853 -29 b 792 -143 835 -69 817 -108 z m 340 1038 b 399 1038 357 1021 382 1021 b 393 1097 415 1054 410 1081 b 335 1097 376 1114 351 1114 b 340 1038 319 1081 324 1054 z m 540 1038 b 597 1038 556 1021 581 1021 b 592 1097 613 1054 608 1081 b 536 1097 576 1114 551 1114 b 540 1038 521 1081 526 1054 z "},"Ò":{"ha":1242,"x_min":0,"x_max":0,"o":"m 431 -361 b 533 -374 468 -369 500 -374 b 838 -171 660 -369 764 -283 b 926 0 874 -118 906 -65 l 932 22 l 954 28 b 1221 138 1076 57 1158 100 b 1264 203 1251 160 1285 215 b 964 86 1210 169 1065 113 l 946 83 l 953 110 b 969 299 965 163 969 235 b 967 383 969 329 968 358 b 426 933 929 660 783 953 b 15 524 201 919 15 746 b 49 358 15 471 25 415 b 67 317 54 343 63 331 b 136 208 88 276 111 240 l 149 197 l 149 175 b 219 -161 149 60 167 -61 b 431 -360 264 -249 332 -321 z m 886 69 b 678 42 822 56 750 44 b 633 43 663 42 647 42 b 221 175 486 43 331 76 l 200 197 l 200 203 b 267 506 206 315 226 424 b 404 646 304 592 354 640 b 417 668 419 646 425 658 b 383 686 410 679 396 688 b 219 532 313 681 257 615 b 153 263 185 458 163 363 l 151 254 l 139 271 b 94 354 124 297 108 325 b 64 507 74 407 64 458 b 442 892 64 717 242 882 b 911 396 763 907 883 651 b 917 300 915 368 917 335 b 896 99 917 231 910 154 z m 792 -143 b 514 -332 718 -257 618 -329 b 435 -322 486 -333 460 -329 l 419 -317 b 267 -158 353 -286 303 -229 b 201 115 228 -81 203 14 l 199 147 l 203 143 b 300 81 231 118 265 97 b 651 -8 408 22 533 -8 b 697 -8 667 -10 681 -10 b 828 4 740 -7 788 -3 l 869 8 l 853 -29 b 792 -143 835 -69 817 -108 z m 446 1131 b 417 1099 432 1135 417 1108 b 432 1072 417 1089 419 1078 b 557 1014 440 1068 450 1067 b 583 1014 569 1007 581 1007 b 585 1043 586 1021 597 1033 b 446 1131 576 1050 510 1103 z "},"Ø":{"ha":1242,"x_min":0,"x_max":0,"o":"m 431 -361 b 533 -374 468 -369 500 -374 b 838 -171 660 -369 764 -283 b 926 0 874 -118 906 -65 l 932 22 l 954 28 b 1221 138 1076 57 1158 100 b 1264 203 1251 160 1285 215 b 964 86 1210 169 1065 113 l 946 83 l 953 110 b 969 299 965 163 969 235 b 967 383 969 329 968 358 b 786 803 946 536 892 694 b 875 1019 832 911 865 990 b 857 1049 879 1026 869 1040 b 828 1049 840 1057 828 1057 b 743 842 818 1021 786 946 b 426 933 663 904 560 940 b 15 524 201 919 15 746 b 49 358 15 471 25 415 b 67 317 54 343 63 331 b 136 208 88 276 111 240 l 149 197 l 149 175 b 219 -161 149 60 167 -61 b 290 -264 239 -199 263 -233 b 233 -462 257 -360 235 -431 b 258 -492 233 -471 246 -485 b 283 -486 274 -499 282 -496 b 335 -306 285 -457 304 -392 b 431 -360 363 -326 394 -346 z m 419 69 b 221 175 346 90 278 124 l 200 197 l 200 203 b 267 506 206 315 226 424 b 404 646 304 592 354 640 b 417 668 419 646 425 658 b 383 686 410 679 396 688 b 219 532 313 681 257 615 b 153 263 185 458 163 363 l 151 254 l 139 271 b 94 354 124 297 108 325 b 64 507 74 407 64 458 b 442 892 64 717 242 882 b 728 806 564 897 657 864 b 419 69 643 606 522 322 z m 886 69 b 678 42 822 56 750 44 b 633 43 663 42 647 42 b 475 57 581 43 526 47 b 769 764 572 299 688 569 b 911 396 854 669 896 532 b 917 300 915 368 917 335 b 896 99 917 231 910 154 z m 792 -143 b 514 -332 718 -257 618 -329 b 435 -322 486 -333 460 -329 l 419 -317 b 349 -269 393 -304 369 -289 b 458 17 378 -186 417 -87 b 651 -8 522 0 588 -8 b 697 -8 667 -10 681 -10 b 828 4 740 -7 788 -3 l 869 8 l 853 -29 b 792 -143 835 -69 817 -108 z m 306 -222 b 267 -158 292 -203 278 -181 b 201 115 228 -81 203 14 l 199 147 l 203 143 b 300 81 231 118 265 97 b 406 33 333 63 369 46 b 306 -222 368 -60 333 -146 z "},"Õ":{"ha":1242,"x_min":0,"x_max":0,"o":"m 431 -361 b 533 -374 468 -369 500 -374 b 838 -171 660 -369 764 -283 b 926 0 874 -118 906 -65 l 932 22 l 954 28 b 1221 138 1076 57 1158 100 b 1264 203 1251 160 1285 215 b 964 86 1210 169 1065 113 l 946 83 l 953 110 b 969 299 965 163 969 235 b 967 383 969 329 968 358 b 426 933 929 660 783 953 b 15 524 201 919 15 746 b 49 358 15 471 25 415 b 67 317 54 343 63 331 b 136 208 88 276 111 240 l 149 197 l 149 175 b 219 -161 149 60 167 -61 b 431 -360 264 -249 332 -321 z m 886 69 b 678 42 822 56 750 44 b 633 43 663 42 647 42 b 221 175 486 43 331 76 l 200 197 l 200 203 b 267 506 206 315 226 424 b 404 646 304 592 354 640 b 417 668 419 646 425 658 b 383 686 410 679 396 688 b 219 532 313 681 257 615 b 153 263 185 458 163 363 l 151 254 l 139 271 b 94 354 124 297 108 325 b 64 507 74 407 64 458 b 442 892 64 717 242 882 b 911 396 763 907 883 651 b 917 300 915 368 917 335 b 896 99 917 231 910 154 z m 792 -143 b 514 -332 718 -257 618 -329 b 435 -322 486 -333 460 -329 l 419 -317 b 267 -158 353 -286 303 -229 b 201 115 228 -81 203 14 l 199 147 l 203 143 b 300 81 231 118 265 97 b 651 -8 408 22 533 -8 b 697 -8 667 -10 681 -10 b 828 4 740 -7 788 -3 l 869 8 l 853 -29 b 792 -143 835 -69 817 -108 z m 494 1028 b 583 1063 533 1015 578 1025 b 536 1107 589 1100 553 1111 b 526 1085 524 1106 522 1094 b 476 1079 526 1058 490 1074 b 376 1106 446 1090 408 1114 b 365 1036 339 1096 342 1046 b 404 1042 378 1028 408 1033 b 494 1028 383 1079 482 1033 z "},"P":{"ha":1361,"x_min":0,"x_max":0,"o":"m 603 -306 b 633 -339 613 -318 618 -337 b 644 -326 642 -337 644 -333 l 640 -319 b 624 132 629 -201 624 -37 l 624 189 b 728 165 657 178 693 169 l 778 164 l 782 165 b 1278 528 1057 181 1278 332 b 1235 681 1278 576 1264 628 b 671 918 1131 868 860 926 l 660 918 l 669 979 b 610 999 672 1001 621 1014 l 597 914 b 68 610 407 893 165 797 b 25 428 39 551 25 488 b 74 249 25 361 42 299 b 335 118 142 143 253 118 b 442 135 392 118 435 131 b 431 149 456 144 443 153 b 367 138 413 142 388 139 b 71 417 199 131 71 253 b 111 579 71 468 83 522 b 592 867 217 756 404 838 b 569 331 578 715 569 522 l 569 247 b 513 300 542 263 521 281 b 485 319 507 308 497 321 b 469 304 468 321 463 314 b 569 213 488 267 525 236 b 603 -306 572 17 583 -171 z m 1189 681 b 1232 544 1218 635 1232 589 b 788 207 1232 376 1039 231 l 735 203 b 624 224 699 204 658 211 b 656 874 625 460 636 703 l 706 878 b 747 879 719 879 733 879 b 1189 681 922 879 1092 822 z "},"Q":{"ha":1122,"x_min":0,"x_max":0,"o":"m 1297 -175 b 831 -133 1197 -158 1019 -144 b 839 -124 832 -131 835 -126 l 860 -90 b 960 372 935 42 964 226 b 454 979 951 619 811 981 b 15 542 221 978 15 775 b 63 353 15 479 31 417 b 128 249 79 314 107 281 l 140 236 l 140 213 b 147 49 138 158 142 103 l 157 8 b 201 -121 168 -36 182 -79 b 185 -122 196 -121 190 -121 b 185 -167 172 -131 165 -168 b 225 -165 196 -165 210 -165 b 410 -324 265 -233 326 -290 b 411 -325 411 -324 410 -325 b 511 -342 444 -336 479 -342 b 801 -176 628 -342 728 -274 b 1313 -214 999 -185 1193 -197 l 1318 -221 b 1328 -212 1325 -219 1326 -218 b 1297 -175 1326 -199 1315 -181 z m 782 -111 b 778 -122 782 -114 778 -118 l 771 -131 b 344 -118 621 -124 467 -118 b 244 -119 308 -118 275 -118 b 208 0 229 -82 214 -43 l 200 40 b 188 151 193 75 189 113 l 189 189 l 189 199 b 426 125 261 153 354 132 b 725 260 568 113 686 188 b 711 274 735 276 718 281 b 461 157 658 218 585 157 b 192 249 353 157 251 197 b 267 538 203 356 226 458 b 411 671 306 618 358 667 b 424 692 424 671 429 679 b 228 563 369 735 263 628 b 147 299 190 492 154 397 l 147 292 b 92 392 114 342 103 367 b 65 531 74 439 65 485 b 472 938 65 753 264 939 b 908 365 794 936 911 583 b 804 -76 907 219 879 54 z m 490 -300 b 413 -286 463 -300 440 -296 l 413 -287 l 400 -282 b 269 -165 347 -256 303 -215 l 333 -165 b 735 -174 446 -165 588 -168 b 490 -300 664 -253 578 -300 z "},"R":{"ha":1547,"x_min":0,"x_max":0,"o":"m 574 -297 b 608 -339 583 -310 593 -337 b 619 -326 617 -337 619 -333 l 615 -319 b 610 -110 611 -260 610 -187 b 615 139 610 -32 611 51 b 1147 -54 775 35 979 -54 b 1488 90 1263 -54 1390 7 b 1517 149 1514 113 1576 189 b 1122 -4 1396 67 1264 -4 b 617 186 954 -4 757 93 b 782 165 667 172 722 165 b 1278 528 1057 181 1278 332 b 1235 681 1278 576 1264 628 b 681 918 1132 864 868 925 b 692 979 683 940 688 961 b 633 999 696 1001 644 1014 b 618 915 628 974 624 946 b 68 610 425 899 169 804 b 25 428 39 551 25 488 b 74 249 25 361 42 299 b 335 118 142 143 253 118 b 442 135 392 118 435 131 b 431 149 456 144 443 153 b 367 138 413 142 388 139 b 71 417 199 131 71 253 b 111 579 71 468 83 522 b 611 869 219 763 417 843 b 563 247 588 697 571 464 b 475 290 525 261 494 278 l 458 307 b 432 286 444 318 426 301 b 561 176 467 250 510 213 b 558 -4 560 114 558 53 b 574 -297 558 -131 563 -236 z m 706 878 b 747 879 719 879 733 879 b 1189 681 922 879 1092 822 b 1232 544 1218 635 1232 589 b 788 207 1232 376 1039 231 b 618 229 724 206 667 215 b 674 875 629 464 650 706 z "},"":{"ha":1579,"x_min":0,"x_max":0,"o":"m 699 -325 b 736 -354 707 -336 721 -351 b 747 -342 744 -353 747 -349 l 743 -335 b 726 -139 731 -272 726 -206 b 750 197 726 -25 739 92 b 782 194 761 196 771 194 b 844 192 806 193 826 192 b 933 200 872 192 899 194 b 1104 10 993 121 1054 50 b 1296 -51 1179 -50 1246 -56 b 1544 167 1367 -46 1476 25 b 1539 207 1574 224 1544 219 b 1294 -14 1492 111 1368 -7 b 989 204 1228 -21 1138 19 b 1336 590 1161 256 1346 401 b 861 926 1325 801 1057 911 b 849 928 857 926 853 926 b 871 1018 857 964 864 994 b 813 1039 874 1039 824 1054 b 786 931 804 1015 796 978 b 746 932 772 931 760 932 b 57 613 485 932 165 842 b 32 489 40 572 32 531 b 156 233 32 392 76 297 b 383 151 242 169 324 151 b 489 176 449 151 490 172 b 464 183 488 181 479 185 b 419 181 450 181 435 181 b 196 260 340 181 254 210 b 88 481 133 311 88 392 b 110 586 88 515 94 550 b 781 896 232 815 538 899 b 715 433 757 768 732 589 l 681 446 b 590 461 649 456 618 461 b 486 410 540 461 500 444 b 694 210 450 324 574 243 b 681 -112 689 118 681 -4 b 699 -325 681 -197 685 -275 z m 858 893 b 1288 586 1071 868 1288 775 b 960 250 1289 439 1135 289 b 769 406 906 314 835 369 b 842 894 789 582 817 765 b 858 893 847 893 853 893 z m 515 372 b 594 419 511 392 539 419 b 710 389 625 419 663 411 l 700 278 b 697 249 699 268 697 258 b 515 372 606 271 522 331 z m 907 240 b 846 236 885 236 865 236 b 789 238 826 236 808 236 l 754 240 l 757 276 b 764 358 758 303 761 331 b 907 240 807 331 854 292 z "},"S":{"ha":1081,"x_min":0,"x_max":0,"o":"m 385 214 b 99 357 263 231 122 268 b 90 418 93 378 90 397 b 329 754 90 542 188 657 b 674 875 408 808 556 875 b 794 839 721 875 763 864 b 829 743 819 815 829 782 b 774 550 829 685 806 615 b 819 572 760 514 796 526 b 875 749 851 636 875 696 b 826 863 875 790 861 828 b 640 922 775 904 710 922 b 289 803 524 922 394 872 b 43 436 160 715 43 583 b 57 350 43 408 47 379 b 390 176 93 233 256 194 b 700 93 488 163 618 144 b 271 -128 531 38 371 -37 b 192 -257 224 -169 194 -214 b 350 -365 192 -340 272 -365 b 413 -360 372 -365 393 -362 b 829 -40 613 -326 829 -206 b 788 75 829 7 814 44 l 910 111 l 1081 158 b 1085 169 1090 161 1092 163 b 897 147 1072 179 1026 176 b 751 108 849 136 800 124 b 385 214 651 183 479 200 z m 778 -33 b 404 -322 769 -189 560 -292 b 329 -331 376 -328 351 -331 b 232 -275 271 -331 232 -311 b 311 -158 232 -246 256 -207 b 742 60 394 -85 531 -11 b 778 -33 764 35 778 4 z "},"":{"ha":1033,"x_min":0,"x_max":0,"o":"m 468 -312 b 835 -69 646 -303 811 -187 b 728 100 849 15 792 64 b 349 211 626 151 478 175 b 83 403 207 250 104 319 b 75 468 78 425 75 447 b 356 799 75 603 192 715 b 665 876 431 836 557 876 b 828 824 731 876 790 863 b 851 747 844 803 851 776 b 771 539 851 685 818 610 b 819 556 753 506 789 513 b 899 744 865 624 899 685 b 863 843 899 778 888 811 b 629 929 804 904 719 929 b 322 851 528 929 418 899 b 32 472 168 774 32 642 b 39 407 32 451 35 429 b 339 179 65 281 214 213 b 711 69 468 143 611 121 b 782 -62 767 38 797 -1 b 446 -271 750 -186 556 -267 b 42 -107 289 -275 107 -229 b 25 -132 24 -78 14 -108 b 468 -312 92 -260 293 -319 z "},"Š":{"ha":1081,"x_min":0,"x_max":0,"o":"m 385 214 b 99 357 263 231 122 268 b 90 418 93 378 90 397 b 329 754 90 542 188 657 b 674 875 408 808 556 875 b 794 839 721 875 763 864 b 829 743 819 815 829 782 b 774 550 829 685 806 615 b 819 572 760 514 796 526 b 875 749 851 636 875 696 b 826 863 875 790 861 828 b 640 922 775 904 710 922 b 289 803 524 922 394 872 b 43 436 160 715 43 583 b 57 350 43 408 47 379 b 390 176 93 233 256 194 b 700 93 488 163 618 144 b 271 -128 531 38 371 -37 b 192 -257 224 -169 194 -214 b 350 -365 192 -340 272 -365 b 413 -360 372 -365 393 -362 b 829 -40 613 -326 829 -206 b 788 75 829 7 814 44 l 910 111 l 1081 158 b 1085 169 1090 161 1092 163 b 897 147 1072 179 1026 176 b 751 108 849 136 800 124 b 385 214 651 183 479 200 z m 778 -33 b 404 -322 769 -189 560 -292 b 329 -331 376 -328 351 -331 b 232 -275 271 -331 232 -311 b 311 -158 232 -246 256 -207 b 742 60 394 -85 531 -11 b 778 -33 764 35 778 4 z m 497 989 b 538 982 507 982 529 972 b 629 1069 563 1014 604 1039 b 607 1121 647 1099 628 1136 b 513 1038 588 1101 517 1035 b 456 1103 507 1040 475 1092 b 435 1071 422 1117 414 1093 b 497 989 454 1051 472 1011 z "},"T":{"ha":728,"x_min":0,"x_max":0,"o":"m -251 538 b -336 649 -312 589 -336 618 b -315 707 -336 665 -328 683 b 214 882 -226 828 -3 864 b 408 896 271 888 326 892 b 392 779 404 863 399 822 b 353 360 376 661 364 511 b 332 -103 343 210 333 17 b 331 -171 332 -126 331 -150 b 333 -253 331 -201 332 -229 b 346 -335 335 -287 336 -319 b 346 -339 346 -336 347 -337 b 382 -362 353 -350 371 -361 b 394 -353 390 -362 399 -360 l 392 -344 b 386 -275 390 -342 386 -325 b 383 -174 385 -247 383 -214 l 383 -128 b 404 335 385 -8 394 185 b 443 754 414 486 428 636 b 468 899 450 811 458 860 l 483 899 b 606 900 522 900 564 900 b 801 899 669 900 736 899 b 1169 915 938 899 1069 901 b 1208 971 1231 922 1294 983 b 824 949 1081 953 951 949 b 551 950 732 949 642 950 l 482 950 b 493 975 486 961 489 969 b 481 1003 499 981 493 994 b 446 1011 465 1014 454 1015 b 424 949 436 1000 431 978 b 182 932 336 946 258 940 b -350 733 -33 915 -260 867 b -371 658 -364 713 -371 685 b -299 533 -371 601 -343 544 b -251 538 -272 526 -253 526 z "},"U":{"ha":1186,"x_min":0,"x_max":0,"o":"m 1138 -504 b 1165 -497 1156 -511 1165 -508 b 1135 -467 1163 -487 1151 -474 b 1029 -368 1097 -453 1060 -414 b 922 -151 978 -294 936 -201 b 874 138 889 -54 874 43 b 879 239 874 172 875 206 l 885 283 b 1022 926 939 454 1024 819 b 960 944 1022 944 963 961 b 833 347 935 842 851 503 l 828 289 l 810 246 b 397 -201 775 167 622 -201 b 257 -153 353 -201 306 -186 l 243 -143 l 235 -132 b 138 168 163 -51 138 53 b 171 429 138 251 151 340 b 357 921 218 639 314 833 b 294 953 369 946 311 976 b 108 456 250 865 154 668 b 78 219 90 379 78 299 b 169 -99 78 107 103 -4 b 217 -157 182 -118 197 -139 b 221 -162 217 -158 219 -161 b 419 -242 293 -218 357 -242 b 825 149 594 -242 738 -53 b 874 -144 821 68 842 -47 b 982 -364 890 -193 926 -283 b 1138 -504 1022 -424 1072 -476 z "},"Ú":{"ha":1186,"x_min":0,"x_max":0,"o":"m 1138 -504 b 1165 -497 1156 -511 1165 -508 b 1135 -467 1163 -487 1151 -474 b 1029 -368 1097 -453 1060 -414 b 922 -151 978 -294 936 -201 b 874 138 889 -54 874 43 b 879 239 874 172 875 206 l 885 283 b 1022 926 939 454 1024 819 b 960 944 1022 944 963 961 b 833 347 935 842 851 503 l 828 289 l 810 246 b 397 -201 775 167 622 -201 b 257 -153 353 -201 306 -186 l 243 -143 l 235 -132 b 138 168 163 -51 138 53 b 171 429 138 251 151 340 b 357 921 218 639 314 833 b 294 953 369 946 311 976 b 108 456 250 865 154 668 b 78 219 90 379 78 299 b 169 -99 78 107 103 -4 b 217 -157 182 -118 197 -139 b 221 -162 217 -158 219 -161 b 419 -242 293 -218 357 -242 b 825 149 594 -242 738 -53 b 874 -144 821 68 842 -47 b 982 -364 890 -193 926 -283 b 1138 -504 1022 -424 1072 -476 z m 599 990 b 749 1056 618 975 654 999 b 703 1092 761 1074 715 1101 b 594 1014 679 1072 610 1033 b 599 990 589 1010 585 999 z "},"Û":{"ha":1186,"x_min":0,"x_max":0,"o":"m 1138 -504 b 1165 -497 1156 -511 1165 -508 b 1135 -467 1163 -487 1151 -474 b 1029 -368 1097 -453 1060 -414 b 922 -151 978 -294 936 -201 b 874 138 889 -54 874 43 b 879 239 874 172 875 206 l 885 283 b 1022 926 939 454 1024 819 b 960 944 1022 944 963 961 b 833 347 935 842 851 503 l 828 289 l 810 246 b 397 -201 775 167 622 -201 b 257 -153 353 -201 306 -186 l 243 -143 l 235 -132 b 138 168 163 -51 138 53 b 171 429 138 251 151 340 b 357 921 218 639 314 833 b 294 953 369 946 311 976 b 108 456 250 865 154 668 b 78 219 90 379 78 299 b 169 -99 78 107 103 -4 b 217 -157 182 -118 197 -139 b 221 -162 217 -158 219 -161 b 419 -242 293 -218 357 -242 b 825 149 594 -242 738 -53 b 874 -144 821 68 842 -47 b 982 -364 890 -193 926 -283 b 1138 -504 1022 -424 1072 -476 z m 724 1006 b 761 1003 738 997 754 996 b 754 1032 775 1010 771 1024 b 701 1082 731 1050 711 1064 b 644 1100 692 1096 661 1106 l 575 1040 b 571 1013 564 1035 558 1021 b 619 1013 583 1003 610 1007 l 671 1046 b 724 1006 685 1031 707 1017 z "},"Ü":{"ha":1186,"x_min":0,"x_max":0,"o":"m 1138 -504 b 1165 -497 1156 -511 1165 -508 b 1135 -467 1163 -487 1151 -474 b 1029 -368 1097 -453 1060 -414 b 922 -151 978 -294 936 -201 b 874 138 889 -54 874 43 b 879 239 874 172 875 206 l 885 283 b 1022 926 939 454 1024 819 b 960 944 1022 944 963 961 b 833 347 935 842 851 503 l 828 289 l 810 246 b 397 -201 775 167 622 -201 b 257 -153 353 -201 306 -186 l 243 -143 l 235 -132 b 138 168 163 -51 138 53 b 171 429 138 251 151 340 b 357 921 218 639 314 833 b 294 953 369 946 311 976 b 108 456 250 865 154 668 b 78 219 90 379 78 299 b 169 -99 78 107 103 -4 b 217 -157 182 -118 197 -139 b 221 -162 217 -158 219 -161 b 419 -242 293 -218 357 -242 b 825 149 594 -242 738 -53 b 874 -144 821 68 842 -47 b 982 -364 890 -193 926 -283 b 1138 -504 1022 -424 1072 -476 z m 526 1042 b 593 1042 546 1024 575 1024 b 588 1110 613 1061 606 1092 b 521 1110 568 1129 539 1129 b 526 1042 504 1092 508 1061 z m 754 1042 b 819 1042 771 1024 800 1024 b 813 1110 838 1061 832 1092 b 750 1110 796 1129 767 1129 b 754 1042 732 1092 738 1061 z "},"Ù":{"ha":1186,"x_min":0,"x_max":0,"o":"m 565 1203 b 536 1168 551 1207 536 1178 b 551 1142 536 1158 539 1147 b 676 1083 560 1138 569 1136 b 703 1083 689 1076 700 1076 b 700 1113 706 1090 713 1103 b 565 1203 692 1119 629 1175 z m 1138 -504 b 1165 -497 1156 -511 1165 -508 b 1135 -467 1163 -487 1151 -474 b 1029 -368 1097 -453 1060 -414 b 922 -151 978 -294 936 -201 b 874 138 889 -54 874 43 b 879 239 874 172 875 206 l 885 283 b 1022 926 939 454 1024 819 b 960 944 1022 944 963 961 b 833 347 935 842 851 503 l 828 289 l 810 246 b 397 -201 775 167 622 -201 b 257 -153 353 -201 306 -186 l 243 -143 l 235 -132 b 138 168 163 -51 138 53 b 171 429 138 251 151 340 b 357 921 218 639 314 833 b 294 953 369 946 311 976 b 108 456 250 865 154 668 b 78 219 90 379 78 299 b 169 -99 78 107 103 -4 b 217 -157 182 -118 197 -139 b 221 -162 217 -158 219 -161 b 419 -242 293 -218 357 -242 b 825 149 594 -242 738 -53 b 874 -144 821 68 842 -47 b 982 -364 890 -193 926 -283 b 1138 -504 1022 -424 1072 -476 z "},"V":{"ha":1011,"x_min":0,"x_max":0,"o":"m 296 -287 b 369 -307 306 -296 360 -307 b 976 889 631 -314 950 740 b 964 967 982 922 978 961 b 940 928 950 976 944 935 b 335 -271 844 529 519 -297 l 333 -269 b 265 -179 308 -253 288 -222 b 94 735 165 24 94 463 b 101 864 94 783 96 828 b 65 897 103 872 76 894 b 44 888 54 901 47 896 b 32 742 36 857 32 806 b 296 -287 32 438 125 -161 z "},"W":{"ha":1414,"x_min":0,"x_max":0,"o":"m 603 -31 b 860 -307 643 -167 729 -290 b 1239 278 1046 -329 1192 -46 b 1253 481 1249 338 1253 407 b 1101 1008 1253 675 1214 893 b 1079 1008 1089 1019 1081 1019 b 1089 971 1072 1000 1079 983 b 1214 501 1183 874 1214 675 b 1199 296 1214 424 1208 351 b 849 -254 1150 21 1014 -260 b 626 25 718 -243 643 -93 b 685 428 669 185 688 343 b 581 557 681 532 626 608 b 547 356 560 532 547 456 b 579 60 547 269 557 165 b 292 -253 528 -99 401 -264 b 76 90 163 -239 90 -72 b 72 196 74 125 72 160 b 188 717 72 414 129 640 b 176 747 192 721 189 753 b 24 228 103 710 24 483 b 32 82 24 181 26 131 b 319 -306 57 -112 151 -299 b 603 -31 442 -308 540 -174 z m 642 417 b 603 122 646 344 628 225 b 586 328 590 204 586 272 b 617 525 586 431 603 492 b 642 417 636 511 644 433 z "},"X":{"ha":1099,"x_min":0,"x_max":0,"o":"m 1036 -304 b 958 -240 1064 -310 976 -254 b 453 218 872 -169 658 -3 b 371 310 425 247 397 278 l 458 386 b 1006 782 638 538 826 674 b 1254 913 1074 822 1235 885 b 1158 899 1272 939 1197 913 b 954 799 1115 883 1013 832 b 431 426 796 707 604 574 l 339 347 b 10 822 185 529 54 722 b -51 817 3 835 -61 844 b 300 313 -25 736 121 521 b -219 -274 71 104 -129 -115 b -178 -306 -222 -292 -190 -326 b 332 274 -40 -103 138 94 b 421 178 361 242 390 208 b 1036 -304 668 -83 938 -287 z "},"Y":{"ha":1138,"x_min":0,"x_max":0,"o":"m 847 197 b 853 510 851 342 851 389 l 853 528 l 856 533 b 875 611 864 560 871 586 b 906 738 890 660 897 703 b 904 814 908 768 910 797 b 881 840 904 818 897 831 b 853 844 865 850 856 846 b 838 835 846 843 843 839 b 806 582 814 807 807 706 l 803 553 l 794 522 b 710 314 771 454 746 381 b 294 28 622 154 474 7 b 65 365 115 49 65 235 b 288 810 65 535 161 719 b 240 853 303 824 261 861 b 15 389 110 757 18 560 b 338 -8 24 199 115 -4 b 796 368 532 -12 707 139 b 796 290 794 321 796 304 b 793 221 796 275 794 263 b 778 56 790 172 786 115 b 308 -306 563 -12 353 -129 b 479 -511 285 -424 388 -517 b 828 32 635 -503 769 -376 b 1035 90 904 57 976 76 b 1060 121 1094 103 1135 129 b 833 72 990 110 913 94 b 847 197 839 111 843 153 z m 456 -478 b 351 -329 401 -479 328 -422 b 772 13 392 -164 585 -56 b 456 -478 735 -219 643 -481 z "},"":{"ha":1093,"x_min":0,"x_max":0,"o":"m 882 -640 b 897 -628 896 -646 899 -636 b 876 -224 882 -507 876 -367 b 882 128 876 -104 881 17 b 896 322 883 171 893 281 b 965 788 926 456 965 649 b 958 874 965 819 963 849 b 954 883 958 872 958 878 b 911 903 938 900 914 906 b 904 899 906 901 906 897 b 864 606 900 888 876 719 b 843 378 854 532 853 476 b 425 -68 801 304 660 -68 b 317 -43 392 -68 356 -61 b 217 40 281 -25 246 3 b 100 392 146 131 101 267 b 229 790 94 618 207 764 b 176 826 240 810 200 844 b 46 419 139 797 39 649 b 178 40 51 288 96 144 b 319 -76 215 -8 261 -49 b 460 -112 368 -101 417 -112 b 828 206 661 -112 774 121 l 828 -83 b 861 -604 828 -264 832 -453 b 882 -640 864 -614 864 -635 z "},"":{"ha":1065,"x_min":0,"x_max":0,"o":"m 36 -218 b 440 -462 111 -364 283 -462 b 542 -447 476 -462 511 -458 b 821 197 738 -382 783 -129 b 836 510 835 342 835 389 l 836 528 l 839 533 b 858 611 847 560 854 586 b 889 738 874 660 881 703 b 888 814 892 768 893 797 b 864 840 888 818 881 831 b 836 844 849 850 839 846 b 821 835 829 843 826 839 b 789 582 797 807 790 706 l 786 553 l 778 522 b 693 314 754 454 729 381 b 296 -8 606 154 475 -24 b 63 324 117 7 63 193 b 263 814 63 493 136 724 b 256 843 272 819 268 832 b 219 853 242 853 229 857 b 13 347 89 757 15 518 b 325 -51 21 157 103 -51 b 779 368 521 -51 690 139 b 775 290 778 321 776 304 b 768 221 775 275 772 263 b 508 -407 733 -114 689 -346 b 417 -422 479 -418 449 -422 b 81 -221 282 -422 142 -337 b 46 -199 75 -210 60 -200 b 36 -218 35 -197 33 -207 z "},"":{"ha":1082,"x_min":0,"x_max":0,"o":"m 746 -114 b 181 -140 554 -118 349 -129 b -357 -329 -8 -153 -346 -190 b 115 -567 -367 -457 -119 -553 b 192 -569 142 -568 167 -569 b 765 -217 468 -569 663 -474 b 785 -157 772 -199 779 -179 b 988 -154 854 -156 922 -154 b 1676 -172 1261 -154 1492 -167 b 1750 -164 1731 -174 1750 -169 b 1678 -140 1750 -156 1711 -143 b 935 -111 1613 -135 1318 -111 b 796 -112 890 -111 843 -111 b 844 510 843 100 842 306 l 844 528 l 847 533 b 867 611 856 560 863 586 b 897 738 882 660 889 703 b 896 814 900 768 901 797 b 872 840 896 818 889 831 b 844 844 857 850 847 846 b 829 835 838 843 835 839 b 797 582 806 807 799 706 l 794 553 l 786 522 b 701 314 763 454 738 381 b 304 -8 614 154 483 -24 b 71 324 125 7 71 193 b 271 814 71 493 144 724 b 264 843 281 819 276 832 b 228 853 250 853 238 857 b 21 347 97 757 24 518 b 333 -51 29 157 111 -51 b 788 368 529 -51 699 139 b 788 290 786 321 788 304 b 746 -114 788 151 772 17 z m 721 -203 b 201 -522 617 -464 440 -522 b 131 -521 178 -522 156 -522 b -315 -346 -71 -512 -303 -433 b 194 -185 -331 -239 64 -194 b 735 -158 354 -172 544 -164 b 721 -203 731 -175 725 -189 z "},"Ý":{"ha":1082,"x_min":0,"x_max":0,"o":"m 74 -218 b 493 -462 158 -364 336 -462 b 594 -447 529 -462 564 -458 b 831 197 786 -382 815 -129 b 836 510 835 342 835 389 l 836 528 l 839 533 b 858 611 847 560 854 586 b 889 738 874 660 881 703 b 888 814 892 768 893 797 b 864 840 888 818 881 831 b 836 844 849 850 839 846 b 821 835 829 843 826 839 b 789 582 797 807 790 706 l 786 553 l 778 522 b 693 314 754 454 729 381 b 296 -8 606 154 475 -24 b 63 324 117 7 63 193 b 263 814 63 493 136 724 b 256 843 272 819 268 832 b 219 853 242 853 229 857 b 13 347 89 757 15 518 b 325 -51 21 157 103 -51 b 779 368 521 -51 690 139 b 779 290 778 321 779 304 b 776 221 779 275 778 263 b 558 -407 764 -114 735 -346 b 467 -422 529 -418 499 -422 b 118 -221 332 -422 186 -337 b 82 -199 111 -210 96 -200 b 74 -218 71 -197 69 -207 z m 507 964 b 657 1029 526 949 563 972 b 611 1065 669 1047 624 1075 b 503 988 588 1046 518 1007 b 507 964 497 983 493 972 z "},"Ÿ":{"ha":979,"x_min":0,"x_max":0,"o":"m 607 -571 b 624 -558 619 -576 624 -567 l 624 -515 b 689 197 624 -300 660 -31 b 711 324 696 240 703 282 l 718 346 l 721 357 b 792 596 750 440 775 522 b 846 943 819 713 857 894 b 843 953 846 942 847 947 b 803 972 828 969 806 975 b 794 968 797 971 796 967 b 724 675 789 957 747 789 b 678 447 706 601 697 546 b 211 1 628 374 446 1 b 106 26 178 1 143 8 b 15 110 72 44 40 72 b -67 406 -36 186 -67 297 b -64 461 -67 425 -65 443 b 108 860 -44 688 83 833 b 93 889 113 867 107 879 b 60 896 81 899 68 901 b -117 489 26 858 -99 718 b -118 446 -118 475 -118 460 b -24 110 -118 326 -87 203 b 106 -7 8 61 50 21 b 242 -43 151 -32 199 -43 b 643 275 443 -43 581 190 b 569 -447 622 60 569 -222 b 574 -542 569 -481 571 -511 b 607 -571 576 -551 589 -565 z m 458 985 b 519 985 474 968 500 968 b 514 1049 533 1003 533 1031 b 453 1049 494 1065 468 1065 b 458 985 438 1031 438 1003 z m 244 985 b 306 985 261 968 288 968 b 300 1049 321 1003 321 1031 b 239 1049 282 1065 256 1065 b 244 985 225 1031 225 1003 z "},"Z":{"ha":967,"x_min":0,"x_max":0,"o":"m 1208 -350 b 1268 -362 1219 -356 1265 -374 b 1254 -336 1272 -354 1267 -340 b 117 -194 985 -203 442 -194 l -10 -194 b 1025 892 392 165 764 582 b 1006 932 1039 907 1029 936 b 708 901 938 924 829 911 b 300 882 578 890 433 882 b 26 901 197 882 101 888 b 8 886 17 904 7 897 b 31 861 6 874 18 864 b 358 840 114 846 232 840 b 758 857 494 840 640 847 l 940 875 b 0 -122 783 646 263 133 b -99 -196 -31 -153 -61 -176 b -246 -194 -164 -196 -214 -196 b -246 -233 -269 -193 -269 -224 b -142 -251 -208 -249 -175 -254 b -99 -242 -128 -250 -112 -247 l -82 -236 l 35 -236 b 1208 -350 354 -236 981 -250 z "},"Ž":{"ha":967,"x_min":0,"x_max":0,"o":"m 1208 -350 b 1268 -362 1219 -356 1265 -374 b 1254 -336 1272 -354 1267 -340 b 117 -194 985 -203 442 -194 l -10 -194 b 1025 892 392 165 764 582 b 1006 932 1039 907 1029 936 b 708 901 938 924 829 911 b 300 882 578 890 433 882 b 26 901 197 882 101 888 b 8 886 17 904 7 897 b 31 861 6 874 18 864 b 358 840 114 846 232 840 b 758 857 494 840 640 847 l 940 875 b 0 -122 783 646 263 133 b -99 -196 -31 -153 -61 -176 b -246 -194 -164 -196 -214 -196 b -246 -233 -269 -193 -269 -224 b -142 -251 -208 -249 -175 -254 b -99 -242 -128 -250 -112 -247 l -82 -236 l 35 -236 b 1208 -350 354 -236 981 -250 z m 604 983 b 640 976 614 975 633 967 b 722 1064 664 1007 700 1033 b 703 1115 738 1092 721 1131 b 618 1032 685 1094 622 1029 b 568 1097 614 1035 585 1086 b 550 1065 538 1110 531 1088 b 604 983 567 1046 583 1006 z "},"a":{"ha":556,"x_min":0,"x_max":0,"o":"m -35 54 b 15 40 -19 44 -3 40 b 219 146 89 40 181 111 b 318 58 238 96 272 69 b 507 124 376 44 472 89 b 539 211 583 200 563 235 b 299 99 489 156 369 85 b 268 157 274 106 267 133 b 290 229 271 183 283 208 b 244 261 300 246 253 276 l 221 229 l 219 229 b 107 253 185 244 146 253 b -26 215 58 253 11 240 b -76 131 -61 192 -76 161 b -35 54 -76 101 -62 75 z m -10 85 b -35 118 -31 86 -39 101 b 142 208 -19 182 72 208 b 196 201 163 208 182 206 b -10 85 147 150 57 93 z "},"":{"ha":1064,"x_min":0,"x_max":0,"o":"m 928 101 b 985 138 938 104 996 126 b 917 133 978 149 926 136 b 451 88 854 115 615 88 b 319 99 394 88 349 90 b 276 165 289 108 276 135 b 297 238 276 189 283 215 l 300 242 b 251 274 307 258 260 289 b 228 243 251 272 249 271 l 208 249 b 100 265 169 260 132 265 b -26 231 44 265 0 251 b -62 165 -51 211 -62 189 b -49 118 -62 150 -58 135 b 44 65 -29 88 10 65 b 225 160 114 65 176 124 l 225 158 b 350 47 225 118 304 60 b 479 35 385 39 429 35 b 928 101 632 35 831 69 z m 17 107 b -18 135 -8 107 -18 119 b 17 193 -18 154 -3 181 b 128 224 49 215 89 224 b 185 218 147 224 167 222 l 201 215 l 199 213 b 17 107 160 169 74 107 z "},"":{"ha":556,"x_min":0,"x_max":0,"o":"m 246 292 b 240 256 243 279 242 267 l 221 229 l 219 229 b 107 253 185 244 146 253 b -26 215 58 253 11 240 b -76 131 -61 192 -76 161 b -35 54 -76 101 -62 75 b 15 40 -19 44 -3 40 b 219 146 89 40 181 111 b 239 161 226 151 233 156 b 307 -4 246 99 268 43 b 533 -97 363 -74 451 -97 b 1033 297 781 -97 953 99 b 1031 539 1067 379 1071 525 b 1032 501 1025 533 1029 513 b 996 321 1036 444 1022 383 b 517 -65 914 125 735 -65 b 363 -7 458 -65 403 -50 b 297 276 292 67 281 169 b 246 292 290 297 251 300 z m -10 85 b -35 118 -31 86 -39 101 b 142 208 -19 182 72 208 b 196 201 163 208 182 206 b -10 85 147 150 57 93 z "},"":{"ha":750,"x_min":0,"x_max":0,"o":"m 646 604 b 606 603 632 603 618 603 b 632 838 614 701 622 807 b 581 860 636 867 581 882 b 547 600 565 783 561 699 b 185 569 381 593 281 585 b 215 532 161 565 189 528 b 540 557 324 546 429 551 l 540 551 b 299 99 492 261 367 88 b 268 157 278 103 269 126 b 289 221 269 185 283 208 l 288 222 l 290 225 l 290 229 b 244 261 300 246 253 276 l 244 260 b 240 256 243 260 243 258 l 240 253 l 221 229 l 219 229 l 204 235 b 100 250 165 246 131 250 b -29 213 43 250 0 235 b -65 146 -51 194 -67 171 b -50 100 -67 132 -60 115 b -8 61 -40 86 -28 74 l -1 57 b 40 46 13 49 26 46 b 93 57 58 46 76 51 b 179 111 121 69 153 89 l 201 128 l 225 150 b 318 58 232 117 267 65 b 533 303 393 47 481 149 b 531 92 531 249 531 174 b 542 -357 531 -72 535 -261 b 588 -396 549 -386 589 -429 b 581 -103 583 -319 581 -217 b 600 525 581 111 589 361 b 603 560 600 536 601 547 b 633 561 613 560 622 560 b 885 565 692 564 783 565 b 1400 538 1069 565 1288 560 b 1417 553 1411 536 1418 542 b 1385 581 1411 561 1397 575 b 868 608 1290 601 1063 608 b 646 604 782 608 703 607 z m 17 88 b 1 90 6 88 1 89 l -4 93 b -17 121 -14 101 -17 113 b 15 175 -17 139 -7 158 b 131 208 42 194 81 208 b 181 204 147 208 165 207 l 196 201 l 192 199 b 136 149 176 182 156 164 b 53 97 108 126 79 108 b 17 88 38 92 26 89 z "},"á":{"ha":556,"x_min":0,"x_max":0,"o":"m -35 54 b 15 42 -21 44 -3 42 b 68 50 33 42 53 44 b 219 146 99 63 153 89 l 222 143 b 318 58 238 96 272 69 b 507 124 376 44 472 89 b 539 211 583 200 563 235 b 299 99 489 156 369 85 b 268 157 274 106 267 133 b 290 229 271 183 283 208 b 244 261 300 246 253 276 l 221 229 l 219 229 b 125 250 188 243 171 250 b -26 210 68 250 7 232 b -76 129 -61 186 -76 158 b -35 54 -76 101 -62 75 z m -10 85 b -35 118 -31 86 -39 101 b 8 172 -31 136 -17 156 b 144 208 39 192 94 208 b 196 201 161 208 172 208 l 192 199 b -10 85 147 150 57 93 z m 93 326 b 243 392 113 311 149 335 b 197 428 256 410 210 438 b 89 350 174 408 104 369 b 93 326 83 346 79 335 z "},"â":{"ha":556,"x_min":0,"x_max":0,"o":"m 185 331 b 217 328 197 324 211 322 b 211 356 228 336 225 349 b 165 401 190 372 174 385 b 117 417 157 414 131 422 b 57 364 75 378 69 374 b 54 339 49 358 43 346 b 96 339 64 328 88 332 l 139 368 b 185 331 151 354 171 342 z m -35 54 b 15 42 -21 44 -3 42 b 68 50 33 42 53 44 b 219 146 99 63 153 89 l 222 143 b 318 58 238 96 272 69 b 507 124 376 44 472 89 b 539 211 583 200 563 235 b 299 99 489 156 369 85 b 268 157 274 106 267 133 b 290 229 271 183 283 208 b 244 261 300 246 253 276 l 221 229 l 219 229 b 125 250 188 243 171 250 b -26 210 68 250 7 232 b -76 129 -61 186 -76 158 b -35 54 -76 101 -62 75 z m -10 85 b -35 118 -31 86 -39 101 b 8 172 -31 136 -17 156 b 144 208 39 192 94 208 b 196 201 161 208 172 208 l 192 199 b -10 85 147 150 57 93 z "},"´":{"ha":376,"x_min":0,"x_max":0,"o":"m 132 336 b 282 401 151 321 188 344 b 236 438 294 419 249 447 b 128 360 213 418 143 379 b 132 336 122 356 118 344 z "},"ä":{"ha":556,"x_min":0,"x_max":0,"o":"m -35 54 b 15 42 -21 44 -3 42 b 68 50 33 42 53 44 b 219 146 99 63 153 89 l 222 143 b 318 58 238 96 272 69 b 507 124 376 44 472 89 b 539 211 583 200 563 235 b 299 99 489 156 369 85 b 268 157 274 106 267 133 b 290 229 271 183 283 208 b 244 261 300 246 253 276 l 221 229 l 219 229 b 125 250 188 243 171 250 b -26 210 68 250 7 232 b -76 129 -61 186 -76 158 b -35 54 -76 101 -62 75 z m -10 85 b -35 118 -31 86 -39 101 b 8 172 -31 136 -17 156 b 144 208 39 192 94 208 b 196 201 161 208 172 208 l 192 199 b -10 85 147 150 57 93 z m 18 332 b 63 332 31 319 50 319 b 58 378 75 344 71 365 b 14 378 46 390 26 390 b 18 332 3 365 6 344 z m 171 332 b 214 332 182 319 201 319 b 210 378 226 344 222 365 b 168 378 199 390 179 390 b 171 332 156 365 160 344 z "},"æ":{"ha":671,"x_min":0,"x_max":0,"o":"m 419 13 b 643 167 515 18 604 86 b 636 204 663 206 668 238 b 350 46 578 143 481 46 b 249 117 301 46 253 90 b 375 194 297 117 357 150 b 307 276 390 235 350 276 b 226 233 272 275 244 257 l 221 229 l 219 229 b 125 250 188 243 171 250 b -26 210 68 250 7 232 b -76 129 -61 186 -76 158 b -35 54 -76 101 -62 75 b 15 42 -21 44 -3 42 b 68 50 33 42 53 44 b 197 140 90 58 126 76 b 204 110 199 129 200 119 b 419 13 232 24 338 8 z m -10 85 b -35 118 -31 86 -39 101 b 8 172 -31 136 -17 156 b 144 208 39 192 94 208 b 196 201 161 208 172 208 l 192 199 b -10 85 147 150 57 93 z m 329 229 b 247 150 344 214 306 176 b 329 229 246 185 300 258 z "},"à":{"ha":556,"x_min":0,"x_max":0,"o":"m -35 54 b 15 42 -21 44 -3 42 b 68 50 33 42 53 44 b 219 146 99 63 153 89 l 222 143 b 318 58 238 96 272 69 b 507 124 376 44 472 89 b 539 211 583 200 563 235 b 299 99 489 156 369 85 b 268 157 274 106 267 133 b 290 229 271 183 283 208 b 244 261 300 246 253 276 l 221 229 l 219 229 b 125 250 188 243 171 250 b -26 210 68 250 7 232 b -76 129 -61 186 -76 158 b -35 54 -76 101 -62 75 z m -10 85 b -35 118 -31 86 -39 101 b 8 172 -31 136 -17 156 b 144 208 39 192 94 208 b 196 201 161 208 172 208 l 192 199 b -10 85 147 150 57 93 z m 51 439 b 31 419 38 443 31 429 b 46 393 31 410 33 399 b 171 335 54 389 64 388 b 197 335 183 328 194 328 b 182 364 200 342 194 354 b 51 439 174 371 115 411 z "},"&":{"ha":894,"x_min":0,"x_max":0,"o":"m 71 144 b 50 13 51 107 43 57 b 213 -108 60 -57 124 -117 b 547 65 342 -97 451 -14 l 550 67 l 560 57 b 760 -92 639 -15 699 -58 b 839 -92 831 -131 876 -104 b 631 57 792 -76 686 6 l 586 99 b 758 300 653 168 725 250 b 768 368 800 364 782 394 b 544 136 735 321 617 197 b 388 335 483 199 433 265 l 374 357 l 390 374 b 518 543 449 424 488 478 b 528 642 531 578 533 613 b 367 783 518 726 438 783 b 236 638 301 783 243 739 b 236 569 236 615 235 592 b 296 397 247 514 267 457 l 308 374 l 278 347 l 199 283 b 71 144 150 240 99 194 z m 188 -58 b 93 14 133 -62 103 -29 b 117 113 92 46 97 82 b 236 240 140 156 183 196 b 314 306 260 261 286 283 l 338 326 l 347 313 b 511 107 381 258 424 204 b 188 -58 382 11 289 -50 z m 344 406 l 329 438 b 290 565 310 479 296 525 b 288 625 286 588 286 607 b 410 740 293 722 357 758 b 479 642 440 729 474 685 b 469 569 482 622 481 597 b 357 415 449 513 407 461 z "},"å":{"ha":556,"x_min":0,"x_max":0,"o":"m -35 54 b 15 42 -21 44 -3 42 b 68 50 33 42 53 44 b 219 146 99 63 153 89 l 222 143 b 318 58 238 96 272 69 b 507 124 376 44 472 89 b 539 211 583 200 563 235 b 299 99 489 156 369 85 b 268 157 274 106 267 133 b 290 229 271 183 283 208 b 244 261 300 246 253 276 l 221 229 l 219 229 b 125 250 188 243 171 250 b -26 210 68 250 7 232 b -76 129 -61 186 -76 158 b -35 54 -76 101 -62 75 z m -10 85 b -35 118 -31 86 -39 101 b 8 172 -31 136 -17 156 b 144 208 39 192 94 208 b 196 201 161 208 172 208 l 192 199 b -10 85 147 150 57 93 z m 126 310 b 193 364 158 314 214 329 b 124 408 174 388 153 407 b 106 399 113 410 104 407 b 157 361 106 383 144 364 b 104 338 149 339 122 338 b 65 347 99 338 68 340 b 101 375 61 358 83 375 b 104 392 110 378 110 385 b 74 404 97 400 82 406 b 22 357 49 401 21 381 b 126 310 25 318 90 306 z "},"^":{"ha":549,"x_min":0,"x_max":0,"o":"m 86 171 b 114 178 99 165 110 168 b 239 372 139 238 178 288 l 249 389 l 257 371 b 307 274 268 343 286 308 b 360 174 340 203 343 200 b 389 165 365 164 381 160 b 396 193 399 171 400 183 b 342 289 378 218 379 219 b 294 382 324 322 306 356 b 276 433 279 418 276 431 b 236 451 276 454 247 468 b 76 200 183 376 108 276 b 86 171 72 189 76 178 z "},"~":{"ha":599,"x_min":0,"x_max":0,"o":"m 282 161 b 350 181 308 153 343 154 b 306 224 357 206 328 231 b 304 204 294 221 300 213 b 224 215 301 183 233 213 b 169 224 211 219 190 224 b 108 189 139 224 108 215 b 129 153 107 181 114 160 b 160 164 142 146 157 156 b 221 182 144 186 189 193 z "},"*":{"ha":268,"x_min":0,"x_max":0,"o":"m 75 438 b 93 444 83 433 92 436 b 111 485 96 453 104 468 l 117 481 b 135 451 121 471 129 461 b 160 443 142 443 151 439 b 161 465 165 446 168 457 l 142 494 l 201 489 b 215 503 207 488 214 494 b 196 522 213 513 204 521 l 144 528 l 147 532 b 165 546 157 540 161 546 b 172 568 171 550 176 558 b 144 578 164 576 154 581 b 119 558 139 575 128 567 l 113 549 b 83 582 103 560 94 572 b 60 586 76 590 65 592 b 63 563 54 581 56 569 b 88 533 69 556 78 546 b 40 536 72 535 54 536 b 31 518 31 536 29 528 b 54 503 32 510 46 503 b 81 501 63 503 72 503 b 63 461 71 486 63 471 b 75 438 57 453 64 443 z "},"@":{"ha":883,"x_min":0,"x_max":0,"o":"m 443 -140 b 581 -62 515 -133 567 -104 b 572 4 585 -50 583 -1 b 553 -22 556 13 556 -14 b 414 -101 539 -71 476 -94 b 93 119 261 -111 78 -44 b 388 371 103 242 240 356 b 432 374 403 372 417 374 b 600 339 489 374 547 363 b 704 232 651 315 682 279 b 711 192 708 218 711 204 b 592 85 711 128 653 90 b 510 140 531 85 510 108 b 528 207 510 160 517 183 l 532 218 b 492 243 539 233 503 258 l 472 210 l 453 213 b 343 218 411 221 374 222 b 226 174 290 214 251 196 b 190 108 201 154 192 131 b 206 68 192 94 194 81 b 250 33 215 56 231 43 b 303 21 269 21 286 19 b 469 133 351 25 433 82 b 619 47 488 60 557 43 b 761 174 693 54 761 97 b 753 224 761 189 758 206 b 606 369 728 293 665 342 b 397 413 539 399 467 413 b 356 411 383 413 369 413 b 49 122 189 396 40 271 b 389 -144 58 -62 239 -144 b 443 -140 407 -144 426 -143 z m 308 71 b 275 61 294 64 285 61 b 260 60 265 60 260 60 b 240 92 247 67 242 76 b 269 142 239 104 247 125 b 413 182 299 167 349 185 l 442 179 b 390 125 426 160 408 142 b 308 71 363 101 333 81 z "},"ã":{"ha":556,"x_min":0,"x_max":0,"o":"m -35 54 b 15 42 -21 44 -3 42 b 68 50 33 42 53 44 b 219 146 99 63 153 89 l 222 143 b 318 58 238 96 272 69 b 507 124 376 44 472 89 b 539 211 583 200 563 235 b 299 99 489 156 369 85 b 268 157 274 106 267 133 b 290 229 271 183 283 208 b 244 261 300 246 253 276 l 221 229 l 219 229 b 125 250 188 243 171 250 b -26 210 68 250 7 232 b -76 129 -61 186 -76 158 b -35 54 -76 101 -62 75 z m -10 85 b -35 118 -31 86 -39 101 b 8 172 -31 136 -17 156 b 144 208 39 192 94 208 b 196 201 161 208 172 208 l 192 199 b -10 85 147 150 57 93 z m 151 322 b 226 351 185 311 222 319 b 186 389 231 383 200 392 b 178 369 176 388 175 378 b 136 365 178 347 147 361 b 51 388 110 375 79 394 b 42 329 19 379 22 338 b 75 333 53 322 79 326 b 151 322 57 365 140 326 z "},"b":{"ha":506,"x_min":0,"x_max":0,"o":"m 8 -8 b 31 -11 22 -15 29 -11 b 36 -7 33 -10 35 -7 b 39 14 38 -3 40 4 l 47 53 l 51 67 l 54 65 b 188 44 85 44 165 40 l 193 46 l 204 46 b 476 169 326 47 425 100 b 483 217 489 188 497 231 b 256 100 435 174 324 111 l 265 122 b 275 179 271 139 275 158 b 236 271 275 211 265 244 l 229 276 b 189 296 218 288 201 294 b 15 135 128 307 39 192 b 7 385 8 206 7 294 b 29 799 7 567 13 750 b 14 829 33 807 25 821 b -18 831 0 838 -14 838 b -43 451 -36 781 -43 617 l -43 407 b -37 157 -43 317 -40 228 l -26 68 b -14 18 -22 46 -19 28 b -10 10 -14 17 -14 14 b 8 -8 -10 8 -1 -1 z m 63 94 l 60 96 b 204 256 121 185 157 240 l 207 256 l 211 250 b 224 208 219 242 224 228 b 104 86 224 143 168 86 b 63 94 90 86 76 89 z "},"":{"ha":388,"x_min":0,"x_max":0,"o":"m 8 -8 b 31 -11 22 -15 29 -11 b 36 -7 33 -10 35 -7 b 39 14 38 -3 40 4 l 47 53 l 51 67 l 54 65 b 119 44 68 56 93 44 b 253 181 206 44 253 114 b 149 296 253 236 219 289 b 15 135 71 311 24 189 b 4 347 10 194 4 272 l 4 389 b 42 793 8 567 18 746 b 21 824 44 801 36 815 b -8 826 8 832 -4 833 b -44 413 -32 774 -42 588 b -37 157 -46 324 -40 228 l -26 68 b -14 18 -22 46 -19 28 b -10 10 -14 17 -14 14 b 8 -8 -10 8 -1 -1 z m 63 94 l 60 96 l 65 113 l 81 157 b 151 256 93 188 117 247 b 203 206 188 256 203 233 b 63 94 203 144 133 54 z "},"":{"ha":506,"x_min":0,"x_max":0,"o":"m -26 68 b -14 18 -22 46 -19 28 b -10 10 -14 17 -14 14 b 8 -8 -10 8 -1 -1 b 31 -11 22 -15 29 -11 b 36 -7 33 -10 35 -7 b 39 14 38 -3 40 4 l 47 53 l 51 67 l 54 65 b 188 44 85 44 165 40 l 193 46 l 204 46 b 476 169 326 47 425 100 b 483 217 489 188 497 231 b 256 100 435 174 324 111 b 274 160 268 118 274 139 b 189 269 274 213 239 264 b 15 135 128 281 39 192 b 10 178 13 149 11 163 b 239 592 150 315 199 461 b 264 760 253 639 264 701 b 150 921 264 849 238 926 b -25 700 71 917 1 851 b -49 372 -37 626 -49 506 b -26 68 -49 274 -43 167 z m 25 694 b 157 883 51 838 94 879 b 215 771 200 886 215 836 b 193 614 215 721 206 663 b 7 228 163 494 121 354 b 1 385 4 276 1 331 b 25 694 1 494 10 608 z m 63 94 l 60 96 b 204 229 121 185 157 214 l 207 229 b 225 183 219 214 225 199 b 106 85 225 133 165 85 b 63 94 90 85 76 88 z "},"\\":{"ha":1157,"x_min":0,"x_max":0,"o":"m 1026 -139 b 1010 -110 1031 -132 1024 -118 b -579 881 782 51 -354 751 b -608 881 -596 889 -608 889 b -590 851 -612 872 -603 858 b 993 -133 -364 721 768 24 b 1026 -139 1006 -143 1022 -146 z "},"|":{"ha":1014,"x_min":0,"x_max":0,"o":"m 818 -399 b 835 -375 828 -397 843 -387 b 742 -246 811 -346 782 -303 b -36 961 515 82 67 806 b -86 989 -53 986 -74 988 b -104 964 -97 990 -112 976 b 682 -239 -11 807 450 97 b 783 -379 722 -300 758 -349 b 818 -399 790 -390 808 -399 z "},"{":{"ha":782,"x_min":0,"x_max":0,"o":"m 682 -369 b 729 -317 735 -364 797 -301 b 658 -331 707 -324 683 -328 b 318 -142 513 -349 386 -257 b 276 13 288 -90 278 -39 b 289 235 274 85 289 160 b 288 278 289 249 289 264 b 236 353 282 307 264 332 l 233 356 l 250 363 b 340 465 297 385 329 425 b 349 557 347 490 349 522 b 336 843 349 644 335 753 b 367 994 333 908 343 961 b 425 1029 381 1014 399 1026 b 488 1024 442 1032 463 1029 b 508 1036 500 1021 508 1025 b 482 1061 507 1046 496 1057 b 404 1068 453 1069 426 1071 b 322 1022 368 1064 342 1049 b 288 857 297 983 288 924 b 301 569 286 764 301 654 b 293 486 301 538 299 508 b 217 399 285 453 257 417 b 185 389 208 394 196 390 l 181 389 l 172 393 b 72 417 136 411 93 424 l 67 417 b 74 383 54 411 58 394 b 169 347 108 361 139 350 l 185 347 l 190 346 b 239 289 221 328 236 308 b 242 240 242 272 242 257 b 228 26 242 171 225 101 b 276 -146 232 -29 240 -86 b 638 -372 356 -279 489 -372 b 682 -369 651 -372 667 -371 z "},"}":{"ha":769,"x_min":0,"x_max":0,"o":"m -11 -369 b 33 -372 4 -371 19 -372 b 394 -146 182 -372 315 -279 b 443 26 431 -86 439 -29 b 429 240 446 101 429 171 b 432 289 429 257 429 272 b 481 346 435 308 450 328 l 486 347 l 501 347 b 597 383 532 350 563 361 b 604 417 613 394 617 411 l 599 417 b 499 393 578 424 535 411 l 490 389 l 486 389 b 454 399 475 390 463 394 b 378 486 414 417 386 453 b 369 569 372 508 369 538 b 383 857 369 654 385 764 b 349 1022 383 924 374 983 b 267 1068 329 1049 303 1064 b 189 1061 244 1071 218 1069 b 163 1036 175 1057 164 1046 b 183 1024 163 1025 171 1021 b 246 1029 208 1029 229 1032 b 304 994 272 1026 290 1014 b 335 843 328 961 338 908 b 322 557 336 753 322 644 b 331 465 322 522 324 490 b 421 363 342 425 374 385 l 438 356 l 435 353 b 383 278 407 332 389 307 b 382 235 382 264 382 249 b 394 13 382 160 397 85 b 353 -142 393 -39 383 -90 b 13 -331 285 -257 158 -349 b -58 -317 -12 -328 -36 -324 b -11 -369 -126 -301 -64 -364 z "},"[":{"ha":713,"x_min":0,"x_max":0,"o":"m 565 -362 b 586 -353 578 -368 588 -364 b 560 -325 585 -342 574 -331 b 417 -307 519 -311 467 -307 b 354 -308 394 -307 372 -307 b 192 -311 297 -310 243 -314 l 175 -310 l 174 -303 l 172 -292 b 174 -211 172 -287 172 -268 l 181 -54 l 192 211 b 218 697 199 369 218 531 b 213 846 218 746 217 796 l 208 878 l 229 879 b 497 869 311 881 413 867 b 504 890 508 869 513 879 b 472 911 497 903 483 911 b 217 921 394 908 299 921 b 171 919 200 921 185 921 b 161 907 163 918 160 914 b 171 724 168 846 171 785 b 144 233 171 557 150 396 l 131 -32 b 124 -189 128 -89 126 -144 b 125 -278 124 -225 122 -265 l 125 -279 b 131 -321 128 -283 126 -301 b 163 -347 133 -333 147 -346 b 257 -354 190 -353 224 -354 b 379 -350 297 -354 339 -351 b 446 -349 401 -349 425 -349 b 565 -362 494 -349 533 -351 z "},"]":{"ha":703,"x_min":0,"x_max":0,"o":"m 464 -376 b 476 -367 471 -376 472 -372 b 494 267 485 -325 492 -15 b 497 807 496 482 497 696 l 497 882 b 458 911 496 899 472 915 l 457 911 b 414 910 456 910 440 910 l 326 914 b 221 917 290 915 253 917 b 156 913 193 917 171 915 b 150 889 144 911 143 900 b 182 872 157 878 171 869 b 242 875 196 874 217 875 b 344 872 272 875 308 874 l 436 868 l 453 868 l 450 858 l 450 754 b 447 286 450 636 449 463 b 432 -333 443 -3 436 -271 l 433 -335 l 404 -333 b 193 -328 335 -332 260 -328 b 115 -331 165 -328 139 -328 b 108 -353 103 -332 101 -342 b 138 -372 114 -365 129 -374 b 211 -369 160 -371 185 -369 b 464 -376 290 -369 386 -376 z "},"•":{"ha":408,"x_min":0,"x_max":0,"o":"m 150 183 b 201 163 165 169 183 163 b 247 183 219 163 236 169 b 267 232 261 196 267 214 b 243 282 264 250 257 268 b 194 303 229 296 213 303 b 146 282 176 303 158 296 b 129 232 133 268 126 250 b 150 183 129 214 138 196 z "},"c":{"ha":400,"x_min":0,"x_max":0,"o":"m 0 156 b 114 249 11 208 63 260 b 104 217 113 233 107 222 b 121 199 94 199 107 193 b 163 236 133 203 163 213 b 131 276 161 250 149 267 b 79 289 113 286 94 289 b 4 261 49 289 24 276 b -46 158 -28 235 -44 197 b 110 14 -50 68 29 14 b 393 175 279 24 371 133 b 385 211 403 193 393 217 b 86 56 301 138 201 64 b 0 156 24 56 -12 96 z "},"ˇ":{"ha":428,"x_min":0,"x_max":0,"o":"m 169 301 b 203 294 178 294 196 286 b 278 375 224 324 257 347 b 260 422 292 401 276 436 b 182 346 243 404 186 343 b 136 406 178 349 151 396 b 119 376 108 418 101 397 b 169 301 135 358 150 322 z "},"ç":{"ha":400,"x_min":0,"x_max":0,"o":"m 85 -101 b 126 -99 101 -106 114 -103 b 160 -42 146 -90 168 -68 b 144 -24 157 -36 151 -29 b 117 -6 138 -15 125 -10 b 93 1 107 -4 100 -1 l 92 1 l 90 4 l 94 14 l 110 14 b 393 175 279 24 371 133 b 385 211 403 193 393 217 b 86 56 301 138 201 64 b 15 79 46 54 25 68 b -3 131 3 94 -3 113 b 49 231 -3 172 24 217 b 114 249 71 246 88 254 b 104 217 113 233 107 222 b 138 192 93 199 125 183 b 163 236 150 199 163 213 b 131 276 161 250 149 267 l 117 282 b 4 261 72 297 33 283 b -44 165 -22 239 -44 204 b -14 65 -50 135 -40 97 b 56 19 3 43 28 28 b 53 -3 51 14 51 6 b 54 -7 51 -4 54 -6 b 74 -25 56 -15 64 -22 l 118 -37 l 126 -42 l 125 -42 b 121 -53 124 -43 124 -47 b 100 -67 118 -58 111 -64 b 81 -69 93 -71 86 -71 b 78 -68 79 -69 78 -68 b 76 -64 78 -68 75 -67 b 49 -49 69 -54 58 -47 b 43 -68 40 -50 39 -58 b 85 -101 53 -86 69 -99 z "},"¸":{"ha":279,"x_min":0,"x_max":0,"o":"m 113 -71 b 154 -68 129 -75 142 -72 b 188 -11 174 -60 196 -37 b 172 7 185 -6 179 1 b 144 25 165 15 153 21 b 121 32 135 26 128 29 l 119 32 l 118 35 b 126 49 121 42 124 47 b 122 72 132 54 132 64 b 97 75 113 79 101 81 b 86 54 94 71 88 63 b 81 28 81 47 79 38 b 82 24 79 26 82 25 b 101 6 83 15 92 8 l 146 -7 l 154 -11 l 153 -11 b 149 -22 151 -12 151 -17 b 128 -36 146 -28 139 -33 b 108 -39 121 -40 114 -40 b 106 -37 107 -39 106 -37 b 104 -33 106 -37 103 -36 b 76 -18 97 -24 86 -17 b 71 -37 68 -19 67 -28 b 113 -71 81 -56 97 -68 z "},"¢":{"ha":453,"x_min":0,"x_max":0,"o":"m 206 -79 b 225 -64 219 -82 228 -76 b 222 47 224 -39 222 -3 l 222 107 b 375 206 279 93 369 139 b 364 247 376 217 376 242 b 339 206 353 253 338 217 b 225 153 336 172 265 139 b 233 504 228 264 229 396 l 244 501 b 306 438 260 496 282 478 b 342 421 314 425 328 418 b 350 447 353 424 358 436 b 249 542 319 490 288 525 l 236 546 l 242 678 b 217 707 242 689 231 703 b 194 696 203 713 193 707 l 183 550 l 142 538 b 42 392 92 515 51 460 b 67 233 39 347 43 286 b 175 117 89 185 133 135 b 174 22 174 79 174 49 b 176 -53 174 -10 174 -33 b 206 -79 178 -64 190 -76 z m 172 496 l 183 500 b 172 165 176 399 174 268 b 114 239 149 188 128 214 b 92 372 93 278 89 336 b 172 496 100 432 138 479 z "},"ˆ":{"ha":349,"x_min":0,"x_max":0,"o":"m 185 331 b 217 328 197 324 211 322 b 211 356 228 336 225 349 b 165 401 190 372 174 385 b 117 417 157 414 131 422 b 57 364 75 378 69 374 b 54 339 49 358 43 346 b 96 339 64 328 88 332 l 139 368 b 185 331 151 354 171 342 z "},":":{"ha":336,"x_min":0,"x_max":0,"o":"m 128 513 b 167 494 138 500 153 494 b 206 513 181 494 194 500 b 224 551 218 522 224 536 b 206 594 224 567 217 583 b 128 594 190 618 157 618 b 113 554 117 583 113 569 b 128 513 113 539 118 524 z m 121 56 b 160 38 131 43 146 38 b 199 56 174 38 188 43 b 215 99 210 67 215 83 b 201 139 215 114 211 128 b 163 156 190 150 176 156 b 124 139 149 156 135 150 b 104 96 111 128 104 111 b 121 56 104 81 110 67 z "},",":{"ha":333,"x_min":0,"x_max":0,"o":"m 139 -10 b 175 -15 146 -21 164 -18 b 192 65 208 -4 210 42 b 157 72 183 76 167 78 b 161 44 146 65 153 53 b 139 -10 164 31 122 17 z "},"©":{"ha":556,"x_min":0,"x_max":0,"o":"m 189 43 b 250 18 207 29 228 21 b 335 40 278 15 307 21 b 393 199 364 64 399 125 b 358 294 392 228 379 261 b 250 361 325 340 285 360 b 171 332 215 364 186 350 b 168 319 169 328 171 324 l 171 317 l 168 317 b 144 296 158 310 153 303 b 111 168 119 265 108 218 b 189 43 118 122 147 72 z m 311 72 b 246 53 289 57 267 50 b 200 72 231 56 215 63 b 144 165 171 94 149 133 b 171 268 140 206 153 243 b 258 288 192 293 221 303 b 279 297 269 283 276 288 b 263 321 278 306 272 317 l 249 325 l 254 325 b 333 276 283 324 310 310 b 361 203 351 253 357 226 b 311 72 365 143 338 92 z m 188 140 b 247 94 200 106 226 93 b 297 131 269 96 289 108 b 288 156 299 139 294 150 b 267 149 279 161 269 157 b 239 131 265 139 253 131 b 215 147 231 131 219 135 b 229 224 206 174 211 204 b 279 231 244 236 263 243 l 283 228 l 288 226 b 286 222 286 225 285 224 b 308 213 294 213 304 208 b 314 225 313 215 317 221 l 315 231 b 307 247 315 233 311 240 b 261 272 292 263 276 271 b 210 251 239 275 222 267 b 179 181 192 235 179 210 b 188 140 179 168 182 154 z "},"d":{"ha":483,"x_min":0,"x_max":0,"o":"m 351 -272 b 368 -258 367 -275 372 -269 b 346 -236 365 -250 354 -240 l 344 -236 l 342 -233 b 325 -181 338 -226 333 -210 b 313 -61 318 -149 314 -107 b 308 68 308 -21 308 22 b 313 261 308 131 310 196 b 322 438 314 314 317 368 b 338 528 324 461 335 500 b 361 819 344 593 360 757 b 308 844 358 840 313 865 b 271 525 307 842 281 643 l 268 475 b 204 254 251 401 233 331 l 193 258 b 100 271 156 268 128 271 b -28 225 40 271 0 251 b -57 154 -46 207 -57 181 b -10 68 -57 125 -43 94 b 75 40 22 44 49 40 b 258 251 172 47 229 174 l 258 201 b 257 89 258 164 257 125 b 261 -37 257 44 258 1 b 275 -161 263 -85 268 -128 b 311 -246 281 -192 292 -224 b 351 -272 321 -257 336 -268 z m 46 78 b 10 90 31 78 19 82 b -7 131 0 97 -7 113 b 18 189 -7 149 0 169 b 132 226 39 211 72 226 b 189 222 149 226 168 225 l 188 219 b 46 78 158 161 114 85 z "},"":{"ha":1192,"x_min":0,"x_max":0,"o":"m 624 -464 b 754 -518 664 -503 719 -525 b 926 -128 876 -493 915 -303 l 931 1 l 932 18 l 972 46 b 1172 146 1031 81 1117 129 b 1169 174 1196 151 1192 176 b 932 85 1111 167 989 119 l 931 83 l 931 89 b 921 229 929 169 922 226 b 872 257 919 249 881 271 b 853 228 868 251 863 240 l 850 226 l 849 228 b 715 256 797 247 751 256 b 618 224 669 256 642 242 l 614 215 b 608 213 611 215 608 214 b 488 117 599 201 529 140 b 349 94 463 103 389 67 b 313 238 321 113 313 172 b 333 463 313 338 332 454 l 333 478 l 342 513 b 389 889 351 578 386 826 b 338 914 388 910 342 935 b 285 525 336 911 297 643 l 283 506 l 279 475 b 213 269 261 401 240 331 l 208 254 l 197 258 b 106 271 161 268 133 271 b -25 225 46 271 1 251 b -57 150 -44 206 -57 178 b -12 68 -57 122 -44 93 b 75 36 19 44 49 36 b 142 61 99 38 121 46 b 251 211 183 90 219 144 l 267 253 b 317 83 260 201 279 122 b 414 43 344 54 381 43 b 529 76 460 43 501 63 b 606 132 551 89 581 111 b 657 78 615 114 631 94 b 669 69 660 75 664 72 b 710 60 683 63 697 60 b 756 69 728 60 743 65 b 826 118 779 81 803 99 b 874 165 844 133 861 150 l 878 168 l 878 161 l 881 56 l 882 50 l 847 25 b 571 -325 707 -79 592 -218 b 624 -464 564 -375 586 -425 z m 717 -476 b 653 -450 700 -481 674 -469 b 622 -353 635 -431 614 -396 b 849 -44 638 -260 731 -142 l 878 -19 l 879 -37 b 875 -103 881 -60 878 -81 b 717 -476 864 -285 821 -456 z m 96 99 b 44 78 81 85 58 79 b 8 90 29 78 18 82 b -7 128 0 97 -7 111 b 21 189 -7 146 0 168 b 161 228 47 217 97 235 l 192 222 l 190 219 b 96 99 161 164 131 122 z m 685 101 b 674 103 676 101 674 103 l 664 110 b 649 149 654 121 649 135 b 665 188 649 163 654 175 b 746 214 681 203 708 214 b 817 203 767 214 790 210 l 826 200 l 813 185 l 782 156 b 715 110 760 136 735 119 b 685 101 704 104 694 101 z "},"":{"ha":1181,"x_min":0,"x_max":0,"o":"m 875 50 l 840 25 b 568 -325 700 -79 589 -218 b 621 -464 561 -375 583 -425 b 750 -518 660 -503 715 -525 b 919 -128 871 -493 908 -303 l 924 1 l 925 18 l 965 46 b 1171 147 1024 81 1115 131 b 1171 164 1182 150 1183 153 b 925 85 1139 193 963 107 l 924 83 l 924 89 b 914 229 922 169 915 226 b 875 261 913 244 889 261 b 863 257 869 261 864 260 b 863 254 861 256 860 256 b 858 249 861 253 858 251 b 675 75 856 204 733 42 b 647 142 653 88 647 114 b 654 203 647 164 651 188 b 674 226 661 217 668 225 b 669 253 681 229 681 242 b 635 267 658 264 643 269 b 607 233 621 263 613 249 b 600 207 604 225 601 217 b 485 117 581 189 521 138 b 346 94 460 103 386 67 b 310 272 318 113 310 188 b 329 560 310 401 329 551 l 328 575 l 335 611 b 356 864 339 676 357 801 b 303 886 353 885 306 907 b 276 619 301 883 281 738 l 276 600 l 275 569 b 210 269 263 494 238 331 l 206 254 l 194 258 b 103 271 158 268 131 271 b -28 225 43 271 0 251 b -60 150 -47 206 -60 178 b -15 68 -60 122 -47 93 b 72 36 17 44 46 36 b 139 61 96 38 118 46 b 249 211 181 90 217 144 l 264 253 b 314 83 257 201 276 122 b 411 43 342 54 378 43 b 526 76 457 43 499 63 b 603 132 549 89 578 111 b 718 31 608 78 668 31 b 868 140 764 31 828 86 z m 713 -476 b 649 -450 696 -481 669 -469 b 619 -353 632 -431 611 -396 b 842 -44 635 -260 729 -147 l 874 -15 b 713 -476 875 -210 818 -456 z m 93 99 b 42 78 78 85 56 79 b 6 90 26 78 15 82 b -10 128 -3 97 -10 111 b 18 189 -10 146 -3 168 b 158 228 44 217 94 235 l 189 222 l 188 219 b 93 99 158 164 128 122 z "},"†":{"ha":538,"x_min":0,"x_max":0,"o":"m 135 549 b 278 547 181 547 235 547 b 260 -160 268 303 260 35 l 260 -204 b 265 -351 261 -268 261 -319 b 286 -399 264 -362 276 -399 b 306 -375 297 -397 306 -387 b 300 -242 300 -346 300 -300 b 321 547 300 -49 310 278 l 469 547 b 485 589 492 547 503 589 b 322 590 451 590 388 590 b 354 961 328 760 351 900 b 324 983 357 972 335 982 b 301 964 314 985 303 976 b 281 590 294 903 288 761 b 142 589 218 590 160 590 b 135 549 121 589 117 549 z "},"‡":{"ha":689,"x_min":0,"x_max":0,"o":"m 119 46 b 261 44 144 44 201 44 b 260 -137 260 -21 260 -82 l 260 -204 b 265 -351 261 -268 261 -319 b 286 -399 264 -362 276 -399 b 306 -375 297 -397 306 -387 b 300 -242 300 -346 300 -300 b 304 44 300 -164 301 -64 l 454 44 b 469 86 476 44 488 86 b 304 88 457 86 382 88 b 321 547 308 238 314 400 l 469 547 b 485 589 492 547 503 589 b 322 590 451 590 388 590 b 354 961 328 760 351 900 b 324 983 357 972 335 982 b 301 964 314 985 303 976 b 281 590 294 903 288 761 b 142 589 218 590 160 590 b 135 549 121 589 117 549 b 278 547 181 547 235 547 b 263 88 271 394 265 233 b 126 86 204 88 147 88 b 119 46 106 86 101 46 z "},"¨":{"ha":386,"x_min":0,"x_max":0,"o":"m 89 340 b 133 340 101 328 121 328 b 129 386 146 353 142 374 b 85 386 117 399 97 399 b 89 340 74 374 76 353 z m 242 340 b 285 340 253 328 272 328 b 281 386 297 353 293 374 b 239 386 269 399 250 399 b 242 340 226 374 231 353 z "},"$":{"ha":517,"x_min":0,"x_max":0,"o":"m 263 -85 l 260 58 b 438 189 338 69 413 113 b 311 353 454 283 379 326 l 261 371 b 275 613 263 444 267 521 b 340 558 354 628 346 589 b 342 525 340 546 328 526 b 383 556 357 522 382 543 b 331 657 392 603 375 643 b 279 660 315 661 297 663 l 290 772 b 269 808 290 783 281 799 b 246 804 258 814 246 815 l 231 650 b 128 588 189 636 150 613 b 72 468 96 556 72 513 b 92 401 72 446 78 422 b 201 336 114 374 154 354 l 213 332 l 213 268 b 214 106 213 217 213 164 b 92 181 163 111 113 139 b 82 246 85 190 93 254 b 53 192 63 233 53 214 b 215 56 53 135 115 64 l 218 -57 b 240 -92 219 -69 229 -83 b 263 -85 254 -97 264 -96 z m 383 201 b 307 121 374 165 344 136 b 260 107 292 114 275 108 b 258 217 258 146 258 182 b 260 319 258 251 258 285 b 383 201 339 293 403 258 z m 138 431 b 124 476 128 444 124 461 b 161 556 124 503 136 531 b 226 599 181 571 201 588 b 214 388 219 518 217 450 b 138 431 156 410 142 419 z "},"ı":{"ha":331,"x_min":0,"x_max":0,"o":"m -22 61 b 76 25 4 32 42 24 b 325 188 172 29 299 139 b 322 221 342 218 328 226 b 47 68 281 179 133 68 b 7 81 32 68 18 72 b 25 267 -14 99 14 256 b 3 290 26 274 18 285 b -29 286 -14 294 -28 293 b -53 176 -44 263 -53 219 b -22 61 -53 131 -43 83 z "},"e":{"ha":397,"x_min":0,"x_max":0,"o":"m 151 13 b 375 167 247 18 336 86 b 368 204 394 206 400 238 b 82 46 310 143 213 46 b -19 117 33 46 -15 90 b 107 194 29 117 89 150 b 39 276 122 235 82 276 b -71 150 -29 274 -71 211 b -64 110 -71 136 -68 122 b 151 13 -36 24 69 8 z m 61 229 b -21 150 76 214 38 176 b 61 229 -22 185 32 258 z "},"":{"ha":807,"x_min":0,"x_max":0,"o":"m -57 150 b -50 110 -57 136 -54 122 b 217 -17 -14 13 114 -17 b 454 31 299 -18 385 1 b 725 263 556 82 651 160 b 781 497 776 333 815 474 b 772 461 774 493 772 472 b 421 67 746 307 572 140 b 215 15 368 42 290 18 b -6 115 129 11 17 40 b 121 194 47 117 103 150 b 53 276 136 235 96 276 b -57 150 -15 268 -57 213 z m 75 229 b -7 150 90 214 47 163 b 75 229 -8 185 46 258 z "},"":{"ha":818,"x_min":0,"x_max":0,"o":"m 189 17 b 778 239 408 22 760 165 b 760 247 781 250 767 253 b 151 51 722 218 329 51 b 15 153 85 51 19 81 b 151 254 93 147 156 204 b 118 294 150 271 138 285 b 78 301 104 300 92 301 b -37 188 19 301 -29 257 b 189 17 -51 58 75 14 z m 111 256 b 18 189 106 226 49 178 b 111 256 24 224 53 263 z "},"":{"ha":796,"x_min":0,"x_max":0,"o":"m 550 13 b 774 167 646 18 735 86 b 767 204 793 206 799 238 b 481 46 708 143 611 46 b 392 101 432 46 396 75 b 490 206 433 132 481 158 b 425 279 500 251 468 279 b 328 150 357 276 328 211 b 336 104 328 132 331 117 b 81 40 267 65 174 28 b 21 118 35 46 21 93 b 150 176 67 113 126 138 b 94 261 167 213 136 256 b -25 156 29 267 -18 214 b 142 1 -37 42 58 8 b 356 71 214 -4 296 25 b 550 13 399 21 486 10 z m 447 232 b 378 140 463 217 435 181 b 447 232 369 197 418 261 z m 111 215 b 22 150 121 197 81 167 b 111 215 24 182 85 246 z "},"":{"ha":639,"x_min":0,"x_max":0,"o":"m 483 575 b 467 574 478 574 472 574 b 493 833 475 676 485 779 b 428 858 497 860 432 881 b 386 568 421 769 407 668 b 24 525 218 554 119 542 b 56 488 0 519 29 483 b 378 524 163 506 267 515 b 36 74 322 282 218 63 b -17 104 11 75 -6 86 b -36 153 -28 118 -32 135 b 107 239 36 125 115 201 b 75 286 103 253 94 276 b 26 299 58 294 42 299 b -49 271 -4 299 -32 286 b -90 158 -72 249 -96 197 b 63 33 -90 86 -6 36 b 403 396 250 26 360 247 l 397 306 b 392 60 394 260 392 165 b 419 -383 392 -99 397 -285 b 465 -403 431 -411 471 -433 b 440 -71 447 -340 440 -208 b 450 285 440 58 446 194 b 464 531 450 322 456 424 b 472 532 467 531 469 532 b 889 554 578 540 740 554 b 1113 538 972 554 1050 550 b 1129 553 1124 536 1131 542 b 1097 581 1124 561 1110 575 b 896 596 1047 592 975 596 b 483 575 760 596 601 583 z m 61 256 b -32 189 56 226 0 178 b 61 256 -19 221 3 263 z "},"é":{"ha":397,"x_min":0,"x_max":0,"o":"m 151 13 b 375 167 247 18 336 86 b 368 204 394 206 400 238 b 82 46 310 143 213 46 b -19 117 33 46 -15 90 b 107 194 29 117 89 150 b 39 276 122 235 82 276 b -71 150 -29 274 -71 211 b -64 110 -71 136 -68 122 b 151 13 -36 24 69 8 z m 61 229 b -21 150 76 214 38 176 b 61 229 -22 185 32 258 z m 8 317 b 158 382 28 301 64 325 b 113 418 171 400 125 428 b 4 340 89 399 19 360 b 8 317 -1 336 -6 325 z "},"ê":{"ha":397,"x_min":0,"x_max":0,"o":"m 151 13 b 375 167 247 18 336 86 b 368 204 394 206 400 238 b 82 46 310 143 213 46 b -19 117 33 46 -15 90 b 107 194 29 117 89 150 b 39 276 122 235 82 276 b -71 150 -29 274 -71 211 b -64 110 -71 136 -68 122 b 151 13 -36 24 69 8 z m 61 229 b -21 150 76 214 38 176 b 61 229 -22 185 32 258 z m 92 319 b 124 317 104 313 118 311 b 118 344 135 325 132 338 b 72 390 97 361 81 374 b 24 406 64 403 38 411 b -36 353 -18 367 -24 363 b -39 328 -44 347 -50 335 b 3 328 -29 317 -6 321 l 46 357 b 92 319 58 343 78 331 z "},"ë":{"ha":397,"x_min":0,"x_max":0,"o":"m 151 13 b 375 167 247 18 336 86 b 368 204 394 206 400 238 b 82 46 310 143 213 46 b -19 117 33 46 -15 90 b 107 194 29 117 89 150 b 39 276 122 235 82 276 b -71 150 -29 274 -71 211 b -64 110 -71 136 -68 122 b 151 13 -36 24 69 8 z m 61 229 b -21 150 76 214 38 176 b 61 229 -22 185 32 258 z m -51 326 b -7 326 -39 314 -19 314 b -11 372 6 339 1 360 b -56 372 -24 385 -43 385 b -51 326 -67 360 -64 339 z m 101 326 b 144 326 113 314 132 314 b 140 372 157 339 153 360 b 99 372 129 385 110 385 b 101 326 86 360 90 339 z "},"è":{"ha":397,"x_min":0,"x_max":0,"o":"m 151 13 b 375 167 247 18 336 86 b 368 204 394 206 400 238 b 82 46 310 143 213 46 b -19 117 33 46 -15 90 b 107 194 29 117 89 150 b 39 276 122 235 82 276 b -71 150 -29 274 -71 211 b -64 110 -71 136 -68 122 b 151 13 -36 24 69 8 z m 61 229 b -21 150 76 214 38 176 b 61 229 -22 185 32 258 z m -58 435 b -79 415 -72 439 -79 425 b -64 389 -79 406 -76 394 b 61 331 -56 385 -46 383 b 88 331 74 324 85 324 b 72 360 90 338 85 350 b -58 435 64 367 6 407 z "},"—":{"ha":1375,"x_min":0,"x_max":0,"o":"m 178 244 b 213 226 189 232 201 226 b 485 225 265 225 369 225 l 972 225 b 981 244 983 225 990 232 b 944 276 974 256 957 276 b 549 278 906 278 725 278 b 181 276 372 278 200 278 b 178 244 169 276 171 254 z "},"–":{"ha":1157,"x_min":0,"x_max":0,"o":"m 178 244 b 213 226 189 232 201 226 b 400 225 265 225 332 225 l 694 225 b 703 244 706 225 713 232 b 667 276 696 256 679 276 b 410 278 628 278 517 278 b 181 276 303 278 200 278 b 178 244 169 276 171 254 z "},"=":{"ha":478,"x_min":0,"x_max":0,"o":"m 90 322 b 126 304 100 310 115 304 b 197 303 154 304 178 303 b 372 306 274 303 299 307 b 381 325 383 306 389 313 b 344 347 374 336 357 347 b 294 349 329 347 313 349 b 135 346 240 349 176 346 b 96 344 118 346 106 344 b 90 322 85 344 85 332 z m 92 197 b 129 179 103 185 118 179 b 200 178 157 179 181 178 b 375 181 276 178 301 182 b 383 200 386 181 392 188 b 347 222 376 211 360 222 b 297 224 332 222 315 224 b 138 221 243 224 181 221 b 97 219 121 221 107 219 b 92 197 86 219 86 207 z "},"!":{"ha":367,"x_min":0,"x_max":0,"o":"m 164 210 b 190 181 167 197 175 185 b 207 197 201 179 208 186 b 204 219 204 199 203 206 b 293 826 200 321 267 728 b 274 856 293 835 283 849 b 240 857 260 864 247 865 b 164 210 211 761 149 310 z m 182 8 b 185 60 181 17 183 50 b 136 71 178 74 143 92 b 133 10 129 57 129 19 b 182 8 140 -10 201 -15 z "},"¡":{"ha":497,"x_min":0,"x_max":0,"o":"m 250 615 b 217 642 247 626 232 638 b 204 625 204 643 199 636 b 206 603 204 624 206 617 b 208 551 207 589 208 571 l 203 414 b 163 31 194 313 178 81 b 181 1 160 22 169 8 b 217 0 197 -7 210 -8 b 253 388 229 53 246 286 b 257 531 256 440 261 489 b 258 581 260 549 260 567 b 250 615 257 593 257 606 z m 219 831 b 199 811 201 836 190 825 l 201 810 b 200 803 201 807 200 806 l 206 789 b 204 769 206 782 204 774 b 243 726 204 756 219 739 b 272 736 257 721 274 725 b 272 760 272 743 274 750 b 272 776 278 764 274 769 b 267 793 272 779 269 788 l 267 800 b 219 831 257 815 238 829 z "},"f":{"ha":310,"x_min":0,"x_max":0,"o":"m 67 -469 b 138 -472 99 -486 122 -483 b 175 -417 153 -461 167 -442 b 197 -264 190 -378 197 -324 b 196 -212 197 -247 197 -231 b 131 31 190 -132 169 -46 b 54 135 108 68 86 104 l 31 154 l 43 153 b 94 151 54 151 72 151 b 288 168 156 151 247 156 b 314 210 343 186 342 218 b 21 194 289 200 38 193 l 15 194 l 14 203 b 47 610 17 285 39 554 b 26 639 50 618 40 632 b 0 638 14 646 1 646 b -35 226 -11 581 -33 310 l -33 200 l -68 207 b -57 169 -97 214 -86 178 l -33 158 b -42 -53 -37 101 -42 26 b 63 -467 -42 -215 -22 -394 b 67 -469 64 -468 65 -469 z m 129 -389 b 75 -436 113 -439 89 -444 l 78 -437 l 74 -432 b 1 -71 17 -361 1 -210 b 11 128 1 4 6 76 l 26 117 b 89 31 49 93 71 64 b 147 -194 124 -37 142 -118 b 150 -257 149 -215 150 -237 b 129 -389 150 -310 143 -356 z "},"":{"ha":310,"x_min":0,"x_max":0,"o":"m 138 -472 b 175 -417 153 -461 167 -442 b 197 -264 190 -378 197 -324 b 196 -212 197 -247 197 -231 b 131 31 190 -132 169 -46 b 54 135 108 68 86 104 l 31 154 l 43 153 b 94 151 54 151 72 151 b 288 168 156 151 247 156 b 314 210 343 186 342 218 b 25 194 289 200 53 193 b 233 771 147 353 233 608 b 143 921 233 863 206 924 b -14 706 64 917 13 857 b -35 310 -33 594 -32 481 l -35 200 l -47 203 l -68 207 b -57 169 -97 214 -86 178 l -35 158 l -35 138 l -33 138 b -35 -26 -33 90 -35 33 b -21 -276 -35 -110 -32 -200 b 63 -467 -8 -362 14 -425 b 138 -472 81 -485 119 -486 z m 29 694 b 144 883 56 838 101 878 b 189 781 174 888 189 847 b 11 233 189 647 129 411 b 10 393 11 294 10 347 b 29 694 10 532 14 613 z m 74 -432 b 11 44 18 -357 11 -118 l 11 128 l 26 117 b 89 31 49 93 71 64 b 147 -194 124 -37 142 -118 b 149 -235 149 -207 149 -221 b 74 -432 149 -333 124 -469 z "},"ﬀ":{"ha":643,"x_min":0,"x_max":0,"o":"m 404 -469 b 475 -472 436 -486 460 -483 b 513 -417 490 -461 504 -442 b 535 -264 528 -378 535 -324 b 533 -212 535 -247 535 -231 b 468 31 528 -132 507 -46 b 392 135 446 68 424 104 l 368 154 l 381 153 b 432 151 392 151 410 151 b 625 168 493 151 585 156 b 651 210 681 186 679 218 b 358 194 626 200 375 193 l 353 194 l 351 203 b 368 418 353 239 360 321 b 422 738 403 492 422 649 b 415 799 422 768 419 790 b 372 825 419 811 376 836 b 319 432 356 793 335 563 b 25 193 257 299 150 207 l 25 194 b 233 771 147 353 233 608 b 143 921 233 863 206 924 b -14 706 64 917 13 857 b -35 310 -33 594 -32 481 l -35 200 l -47 203 l -68 207 b -35 158 -97 214 -86 178 b -14 -279 -33 25 -33 -147 b 63 -467 -1 -365 14 -425 b 138 -472 81 -485 119 -486 b 175 -417 153 -461 167 -442 b 197 -264 190 -378 197 -324 b 196 -212 197 -247 197 -231 b 131 31 190 -132 169 -46 b 54 135 108 68 86 104 l 31 154 l 29 160 b 310 332 139 160 238 233 b 303 226 306 286 303 246 l 304 200 l 269 207 b 281 169 240 214 251 178 l 304 158 b 296 -53 300 101 296 26 b 400 -467 296 -215 315 -394 b 404 -469 401 -468 403 -469 z m 29 694 b 144 883 56 838 101 878 b 189 781 174 888 189 847 b 11 233 189 647 129 411 b 10 393 11 294 10 347 b 29 694 10 532 14 613 z m 467 -389 b 413 -436 450 -439 426 -444 l 415 -437 l 411 -432 b 339 -71 354 -361 339 -210 b 349 128 339 4 343 76 l 364 117 b 426 31 386 93 408 64 b 485 -194 461 -37 479 -118 b 488 -257 486 -215 488 -237 b 467 -389 488 -310 481 -356 z m 74 -432 b 11 44 18 -357 11 -118 l 11 128 l 26 117 b 89 31 49 93 71 64 b 147 -194 124 -37 142 -118 b 149 -235 149 -207 149 -221 b 74 -432 149 -333 124 -469 z "},"g":{"ha":539,"x_min":0,"x_max":0,"o":"m -25 -464 b 97 -510 14 -503 63 -517 b 274 -128 218 -485 263 -303 l 278 1 l 279 18 l 319 46 b 525 147 378 81 469 131 b 525 164 536 150 539 154 b 279 76 499 182 317 99 l 278 75 l 278 81 b 268 229 276 161 269 226 b 219 257 267 249 228 271 b 200 228 215 251 210 240 l 197 226 l 196 228 b 63 256 144 247 99 256 b -33 224 17 256 -10 242 b -54 171 -47 210 -54 190 b -36 118 -54 154 -49 136 b 4 78 -26 104 -12 90 b 17 69 7 75 11 72 b 57 60 31 63 44 60 b 103 69 75 60 90 65 b 174 118 126 81 150 99 b 221 165 192 133 208 150 l 225 168 l 225 161 l 228 47 l 229 42 l 194 17 b -78 -325 54 -87 -57 -218 b -25 -464 -85 -375 -62 -425 z m 67 -476 b 3 -450 50 -481 24 -469 b -26 -353 -14 -431 -35 -396 b 196 -44 -11 -260 78 -142 l 225 -19 b 67 -476 228 -199 188 -451 z m 32 101 b 21 103 24 101 21 103 l 11 110 b -3 149 3 121 -3 135 b 13 188 -3 163 1 175 b 93 214 28 203 56 214 b 164 203 114 214 138 210 l 174 200 l 160 185 l 129 156 b 63 110 107 136 82 119 b 32 101 51 104 42 101 z "},"":{"ha":432,"x_min":0,"x_max":0,"o":"m -207 -237 b 28 -508 -207 -351 -72 -506 b 243 -187 186 -512 229 -300 l 246 -153 l 246 -132 b 660 -121 375 -125 514 -121 b 1089 -131 797 -121 940 -125 b 1172 -118 1100 -131 1179 -129 b 1108 -97 1164 -107 1119 -97 b 464 -76 900 -85 661 -76 b 249 -81 383 -76 311 -78 b 271 228 260 97 268 225 b 218 256 269 247 229 269 b 199 228 215 250 208 240 l 196 225 l 194 226 b 64 254 143 246 100 254 b -33 222 19 254 -11 242 b -53 171 -44 208 -53 190 b -33 117 -53 153 -46 135 b 4 76 -25 103 -14 89 b 15 69 7 74 13 71 b 58 60 29 63 44 60 b 210 160 121 60 179 118 b 199 -83 201 106 201 10 b -207 -237 94 -89 -207 -103 z m 103 -447 b 36 -474 88 -467 60 -474 b -162 -265 -49 -474 -156 -347 b 194 -136 -168 -174 36 -146 l 185 -219 b 103 -447 169 -314 144 -399 z m 32 100 b 19 101 22 100 19 101 b 13 186 -6 129 -11 161 b 93 213 31 201 56 213 b 167 201 114 213 136 210 l 174 199 b 32 100 131 146 78 107 z "},"":{"ha":503,"x_min":0,"x_max":0,"o":"m -143 -569 b 63 -637 -76 -610 -1 -637 b 129 -625 86 -637 110 -633 b 329 -189 267 -568 318 -375 l 332 -172 l 336 -172 b 1354 -124 657 -133 1049 -124 b 2113 -161 1685 -124 1914 -139 b 2122 -143 2125 -162 2129 -154 b 2090 -119 2118 -132 2101 -121 b 1326 -82 1886 -97 1658 -82 b 333 -128 1004 -82 625 -94 l 335 -115 b 336 -58 335 -96 336 -76 b 315 236 336 101 317 232 b 267 264 313 257 275 278 b 226 222 261 257 249 240 l 215 211 l 214 214 b 196 226 208 218 201 224 b 67 253 144 246 103 253 b -29 221 21 253 -10 240 b -51 168 -43 207 -51 189 b -33 117 -51 151 -46 135 b 6 76 -25 103 -12 89 b 21 67 10 72 15 69 b 61 58 35 61 49 58 b 114 71 81 58 97 64 b 200 122 142 82 172 101 b 260 169 219 138 242 154 l 274 185 b 283 -35 279 131 283 53 b 282 -126 283 -64 283 -96 l 282 -133 l 218 -142 b 1 -183 138 -154 64 -167 b -304 -365 -172 -225 -294 -282 b -274 -454 -306 -393 -296 -424 b -143 -569 -246 -496 -196 -537 z m 89 -586 b 35 -596 72 -593 54 -596 b -133 -542 -18 -596 -81 -574 b -231 -454 -175 -515 -208 -485 b -253 -390 -244 -432 -254 -410 b 38 -224 -244 -322 -140 -267 b 254 -183 99 -208 172 -194 l 278 -179 l 275 -201 b 89 -586 261 -374 211 -536 z m 36 100 b 19 101 26 99 22 100 l 21 101 l 13 108 b -1 147 4 118 -1 133 b 14 185 -1 160 3 174 b 94 211 32 200 57 211 b 168 200 115 211 140 208 l 194 192 l 194 190 l 156 160 b 74 110 128 139 99 121 b 36 100 61 104 47 101 z "},"":{"ha":465,"x_min":0,"x_max":0,"o":"m 189 -96 b -207 -458 158 -290 -7 -458 b -262 -454 -225 -458 -244 -457 b -489 -225 -381 -436 -508 -339 b -472 -172 -486 -210 -482 -190 b -429 -119 -456 -142 -417 -125 b -515 -229 -492 -94 -514 -218 b -254 -500 -532 -369 -411 -493 b 238 -97 25 -512 204 -296 b 292 225 254 0 257 140 l 296 229 b 276 256 299 238 289 249 b 247 257 265 263 251 264 b 200 228 243 251 210 240 l 197 226 l 196 228 b 63 256 144 247 99 256 b -33 224 17 256 -10 242 b -54 171 -47 210 -54 190 b -36 118 -54 154 -49 136 b 4 78 -26 104 -12 90 b 17 69 7 75 11 72 b 57 60 31 63 44 60 b 103 69 75 60 90 65 b 174 118 126 81 150 99 b 214 157 189 131 203 144 b 189 -96 194 58 201 -50 z m 32 101 b 21 103 24 101 21 103 l 11 110 b -3 149 3 121 -3 135 b 13 188 -3 163 1 175 b 93 214 28 203 56 214 b 164 203 114 214 138 210 l 174 200 l 160 185 l 129 156 b 63 110 107 136 82 119 b 32 101 51 104 42 101 z "},"":{"ha":456,"x_min":0,"x_max":0,"o":"m 190 -142 b -375 -168 -1 -146 -207 -157 b -912 -357 -564 -181 -901 -218 b -440 -594 -922 -485 -675 -581 b -364 -597 -414 -596 -389 -597 b 210 -244 -87 -597 107 -501 b 229 -185 217 -226 224 -207 b 432 -182 299 -183 367 -182 b 1121 -200 706 -182 936 -194 b 1194 -192 1175 -201 1194 -197 b 1122 -168 1194 -183 1156 -171 b 379 -139 1057 -162 763 -139 b 240 -140 335 -139 288 -139 b 304 271 272 -3 289 161 b 250 294 307 292 257 311 b 221 229 247 288 240 267 l 219 229 b 125 250 188 243 171 250 b -26 210 68 250 7 232 b -76 129 -61 186 -76 158 b -35 54 -76 101 -62 75 b 17 40 -19 44 -3 40 b 229 151 83 40 171 94 b 190 -142 219 58 208 -53 z m 165 -231 b -354 -550 61 -492 -115 -550 b -425 -549 -378 -550 -400 -550 b -871 -374 -626 -540 -858 -461 b -361 -212 -886 -267 -492 -222 b 179 -186 -201 -200 -11 -192 b 165 -231 175 -203 169 -217 z m -10 85 b -35 118 -31 86 -39 101 b 8 172 -31 136 -17 156 b 144 208 39 192 94 208 b 196 201 161 208 172 208 l 192 199 b -10 85 147 150 57 93 z "},"":{"ha":1431,"x_min":0,"x_max":0,"o":"m 199 -17 b -125 -306 43 -87 -96 -201 b 46 -511 -149 -424 -46 -522 b 253 -154 140 -500 221 -379 l 267 -31 b 1415 144 713 156 1324 131 b 1417 161 1426 146 1433 154 b 268 13 1386 172 714 188 b 268 229 267 85 269 226 b 219 257 267 249 228 271 b 200 228 215 251 210 240 l 197 226 l 196 228 b 63 256 144 247 99 256 b -33 224 17 256 -10 242 b -54 171 -47 210 -54 190 b -36 118 -54 154 -49 136 b 4 78 -26 104 -12 90 b 17 69 7 75 11 72 b 57 60 31 63 44 60 b 103 69 75 60 90 65 b 174 118 126 81 150 99 b 221 165 192 133 208 150 l 225 168 l 225 161 l 219 -7 b 199 -17 213 -10 206 -12 z m 22 -478 b -82 -329 -29 -486 -106 -422 b 217 -53 -58 -235 86 -115 b 22 -478 183 -282 119 -467 z m 32 101 b 21 103 24 101 21 103 l 11 110 b -3 149 3 121 -3 135 b 13 188 -3 163 1 175 b 93 214 28 203 56 214 b 164 203 114 214 138 210 l 174 200 l 160 185 l 129 156 b 63 110 107 136 82 119 b 32 101 51 104 42 101 z "},"ß":{"ha":525,"x_min":0,"x_max":0,"o":"m 8 -167 b 33 -158 24 -174 35 -171 b 22 121 25 -68 22 29 b 25 321 22 193 24 263 b 238 749 19 421 74 796 b 282 639 276 738 292 686 b 82 529 261 539 140 539 b 89 499 71 528 75 513 b 336 251 128 458 261 364 b 390 144 360 217 382 182 b 267 32 408 78 346 33 b 161 60 226 32 190 43 b 107 149 144 74 117 101 b 74 182 104 160 88 175 b 49 169 58 186 46 182 b 81 93 57 143 64 117 b 150 29 97 68 121 47 b 299 -17 199 -3 253 -17 b 450 128 392 -15 478 33 b 388 253 438 172 413 214 b 279 375 354 299 317 340 b 150 490 239 417 194 453 b 342 619 206 499 321 521 b 301 738 346 651 332 699 b 147 793 264 785 204 813 b -29 347 3 736 -18 526 b -32 174 -31 296 -32 236 b -17 -133 -32 74 -29 -33 b 8 -167 -17 -147 -8 -160 z "},"`":{"ha":363,"x_min":0,"x_max":0,"o":"m 122 440 b 101 421 108 444 101 431 b 117 394 101 411 104 400 b 242 336 125 390 135 389 b 268 336 254 329 265 329 b 253 365 271 343 265 356 b 122 440 244 372 186 413 z "},">":{"ha":467,"x_min":0,"x_max":0,"o":"m 86 49 b 385 236 189 115 276 185 b 392 271 400 243 403 260 b 83 483 318 342 131 449 b 42 493 75 490 51 501 b 58 447 33 485 47 456 b 319 256 138 376 231 318 b 72 86 219 192 154 153 b 40 42 64 79 32 51 b 86 49 46 32 76 42 z "},"«":{"ha":1103,"x_min":0,"x_max":0,"o":"m 525 429 b 222 242 419 363 333 293 b 215 207 207 235 200 218 b 525 1 290 136 436 82 b 554 1 538 -7 550 -7 b 554 31 564 10 561 22 b 269 211 474 101 364 149 b 547 394 371 275 460 338 b 553 422 556 400 558 413 b 525 429 544 432 533 436 z m 747 429 b 444 242 642 363 556 293 b 438 207 429 235 422 218 b 747 1 513 136 658 82 b 776 1 760 -7 772 -7 b 776 31 786 10 783 22 b 492 211 696 101 586 149 b 769 394 593 275 682 338 b 775 422 778 400 781 413 b 747 429 767 432 756 436 z "},"»":{"ha":1157,"x_min":0,"x_max":0,"o":"m 274 0 b 563 188 374 67 456 136 b 567 222 578 194 581 211 b 242 428 489 293 336 347 b 213 428 231 436 218 436 b 215 399 204 419 207 407 b 511 218 300 328 415 281 b 244 35 414 154 329 92 b 242 7 238 29 236 17 b 274 0 250 -3 265 -7 z m 551 0 b 840 188 651 67 733 136 b 844 222 856 194 858 211 b 519 428 767 293 614 347 b 490 428 508 436 496 436 b 493 399 482 419 485 407 b 789 218 578 328 693 281 b 522 35 692 154 607 92 b 519 7 515 29 514 17 b 551 0 528 -3 543 -7 z "},"‹":{"ha":850,"x_min":0,"x_max":0,"o":"m 531 429 b 222 242 422 363 333 293 b 214 207 207 235 200 218 b 519 1 288 136 432 82 b 549 1 531 -7 543 -7 b 547 31 558 10 556 22 b 269 211 471 101 363 149 b 551 394 372 275 463 338 b 557 422 560 400 563 413 b 531 429 549 432 538 436 z "},"›":{"ha":821,"x_min":0,"x_max":0,"o":"m 242 0 b 560 188 351 67 444 136 b 569 222 575 194 581 211 b 275 428 501 293 358 347 b 246 428 267 436 254 436 b 244 399 238 419 236 407 b 513 218 317 328 426 281 b 218 35 406 154 311 92 b 211 7 210 29 207 17 b 242 0 218 -3 232 -7 z "},"h":{"ha":633,"x_min":0,"x_max":0,"o":"m -25 26 b 22 7 -19 4 24 -14 b 253 214 28 71 174 218 b 250 168 253 204 250 188 b 289 79 250 139 257 103 b 382 51 321 58 351 51 b 606 150 471 51 575 104 b 621 210 626 181 633 225 b 354 92 576 150 426 92 b 310 101 339 92 324 94 b 307 214 300 142 311 181 b 261 254 301 232 281 249 b 21 119 182 279 64 168 l 21 243 b 44 792 24 433 26 614 b -10 810 44 813 -10 829 b -26 269 -19 632 -26 461 l -26 72 b -25 26 -26 46 -26 29 z "},"":{"ha":1107,"x_min":0,"x_max":0,"o":"m -25 26 b 22 7 -19 4 24 -14 b 261 231 28 71 181 243 b 525 -60 272 61 382 -42 b 1054 282 765 -92 950 92 b 1078 524 1096 360 1117 504 b 1075 486 1072 518 1074 497 b 1022 304 1072 428 1061 368 b 496 -25 917 124 710 -51 b 317 224 358 -10 306 100 b 244 275 308 246 272 276 b 21 119 168 278 58 161 l 21 243 b 44 792 24 433 26 614 b -10 810 44 813 -10 829 b -26 269 -19 632 -26 461 l -26 72 b -25 26 -26 46 -26 29 z "},"":{"ha":1022,"x_min":0,"x_max":0,"o":"m 253 136 b 361 47 272 90 319 58 b 488 36 396 40 439 36 b 943 101 642 36 844 69 b 1000 138 953 104 1011 126 b 932 133 993 149 942 136 b 467 88 869 115 631 88 b 335 99 410 88 364 90 b 297 154 303 108 297 131 b 300 204 297 171 300 189 b 254 254 304 219 281 247 b 4 161 174 275 50 193 l 7 243 b 97 786 17 433 50 614 b 78 817 100 794 90 808 b 47 815 63 824 49 824 b -44 171 -8 614 -42 399 b -43 68 -44 81 -44 75 b 3 49 -37 46 3 28 l 3 67 b 247 215 8 111 168 215 b 253 136 243 193 243 163 z "},"":{"ha":625,"x_min":0,"x_max":0,"o":"m 253 592 b 278 760 267 639 278 701 b 164 921 278 849 251 926 b -6 706 85 917 21 857 b -29 296 -25 594 -26 467 l -29 235 b -25 26 -29 156 -25 88 b 22 7 -25 4 24 -14 b 253 194 28 71 174 199 b 250 149 253 185 250 168 b 289 60 250 119 257 83 b 386 29 321 39 356 29 b 608 165 475 29 578 119 b 621 218 629 196 633 233 b 354 72 576 158 426 72 b 310 82 339 72 324 75 b 307 194 300 122 311 161 b 257 240 301 213 276 236 b 21 113 182 257 64 161 l 21 178 b 253 592 163 315 213 461 z m 39 694 b 171 883 65 838 125 883 b 229 769 214 883 229 833 b 207 614 229 721 219 663 b 21 232 176 494 135 358 b 19 393 21 293 19 347 b 39 694 19 532 24 611 z "},"˝":{"ha":396,"x_min":0,"x_max":0,"o":"m 129 339 b 153 346 143 332 153 336 l 154 353 b 182 421 160 365 179 407 b 157 450 181 429 171 443 b 132 447 143 457 132 457 b 111 382 131 444 122 411 b 129 339 104 358 114 346 z m 222 338 b 251 339 236 329 250 331 l 278 418 b 258 447 279 426 271 440 b 229 447 244 456 232 456 b 210 367 226 428 213 385 b 222 338 208 358 210 344 z "},"-":{"ha":633,"x_min":0,"x_max":0,"o":"m -36 274 b -3 256 -26 261 -14 256 l 242 250 b 251 269 253 250 260 257 b 217 292 246 281 229 292 b 4 297 156 294 61 297 b -35 296 -11 297 -25 296 b -36 274 -46 296 -44 283 z "},"i":{"ha":335,"x_min":0,"x_max":0,"o":"m -22 61 b 76 25 4 32 42 24 b 325 188 172 29 299 139 b 322 221 342 218 328 226 b 47 68 281 179 133 68 b 7 81 32 68 18 72 b 25 267 -14 99 14 256 b 3 290 26 274 18 285 b -29 286 -14 294 -28 293 b -53 176 -44 263 -53 219 b -22 61 -53 131 -43 83 z m 7 383 b 40 382 19 376 36 376 b 58 426 44 389 56 419 b 63 450 63 435 63 444 b 36 472 65 457 54 468 b 7 467 22 478 7 475 l 4 446 b -11 407 1 439 -8 411 b 7 383 -18 401 -10 389 z "},"":{"ha":793,"x_min":0,"x_max":0,"o":"m 21 397 b 54 396 33 390 50 390 b 72 440 58 403 69 433 b 76 464 76 449 76 458 b 50 486 79 471 68 482 b 21 481 36 492 21 489 l 18 460 b 3 421 15 453 6 425 b 21 397 -4 415 4 403 z m -18 292 b 29 -4 -39 181 -36 75 b 256 -97 85 -74 174 -97 b 756 297 503 -97 675 99 b 753 539 789 379 793 525 b 754 501 747 533 751 513 b 718 321 758 444 744 383 b 239 -65 636 125 457 -65 b 85 -7 181 -65 125 -50 b 33 276 14 67 17 169 b -18 292 26 297 -12 300 z "},"":{"ha":742,"x_min":0,"x_max":0,"o":"m 13 153 b 33 233 15 179 26 222 l 35 235 l 36 238 l 39 242 b -8 274 46 258 0 289 b -12 268 -8 272 -11 271 l -11 267 l -14 265 b -33 146 -25 249 -42 196 b 81 47 -24 93 33 58 b 207 36 115 40 158 36 b 663 101 361 36 564 69 b 719 138 672 104 731 126 b 651 133 713 149 661 136 b 186 88 589 115 350 88 b 54 99 129 88 83 90 b 13 153 26 107 13 131 z m 44 365 b 78 356 56 356 72 351 b 94 376 83 361 89 369 b 114 417 100 383 113 411 b 93 446 118 424 110 438 b 64 447 82 454 67 456 l 56 428 b 33 393 51 422 38 396 b 44 365 25 389 31 375 z "},"":{"ha":567,"x_min":0,"x_max":0,"o":"m -31 51 b 93 17 -4 22 58 11 b 300 343 194 33 274 254 l 297 315 b 288 -18 293 257 288 122 b 311 -375 288 -154 293 -294 b 365 -393 321 -403 371 -425 b 340 -35 347 -304 340 -174 b 364 525 340 163 353 378 l 364 533 b 750 553 469 542 615 553 b 974 538 832 553 911 549 b 990 553 985 536 992 542 b 958 581 985 561 971 575 b 758 594 908 592 838 594 b 368 576 632 594 483 585 b 396 740 376 658 385 707 b 344 763 400 769 344 785 b 307 572 328 679 324 671 b -115 525 103 557 -7 544 b -83 488 -139 519 -110 483 b 299 529 43 508 165 518 l 294 507 b 50 50 283 454 165 60 b 1 136 0 46 0 101 b 25 267 4 189 18 260 b 3 290 26 274 18 285 b -29 286 -14 294 -28 293 b -56 158 -46 261 -56 208 b -31 51 -56 113 -47 69 z m 7 356 b 40 354 19 349 36 349 b 58 399 44 361 56 392 b 63 422 63 407 63 417 b 36 444 65 429 54 440 b 7 439 22 450 7 447 l 4 418 b -11 379 1 411 -8 383 b 7 356 -18 374 -10 361 z "},"í":{"ha":331,"x_min":0,"x_max":0,"o":"m -22 61 b 76 25 4 32 42 24 b 325 188 172 29 299 139 b 322 221 342 218 328 226 b 47 68 281 179 133 68 b 7 81 32 68 18 72 b 25 267 -14 99 14 256 b 3 290 26 274 18 285 b -29 286 -14 294 -28 293 b -53 176 -44 263 -53 219 b -22 61 -53 131 -43 83 z m -7 346 b 143 411 13 331 49 354 b 97 447 156 429 110 457 b -11 369 74 428 4 389 b -7 346 -17 365 -21 354 z "},"î":{"ha":331,"x_min":0,"x_max":0,"o":"m -22 61 b 76 25 4 32 42 24 b 325 188 172 29 299 139 b 322 221 342 218 328 226 b 47 68 281 179 133 68 b 7 81 32 68 18 72 b 25 267 -14 99 14 256 b 3 290 26 274 18 285 b -29 286 -14 294 -28 293 b -53 176 -44 263 -53 219 b -22 61 -53 131 -43 83 z m 57 332 b 89 329 69 325 83 324 b 83 357 100 338 97 350 b 38 403 63 374 46 386 b -11 418 29 415 3 424 b -71 365 -53 379 -58 375 b -74 340 -79 360 -85 347 b -32 340 -64 329 -40 333 l 11 369 b 57 332 24 356 43 343 z "},"ï":{"ha":331,"x_min":0,"x_max":0,"o":"m -22 61 b 76 25 4 32 42 24 b 325 188 172 29 299 139 b 322 221 342 218 328 226 b 47 68 281 179 133 68 b 7 81 32 68 18 72 b 25 267 -14 99 14 256 b 3 290 26 274 18 285 b -29 286 -14 294 -28 293 b -53 176 -44 263 -53 219 b -22 61 -53 131 -43 83 z m -82 349 b -37 349 -69 336 -50 336 b -42 394 -25 361 -29 382 b -86 394 -54 407 -74 407 b -82 349 -97 382 -94 361 z m 71 349 b 114 349 82 336 101 336 b 110 394 126 361 122 382 b 68 394 99 407 79 407 b 71 349 56 382 60 361 z "},"ì":{"ha":331,"x_min":0,"x_max":0,"o":"m -22 61 b 76 25 4 32 42 24 b 325 188 172 29 299 139 b 322 221 342 218 328 226 b 47 68 281 179 133 68 b 7 81 32 68 18 72 b 25 267 -14 99 14 256 b 3 290 26 274 18 285 b -29 286 -14 294 -28 293 b -53 176 -44 263 -53 219 b -22 61 -53 131 -43 83 z m -85 447 b -106 428 -99 451 -106 438 b -90 401 -106 418 -103 407 b 35 343 -82 397 -72 396 b 61 343 47 336 58 336 b 46 372 64 350 58 363 b -85 447 38 379 -21 419 z "},"j":{"ha":365,"x_min":0,"x_max":0,"o":"m -201 -600 b -115 -618 -168 -612 -140 -618 b 101 -222 36 -618 86 -415 b 106 -57 104 -167 106 -111 l 106 -4 l 104 35 l 156 61 b 324 125 213 88 269 110 b 329 147 335 128 343 140 b 101 92 299 164 153 117 b 88 275 99 207 89 272 b 40 303 88 293 53 314 b -54 171 44 307 -32 201 b -28 151 -71 144 -35 149 b 43 217 -8 161 29 203 l 47 221 b 56 68 51 169 54 135 l 7 42 b -358 -379 -186 -76 -351 -239 b -201 -600 -358 -479 -292 -565 z m 54 -197 b -144 -575 36 -407 -21 -575 b -206 -562 -164 -575 -182 -571 b -311 -403 -272 -537 -311 -469 b 47 3 -303 -272 -142 -112 l 56 7 l 57 -24 b 54 -197 58 -79 56 -139 z m 49 365 b 82 363 64 356 78 356 b 96 428 93 376 96 414 b 71 457 96 438 86 450 b 43 451 58 464 46 461 b 33 394 43 419 35 399 b 49 365 29 388 38 374 z "},"k":{"ha":564,"x_min":0,"x_max":0,"o":"m 522 149 b 544 215 546 171 563 231 b 269 81 489 168 369 88 b 117 135 211 76 140 106 b 261 285 183 154 282 233 b 204 321 254 301 235 324 b 18 149 124 314 63 224 b 39 789 31 410 33 610 b 10 813 38 797 25 808 b -15 804 -3 818 -15 813 b -31 121 -18 632 -31 368 b -26 -31 -31 69 -29 18 b 19 -51 -18 -54 19 -72 b 68 121 21 13 38 82 b 275 31 121 57 206 31 b 522 149 407 31 496 124 z m 210 282 b 92 164 219 246 125 167 b 210 282 146 250 192 289 z "},"":{"ha":564,"x_min":0,"x_max":0,"o":"m 38 93 b 264 42 99 44 201 38 b 522 149 403 50 496 124 b 544 215 546 171 563 231 b 221 89 489 168 349 96 b 47 157 132 85 46 97 b 290 325 49 225 231 321 b 301 360 303 279 368 357 b 31 251 233 363 103 322 l 21 240 b 39 789 22 439 28 639 b 10 813 38 797 25 808 b -15 804 -3 818 -15 813 b -31 121 -18 632 -31 368 b -26 -31 -31 69 -29 18 b 19 -51 -18 -54 19 -72 l 19 110 b 38 93 24 104 31 99 z "},"":{"ha":949,"x_min":0,"x_max":0,"o":"m 294 338 b 233 367 286 353 264 372 b 18 149 154 351 63 224 b 69 786 31 410 49 608 b 40 813 68 794 56 807 b 14 807 28 818 15 815 b -33 121 -4 635 -33 368 b -29 -31 -33 69 -32 18 b 19 -51 -21 -54 19 -72 b 75 111 21 -19 56 83 b 281 -25 113 38 207 -6 b 868 224 519 -90 738 53 b 929 457 921 293 964 433 b 919 421 922 453 921 432 b 838 256 910 364 879 310 b 274 10 707 89 483 -47 b 121 135 208 28 142 72 b 294 338 199 171 325 276 z m 101 164 b 210 299 92 174 175 269 b 249 292 242 325 275 335 b 101 164 221 247 104 161 z "},"":{"ha":853,"x_min":0,"x_max":0,"o":"m 124 128 b 261 285 190 147 282 233 b 204 321 254 301 235 324 b 18 149 124 314 63 224 b 69 786 31 410 49 608 b 40 813 68 794 56 807 b 14 807 28 818 15 815 b -33 121 -4 635 -33 368 b -29 -31 -33 69 -32 18 b 19 -51 -21 -54 19 -72 b 65 118 21 11 36 78 b 194 31 75 64 154 40 b 317 19 228 24 271 19 b 778 88 472 19 678 56 b 835 124 788 90 846 113 b 767 119 828 135 776 122 b 290 74 704 101 458 74 b 156 85 233 74 185 76 b 115 126 133 92 121 107 z m 210 282 b 96 161 219 246 129 164 b 210 282 135 221 188 275 z "},"":{"ha":564,"x_min":0,"x_max":0,"o":"m -29 -31 b 19 -51 -21 -54 19 -72 b 68 65 19 -11 38 26 b 219 15 103 29 161 15 b 301 25 247 15 276 19 b 522 149 408 49 488 115 b 544 215 546 171 563 231 b 182 65 468 150 307 65 b 124 72 161 65 142 67 b 261 229 197 89 282 178 b 204 265 254 246 235 267 b 18 107 144 263 63 182 l 19 178 b 249 592 160 315 208 461 b 274 760 263 639 274 701 b 160 921 274 849 247 926 b -8 706 81 917 18 857 b -32 140 -25 606 -32 332 b -29 -31 -32 67 -31 6 z m 35 694 b 167 883 61 838 104 879 b 225 771 210 886 225 836 b 203 614 225 721 215 663 b 17 228 172 494 131 354 b 15 390 17 290 15 343 b 35 694 15 531 19 611 z m 210 226 b 96 106 219 190 129 108 b 210 226 135 165 188 219 z "},"l":{"ha":361,"x_min":0,"x_max":0,"o":"m 99 -57 b 322 163 186 -57 297 93 b 311 194 328 179 325 214 b 50 -14 290 168 122 -58 b 8 229 19 7 8 106 b 57 829 8 469 49 803 b 32 854 57 836 46 847 b 8 850 18 860 10 858 b -49 263 -10 792 -49 493 b -12 7 -49 147 -39 49 b 99 -57 15 -32 54 -57 z "},"":{"ha":361,"x_min":0,"x_max":0,"o":"m 193 0 b 390 224 285 29 378 169 b 378 254 397 257 382 261 b 108 28 344 194 208 25 b 19 181 65 29 36 89 b 246 592 157 317 206 463 b 271 760 260 639 271 701 b 157 921 271 849 244 926 b -6 706 78 917 29 835 b -43 360 -19 654 -43 507 b 14 63 -43 247 -29 133 b 135 -10 44 14 86 -10 b 193 0 153 -10 172 -7 z m 43 696 b 164 883 65 796 99 879 b 222 771 207 886 222 836 b 200 614 222 721 213 663 b 11 226 169 494 126 354 b 4 351 7 264 4 307 b 43 696 4 457 17 576 z "},"":{"ha":796,"x_min":0,"x_max":0,"o":"m 57 829 b 32 854 57 836 46 847 b 8 850 18 860 10 858 b 22 -4 -6 753 -122 174 b 249 -97 78 -74 167 -97 b 749 297 496 -97 668 99 b 746 539 782 379 786 525 b 747 501 740 533 744 513 b 711 321 751 444 738 383 b 232 -65 629 125 450 -65 b 78 -7 174 -65 118 -50 b 57 829 -71 147 58 765 z "},"":{"ha":335,"x_min":0,"x_max":0,"o":"m -15 665 b -50 358 -37 554 -47 439 b -53 274 -51 332 -53 304 b -12 49 -53 193 -44 104 b 99 -15 15 10 54 -15 b 332 200 186 -15 307 131 b 321 232 338 217 335 251 b 50 28 300 206 115 -10 b 1 172 21 44 7 100 b 242 592 140 310 201 463 b 267 760 256 639 267 701 b 153 921 267 849 240 926 b -15 665 74 917 11 817 z m 31 642 b 160 883 58 797 97 879 b 218 771 203 886 218 836 b 196 614 218 721 208 663 b -1 225 165 496 111 351 b 31 642 -4 381 22 579 z "},"":{"ha":464,"x_min":0,"x_max":0,"o":"m 86 -54 b 218 71 153 -54 192 10 b 297 -285 226 -54 251 -233 b 333 -308 311 -300 317 -307 b 333 -282 336 -304 346 -299 b 267 136 293 -224 267 28 l 267 199 b 331 899 267 543 289 728 b 307 917 332 907 324 917 b 274 903 292 918 275 911 b 214 226 231 740 214 457 l 214 154 b 49 -6 175 90 100 -35 b 7 250 18 15 7 119 b 57 899 7 510 49 872 b 32 924 57 906 46 917 b 8 919 18 929 10 928 b -44 271 -10 863 -44 524 b -8 -4 -44 138 -35 28 b 86 -54 7 -28 42 -54 z "},"<":{"ha":596,"x_min":0,"x_max":0,"o":"m 374 485 b 75 297 271 418 183 349 b 68 263 60 290 57 274 b 376 50 142 192 329 85 b 418 40 385 43 408 32 b 401 86 426 49 413 78 b 140 278 322 157 229 215 b 388 447 240 342 306 381 b 419 492 396 454 428 482 b 374 485 414 501 383 492 z "},"m":{"ha":776,"x_min":0,"x_max":0,"o":"m -14 85 b 38 50 -10 68 26 40 b 201 217 92 97 131 171 b 236 100 214 163 222 131 b 282 76 244 85 271 71 b 417 181 319 101 354 129 b 438 139 421 168 428 153 b 485 92 450 122 464 106 b 578 64 515 72 549 64 b 768 169 657 64 747 132 b 763 204 785 200 767 211 b 547 103 743 171 592 103 b 496 119 528 103 511 110 b 447 221 468 143 461 193 b 401 243 438 236 411 250 l 267 133 b 238 247 254 182 253 211 b 192 271 226 263 203 276 b 36 133 132 242 85 186 b 39 240 35 179 40 204 b -7 265 43 258 -3 289 b -17 146 -12 231 -17 190 b -14 85 -17 126 -15 106 z "},"":{"ha":1236,"x_min":0,"x_max":0,"o":"m 401 243 l 267 133 b 238 247 254 182 253 211 b 192 271 226 263 203 276 b 36 133 132 242 85 186 b 39 240 35 179 40 204 b -7 265 43 258 -3 289 b -17 146 -12 231 -17 190 b -14 85 -17 126 -15 106 b 38 50 -10 68 26 40 b 201 217 92 97 131 171 b 236 100 214 163 222 131 b 282 76 244 85 271 71 b 417 181 319 101 354 129 l 418 183 b 474 79 429 144 447 110 b 700 -14 529 10 618 -14 b 1200 381 947 -14 1119 182 b 1197 622 1233 463 1238 608 b 1199 585 1192 617 1196 596 b 1163 404 1203 528 1189 467 b 683 18 1081 208 901 18 b 529 76 625 18 569 33 b 463 210 493 114 474 160 b 401 243 454 246 414 247 z "},"":{"ha":1206,"x_min":0,"x_max":0,"o":"m 538 63 b 664 51 572 56 615 51 b 1119 117 818 51 1021 85 b 1176 153 1129 119 1188 142 b 1108 149 1169 164 1118 151 b 643 103 1046 131 807 103 b 511 114 586 103 540 106 b 447 221 463 129 465 185 b 401 243 438 236 411 250 l 267 133 b 238 247 254 182 253 211 b 192 271 226 263 203 276 b 36 133 132 242 85 186 b 39 240 35 179 40 204 b -7 265 43 258 -3 289 b -17 146 -12 231 -17 190 b -14 85 -17 126 -15 106 b 38 50 -10 68 26 40 b 201 217 92 97 131 171 b 236 100 214 163 222 131 b 282 76 244 85 271 71 b 411 178 319 101 349 126 b 538 63 439 124 489 78 z "},"µ":{"ha":406,"x_min":0,"x_max":0,"o":"m -62 -144 b 17 103 -19 -143 17 18 b 104 38 32 67 65 39 b 228 140 153 36 204 65 b 263 7 226 104 239 40 b 300 -11 275 -6 288 -12 b 307 6 307 -10 310 -3 l 303 13 b 289 47 300 15 294 26 b 281 119 288 67 283 92 l 275 264 l 276 313 l 282 363 b 303 642 296 492 297 618 b 254 671 307 663 263 689 b 226 339 239 626 226 481 l 226 332 b 101 72 217 269 185 76 b 18 300 21 67 18 253 b 25 549 18 401 22 458 b 18 558 25 549 22 553 b -15 578 11 569 -4 579 b -26 571 -21 578 -22 575 b -36 286 -26 474 -36 378 b -31 106 -35 226 -31 164 b -75 -115 -31 14 -39 -69 b -62 -144 -82 -122 -78 -144 z "},"×":{"ha":608,"x_min":0,"x_max":0,"o":"m 374 188 b 368 217 376 197 378 211 b 286 269 354 228 322 247 l 354 308 b 365 335 365 315 372 324 b 338 349 360 344 346 353 b 243 297 319 340 283 321 b 143 361 206 321 169 343 b 117 354 132 368 121 364 b 129 325 113 344 118 332 b 204 275 158 303 182 290 l 122 226 b 115 197 110 221 108 208 b 143 190 124 188 138 186 b 249 249 188 213 215 228 l 346 188 b 374 188 357 181 368 181 z "},"n":{"ha":608,"x_min":0,"x_max":0,"o":"m -40 67 b 8 50 -39 44 10 32 l 10 82 b 244 218 36 140 142 207 b 240 171 242 201 240 186 b 258 101 240 146 244 122 b 368 49 283 65 328 49 b 589 165 465 49 556 122 b 599 219 610 192 604 222 b 347 88 554 197 433 88 b 300 103 329 88 314 92 b 297 206 282 129 297 182 b 246 254 297 226 272 251 b 21 178 168 263 68 213 l 24 225 b 1 253 25 233 13 246 b -26 247 -12 258 -26 257 l -40 108 b -40 67 -43 92 -42 78 z "},"":{"ha":1218,"x_min":0,"x_max":0,"o":"m -40 67 b 8 50 -39 44 10 32 l 10 82 b 238 217 36 140 135 206 b 606 -18 294 28 428 -18 b 1149 297 875 -18 1042 126 b 1181 546 1197 372 1229 528 b 1179 510 1174 540 1178 519 b 1113 324 1179 454 1150 382 b 596 15 1007 163 825 29 b 299 203 442 7 329 53 b 239 257 296 218 288 236 b 21 178 161 265 68 213 l 24 225 b 1 253 25 233 13 246 b -26 247 -12 258 -26 257 l -40 108 b -40 67 -43 92 -42 78 z "},"":{"ha":1033,"x_min":0,"x_max":0,"o":"m 239 218 b 350 63 228 90 326 69 b 476 51 385 56 428 51 b 932 117 631 51 833 85 b 989 153 942 119 1000 142 b 921 149 982 164 931 151 b 456 103 858 131 619 103 b 324 114 399 103 353 106 b 292 149 304 119 292 132 b 297 206 293 171 297 192 b 246 254 297 226 272 251 b 21 178 168 263 68 213 l 24 225 b 1 253 25 233 13 246 b -26 247 -12 258 -26 257 l -40 108 b -40 67 -43 92 -42 78 b 8 50 -39 44 10 32 l 10 82 b 239 218 36 140 136 207 z "},"ñ":{"ha":594,"x_min":0,"x_max":0,"o":"m -40 67 b 8 50 -39 44 10 32 l 10 82 b 244 218 36 140 142 207 b 240 171 242 201 240 186 b 258 101 240 146 244 122 b 368 49 283 65 328 49 b 589 165 465 49 556 122 b 599 219 610 192 604 222 b 347 88 554 197 433 88 b 300 103 329 88 314 92 b 297 206 282 129 297 182 b 246 254 297 226 272 251 b 21 178 168 263 68 213 l 24 225 b 1 253 25 233 13 246 b -26 247 -12 258 -26 257 l -40 108 b -40 67 -43 92 -42 78 z m 165 317 b 240 346 199 306 236 314 b 200 383 244 378 214 386 b 192 364 190 382 189 372 b 150 360 192 342 161 356 b 65 382 124 369 93 389 b 56 324 33 374 36 332 b 89 328 67 317 93 321 b 165 317 71 360 154 321 z "},"#":{"ha":1047,"x_min":0,"x_max":0,"o":"m 3 201 b 35 183 11 189 26 182 b 247 193 92 188 165 192 b 199 -40 235 136 206 3 b 222 -69 199 -49 210 -62 b 247 -64 236 -76 244 -74 b 301 194 256 -15 286 128 l 525 194 b 476 -40 510 138 483 3 b 500 -69 476 -49 488 -62 b 525 -64 514 -76 522 -74 b 579 193 533 -15 563 128 b 810 183 667 192 749 188 b 819 203 824 182 828 190 b 788 225 817 214 800 224 b 590 235 733 229 667 232 b 633 385 604 285 617 336 b 804 376 699 383 756 379 b 815 396 815 375 824 383 b 783 418 808 407 796 417 b 644 425 742 421 697 424 b 707 596 667 493 689 553 b 690 625 710 603 703 617 b 661 625 676 633 664 633 b 589 428 638 576 613 506 b 369 431 519 429 444 431 b 429 596 390 496 411 554 b 413 625 432 603 425 617 b 383 625 399 633 386 633 b 313 431 361 578 336 507 b 3 417 193 429 76 425 b -3 394 -7 417 -7 404 b 29 376 6 382 18 375 b 299 388 97 382 193 386 b 256 236 283 338 269 286 b 6 224 161 233 71 231 b 3 201 -4 224 -4 211 z m 313 236 b 356 388 326 288 340 339 l 421 388 b 575 386 474 388 525 388 l 533 236 b 424 238 497 236 461 238 b 313 236 386 238 349 236 z "},"o":{"ha":390,"x_min":0,"x_max":0,"o":"m 369 197 b 372 225 403 208 413 226 b 240 219 360 225 306 219 b 138 225 208 219 172 221 b 49 274 117 250 86 268 b 6 240 21 275 11 260 b -1 239 3 240 1 239 b -60 103 -33 228 -69 161 b 33 18 -53 64 -18 21 b 167 118 97 14 154 49 b 164 178 171 139 169 160 b 369 197 249 174 339 186 z m 26 208 l 29 211 b 107 185 49 199 75 190 b 38 53 129 135 99 56 b -11 107 11 51 -4 67 b 26 208 -18 146 8 194 z "},"":{"ha":467,"x_min":0,"x_max":0,"o":"m 69 278 b 49 257 50 278 43 272 l 47 258 b 14 261 33 263 24 264 b -53 133 -37 233 -54 181 b 65 21 -47 83 -4 29 b 213 93 144 14 192 50 b 431 179 290 103 389 138 b 419 206 456 204 460 221 b 224 140 385 194 304 158 b 69 278 229 229 154 282 z m 144 92 b 46 57 121 64 82 49 b 6 164 1 65 -4 126 b 21 194 10 176 15 186 b 144 92 19 138 86 100 z m 167 144 l 164 129 b 61 232 96 124 44 164 l 63 232 b 167 144 132 229 171 194 z "},"":{"ha":390,"x_min":0,"x_max":0,"o":"m -58 121 b 43 18 -57 79 -26 22 b 165 93 107 14 144 50 b 383 179 243 103 342 138 b 372 206 408 204 413 221 b 174 140 338 194 254 158 b 76 269 172 201 144 260 b -25 210 40 274 -15 261 b -47 188 -32 203 -42 199 b -58 121 -56 171 -58 144 z m 117 133 b 21 182 69 129 26 161 b 47 233 13 214 29 231 b 113 185 79 238 103 214 b 117 133 118 168 119 153 z m 104 92 b 39 53 96 68 68 50 b -10 146 1 57 -19 103 b 104 92 14 114 63 93 z "},"":{"ha":865,"x_min":0,"x_max":0,"o":"m 150 201 b 49 274 117 250 86 268 b 6 240 21 275 11 260 b -1 239 3 240 1 239 b -60 103 -33 228 -69 161 b 33 18 -53 64 -18 21 b 167 118 97 14 154 49 b 167 164 169 133 169 149 b 760 372 393 117 635 213 b 824 606 814 442 860 581 b 815 568 817 601 815 581 b 731 406 803 513 774 458 b 150 201 603 247 356 157 z m 29 211 b 108 179 43 201 63 194 b 38 53 126 129 96 56 b -11 107 11 51 -4 67 b 29 211 -18 146 8 194 z "},"":{"ha":801,"x_min":0,"x_max":0,"o":"m 85 278 b 64 257 65 278 58 272 l 63 258 b 29 261 49 263 39 264 b -37 133 -22 233 -39 181 b 81 21 -32 83 11 29 b 238 124 178 13 228 68 b 233 189 242 147 239 169 b 274 188 246 189 260 188 b 729 254 428 188 631 222 b 786 290 739 257 797 279 b 718 286 779 301 728 289 b 257 240 657 268 421 240 b 199 242 236 240 217 240 b 85 278 169 267 128 279 z m 147 200 l 167 196 b 182 144 178 182 183 164 b 75 57 178 86 129 46 b 21 164 31 65 11 114 b 72 229 29 207 51 221 l 76 226 b 147 200 85 218 126 203 z "},"ó":{"ha":390,"x_min":0,"x_max":0,"o":"m -58 121 b 43 18 -58 85 -26 26 b 165 93 107 10 144 50 b 383 179 243 103 342 138 b 372 206 408 204 413 221 b 174 140 338 194 254 158 b 76 269 172 210 133 256 b -25 206 40 278 -18 261 b -58 121 -43 189 -58 164 z m 117 129 b 15 179 69 125 24 142 b 47 233 8 211 29 231 b 113 185 79 238 103 214 b 117 129 118 168 119 149 z m 43 315 b 193 381 63 300 99 324 b 147 417 206 399 160 426 b 39 339 124 397 54 358 b 43 315 33 335 29 324 z m 104 92 b 39 53 96 68 68 47 b -4 140 7 58 -8 99 b 104 92 21 111 65 93 z "},"ô":{"ha":390,"x_min":0,"x_max":0,"o":"m -58 121 b 43 18 -58 85 -26 26 b 165 93 107 10 144 50 b 383 179 243 103 342 138 b 372 206 408 204 413 221 b 174 140 338 194 254 158 b 76 269 172 210 133 256 b -25 206 40 278 -18 261 b -58 121 -43 189 -58 164 z m 117 129 b 15 179 69 125 24 142 b 47 233 8 211 29 231 b 113 185 79 238 103 214 b 117 129 118 168 119 149 z m 119 307 b 151 304 132 300 146 299 b 146 332 163 313 160 325 b 100 378 125 349 108 361 b 51 393 92 390 65 399 b -8 340 10 354 4 350 b -11 315 -17 335 -22 322 b 31 315 -1 304 22 308 l 74 344 b 119 307 86 331 106 318 z m 104 92 b 39 53 96 68 68 47 b -4 140 7 58 -8 99 b 104 92 21 111 65 93 z "},"ö":{"ha":390,"x_min":0,"x_max":0,"o":"m -58 121 b 43 18 -58 85 -26 26 b 165 93 107 10 144 50 b 383 179 243 103 342 138 b 372 206 408 204 413 221 b 174 140 338 194 254 158 b 76 269 172 210 133 256 b -25 206 40 278 -18 261 b -58 121 -43 189 -58 164 z m 117 129 b 15 179 69 125 24 142 b 47 233 8 211 29 231 b 113 185 79 238 103 214 b 117 129 118 168 119 149 z m 104 92 b 39 53 96 68 68 47 b -4 140 7 58 -8 99 b 104 92 21 111 65 93 z m -36 324 b 8 324 -24 311 -4 311 b 4 369 21 336 17 357 b -40 369 -8 382 -28 382 b -36 324 -51 357 -49 336 z m 117 324 b 160 324 128 311 147 311 b 156 369 172 336 168 357 b 114 369 144 382 125 382 b 117 324 101 357 106 336 z "},"œ":{"ha":594,"x_min":0,"x_max":0,"o":"m 67 21 b 165 85 121 14 150 49 b 174 75 167 81 171 78 b 307 22 215 36 261 22 b 589 174 411 22 533 96 b 599 229 606 190 614 242 b 279 61 517 157 399 61 b 203 89 251 61 225 69 b 176 143 190 101 179 121 l 174 153 b 325 246 247 125 333 208 b 286 286 321 260 306 276 l 271 292 b 161 271 225 307 188 293 b 133 233 150 260 142 247 b 60 283 117 254 93 274 b 44 286 54 285 49 286 b 29 265 29 286 24 281 l 28 267 b 1 269 17 271 8 272 b -43 138 -40 240 -50 186 b -11 68 -36 114 -26 89 b 67 21 7 44 36 25 z m 124 149 b 46 58 119 104 92 47 b 3 168 10 67 -3 131 b 44 236 8 203 29 226 b 50 240 47 238 49 238 l 49 244 b 110 211 65 246 94 242 b 124 149 119 194 122 171 z m 272 256 b 178 189 267 226 210 178 b 272 256 190 221 214 263 z "},"˛":{"ha":297,"x_min":0,"x_max":0,"o":"m 176 -75 b 211 -43 194 -74 208 -57 b 201 -15 215 -26 211 -17 b 178 -33 196 -14 181 -28 b 125 -28 165 -51 125 -47 b 147 7 125 -15 140 0 b 154 40 158 15 161 29 b 119 63 149 51 132 63 b 119 43 113 61 110 53 b 93 13 118 43 117 26 b 85 -10 89 7 83 1 b 108 -53 86 -22 93 -36 b 176 -75 126 -72 158 -76 z "},"ò":{"ha":390,"x_min":0,"x_max":0,"o":"m -58 121 b 43 18 -58 85 -26 26 b 165 93 107 10 144 50 b 383 179 243 103 342 138 b 372 206 408 204 413 221 b 174 140 338 194 254 158 b 76 269 172 210 133 256 b -25 206 40 278 -18 261 b -58 121 -43 189 -58 164 z m 117 129 b 15 179 69 125 24 142 b 47 233 8 211 29 231 b 113 185 79 238 103 214 b 117 129 118 168 119 149 z m -11 414 b -32 394 -25 418 -32 404 b -17 368 -32 385 -29 374 b 108 310 -8 364 1 363 b 135 310 121 303 132 303 b 119 339 138 317 132 329 b -11 414 111 346 53 386 z m 104 92 b 39 53 96 68 68 47 b -4 140 7 58 -8 99 b 104 92 21 111 65 93 z "},"¹":{"ha":378,"x_min":0,"x_max":0,"o":"m 96 392 b 119 401 110 388 119 390 b 117 513 119 469 117 479 b 121 624 117 533 118 564 b 74 657 118 640 88 664 b 7 600 39 642 31 624 b 67 588 -11 586 35 560 b 65 499 67 539 65 514 b 71 421 65 468 67 478 b 96 392 69 410 82 399 z "},"ø":{"ha":390,"x_min":0,"x_max":0,"o":"m -37 -150 b -19 -149 -28 -156 -22 -156 b 28 21 -14 -117 4 -54 b 43 18 33 19 38 18 b 165 93 107 10 144 50 b 383 179 243 103 342 138 b 372 206 408 204 413 221 b 174 140 338 194 254 158 b 110 256 172 194 149 235 b 203 492 149 363 186 457 b 193 513 206 496 200 506 b 174 515 182 519 174 521 b 76 269 157 481 117 381 b -25 206 40 278 -18 261 b -58 121 -43 189 -58 164 b -4 33 -58 94 -40 56 b -51 -129 -28 -37 -46 -97 b -37 -150 -51 -135 -44 -144 z m 117 129 b 67 133 99 128 82 129 l 94 214 b 113 185 103 206 108 196 b 117 129 118 168 119 149 z m 33 149 b 15 179 25 157 18 167 b 47 233 8 211 29 231 l 64 233 z m 56 101 b 104 92 71 96 88 92 b 39 53 96 68 68 47 z m 8 75 b -4 140 -1 92 -7 115 b 22 117 3 131 13 124 z "},"õ":{"ha":390,"x_min":0,"x_max":0,"o":"m -58 121 b 43 18 -58 85 -26 26 b 165 93 107 10 144 50 b 383 179 243 103 342 138 b 372 206 408 204 413 221 b 174 140 338 194 254 158 b 76 269 172 210 133 256 b -25 206 40 278 -18 261 b -58 121 -43 189 -58 164 z m 94 308 b 169 338 128 297 165 306 b 129 375 174 369 143 378 b 121 356 119 374 118 364 b 79 351 121 333 90 347 b -6 374 53 361 22 381 b -15 315 -37 365 -35 324 b 18 319 -4 308 22 313 b 94 308 0 351 83 313 z m 117 129 b 15 179 69 125 24 142 b 47 233 8 211 29 231 b 113 185 79 238 103 214 b 117 129 118 168 119 149 z m 104 92 b 39 53 96 68 68 47 b -4 140 7 58 -8 99 b 104 92 21 111 65 93 z "},"p":{"ha":471,"x_min":0,"x_max":0,"o":"m -17 -451 b 33 -468 -14 -478 32 -492 b 21 -236 24 -399 24 -319 b 43 65 25 -92 28 1 l 54 58 b 182 42 79 43 136 29 l 189 42 b 472 165 294 38 401 93 b 486 217 486 181 503 229 b 235 88 438 174 322 106 b 276 176 254 111 274 144 b 143 268 286 254 199 283 b 24 172 103 257 60 228 b 33 367 28 267 31 332 b 11 396 35 376 25 389 b -15 393 -1 403 -14 403 b -29 -237 -26 315 -29 78 b -17 -451 -25 -312 -22 -393 z m 150 83 b 46 97 128 86 61 89 l 46 101 b 215 228 54 140 153 264 b 150 83 260 201 199 97 z "},"":{"ha":381,"x_min":0,"x_max":0,"o":"m -17 -451 b 33 -468 -14 -478 32 -492 b 21 -236 24 -399 24 -319 b 43 65 25 -92 28 1 l 54 58 b 182 42 79 43 138 24 b 282 172 260 72 279 140 b 143 268 292 250 199 283 b 24 172 103 257 60 228 b 33 367 28 267 31 332 b 11 396 35 376 25 389 b -15 393 -1 403 -14 403 b -29 -237 -26 315 -29 78 b -17 -451 -25 -312 -22 -393 z m 135 72 b 46 97 94 65 60 79 l 46 101 b 215 228 54 140 153 264 b 135 72 260 201 197 83 z "},"(":{"ha":776,"x_min":0,"x_max":0,"o":"m 496 -369 b 526 -369 504 -378 518 -378 b 518 -340 531 -361 525 -347 b 172 94 333 -203 225 -53 b 136 313 147 168 136 242 b 154 472 136 367 143 421 b 600 1000 218 728 413 935 b 604 1026 611 1004 614 1015 b 574 1040 599 1038 586 1044 b 113 493 379 971 176 757 b 93 322 100 438 93 381 b 131 93 93 247 104 171 b 496 -369 185 -64 300 -224 z "},")":{"ha":700,"x_min":0,"x_max":0,"o":"m 144 -278 b 174 -289 153 -287 167 -294 b 551 331 404 -200 543 57 b 501 656 557 438 539 550 b 140 1068 436 817 321 968 b 111 1063 126 1075 115 1074 b 126 1035 107 1054 117 1042 b 458 653 294 943 400 807 b 510 342 493 553 513 447 b 149 -251 500 76 365 -167 b 144 -278 139 -256 136 -267 z "},"%":{"ha":754,"x_min":0,"x_max":0,"o":"m 171 -3 b 203 0 181 -11 197 -10 b 599 628 253 97 522 508 b 593 663 608 638 603 654 b 558 661 578 672 563 671 b 179 51 481 543 229 147 b 171 -3 175 40 161 6 z m 499 1 b 542 -10 513 -6 526 -10 b 640 53 574 -10 607 8 b 703 251 664 89 701 171 b 579 408 703 324 651 421 b 514 331 542 406 507 361 l 510 326 b 426 110 451 285 413 185 b 499 1 436 74 460 25 z m 599 88 b 511 33 561 38 529 25 b 469 106 490 43 471 68 b 501 236 468 143 476 196 b 585 300 526 276 560 301 b 604 325 597 300 606 311 b 578 349 601 338 592 349 l 572 349 b 594 364 576 357 586 363 b 653 251 640 368 654 278 b 599 88 650 190 622 122 z m 126 285 b 169 274 140 278 154 274 b 268 336 201 274 235 292 b 331 535 292 372 329 454 b 207 692 331 607 279 704 b 142 614 169 689 135 644 l 138 610 b 54 393 79 568 40 468 b 126 285 64 357 88 308 z m 226 371 b 139 317 189 321 157 308 b 97 389 118 326 99 351 b 129 519 96 426 104 479 b 213 583 154 560 188 585 b 232 608 225 583 233 594 b 206 632 229 621 219 632 l 200 632 b 222 647 204 640 214 646 b 281 535 268 651 282 561 b 226 371 278 474 250 406 z "},".":{"ha":263,"x_min":0,"x_max":0,"o":"m 86 44 b 131 44 96 32 115 32 b 140 90 146 57 150 78 b 96 90 131 103 111 103 b 86 44 81 78 76 57 z "},"‰":{"ha":1133,"x_min":0,"x_max":0,"o":"m 171 -3 b 203 0 181 -11 197 -10 b 599 628 253 97 522 508 b 593 663 608 638 603 654 b 558 661 578 672 563 671 b 179 51 481 543 229 147 b 171 -3 175 40 161 6 z m 499 1 b 542 -10 513 -6 526 -10 b 640 53 574 -10 607 8 b 703 251 664 89 701 171 b 579 408 703 324 651 421 b 514 331 542 406 507 361 l 510 326 b 426 110 451 285 413 185 b 499 1 436 74 460 25 z m 599 88 b 511 33 561 38 529 25 b 469 106 490 43 471 68 b 501 236 468 143 476 196 b 585 300 526 276 560 301 b 604 325 597 300 606 311 b 578 349 601 338 592 349 l 572 349 b 594 364 576 357 586 363 b 653 251 640 368 654 278 b 599 88 650 190 622 122 z m 126 285 b 169 274 140 278 154 274 b 268 336 201 274 235 292 b 331 535 292 372 329 454 b 207 692 331 607 279 704 b 142 614 169 689 135 644 l 138 610 b 54 393 79 568 40 468 b 126 285 64 357 88 308 z m 226 371 b 139 317 189 321 157 308 b 97 389 118 326 99 351 b 129 519 96 426 104 479 b 213 583 154 560 188 585 b 232 608 225 583 233 594 b 206 632 229 621 219 632 l 200 632 b 222 647 204 640 214 646 b 281 535 268 651 282 561 b 226 371 278 474 250 406 z m 818 1 b 861 -10 832 -6 846 -10 b 960 53 893 -10 926 8 b 1022 251 983 89 1021 171 b 899 408 1022 324 971 421 b 833 331 861 406 826 361 l 829 326 b 746 110 771 285 732 185 b 818 1 756 74 779 25 z m 918 88 b 831 33 881 38 849 25 b 789 106 810 43 790 68 b 821 236 788 143 796 196 b 904 300 846 276 879 301 b 924 325 917 300 925 311 b 897 349 921 338 911 349 l 892 349 b 914 364 896 357 906 363 b 972 251 960 368 974 278 b 918 88 969 190 942 122 z "},"+":{"ha":482,"x_min":0,"x_max":0,"o":"m 219 146 b 239 158 233 142 240 149 b 240 251 240 200 238 229 b 349 250 275 251 300 250 b 361 269 360 250 368 257 b 329 292 357 281 342 292 b 240 294 304 292 272 294 l 240 369 b 218 397 238 379 233 392 b 194 392 207 404 192 401 l 190 296 b 124 297 165 296 143 297 b 81 296 107 297 90 296 b 76 274 69 296 69 283 b 107 256 83 261 96 256 b 192 254 142 254 169 254 b 193 174 192 219 193 189 b 219 146 192 164 207 151 z "},"±":{"ha":842,"x_min":0,"x_max":0,"o":"m 346 146 b 365 158 360 142 367 149 b 371 251 369 200 368 229 b 481 250 406 251 432 250 b 494 269 492 250 500 257 b 463 292 490 281 475 292 b 374 294 438 292 406 294 l 376 369 b 357 397 376 379 371 392 b 332 392 346 404 331 401 l 324 296 b 257 297 299 296 276 297 b 211 296 238 297 221 296 b 206 274 200 296 199 283 b 236 256 214 261 225 256 b 324 254 274 254 301 254 b 321 174 321 219 321 189 b 346 146 319 164 335 151 z m 233 79 b 268 61 243 67 257 61 l 513 56 b 525 75 524 56 531 63 b 496 97 519 86 508 97 b 283 103 433 100 340 103 b 243 101 267 103 253 101 b 233 79 232 101 231 89 z "},"q":{"ha":458,"x_min":0,"x_max":0,"o":"m 463 -124 b 435 -85 494 -125 481 -86 b 251 -86 371 -85 310 -85 b 274 157 257 0 264 82 b 278 250 278 206 283 229 b 233 271 272 272 244 288 l 206 231 b 88 250 151 247 118 250 b -42 213 31 250 -12 235 b -78 146 -64 194 -79 171 b -62 100 -79 132 -72 115 b 24 42 -42 69 -7 46 b 217 157 90 32 168 107 b 204 -87 210 75 206 -7 b 11 -107 138 -90 74 -96 b 10 -131 0 -108 0 -118 b 40 -149 15 -142 29 -149 b 204 -132 94 -142 150 -136 l 204 -186 b 214 -461 204 -279 207 -371 b 228 -492 217 -471 214 -485 b 247 -482 239 -496 251 -493 b 243 -324 244 -431 243 -378 b 249 -128 243 -258 244 -192 b 410 -124 301 -125 356 -124 z m -11 90 b 3 175 -43 118 -24 154 b 118 208 29 194 68 208 b 168 204 135 208 153 207 l 183 201 l 179 199 b -11 90 129 149 44 63 z "},"?":{"ha":718,"x_min":0,"x_max":0,"o":"m 303 119 b 317 138 317 117 318 126 b 469 317 332 225 396 269 b 646 524 561 376 646 435 b 626 603 646 547 640 574 b 328 776 583 696 468 776 b 258 769 306 776 282 774 b 42 522 142 749 22 646 b 188 375 47 432 108 375 b 214 383 203 375 219 374 b 188 403 211 394 199 403 b 83 518 131 403 83 465 b 278 731 69 631 185 713 b 342 736 300 735 321 736 b 586 599 461 736 550 672 b 600 538 596 576 600 557 b 443 357 600 454 514 401 b 286 146 365 307 292 257 b 303 119 286 135 292 121 z m 268 15 b 293 -4 269 4 281 -6 b 311 15 306 -4 314 4 b 311 46 307 25 310 35 b 294 72 315 63 307 68 b 269 61 283 76 272 71 b 268 15 265 47 265 26 z "},"¿":{"ha":949,"x_min":0,"x_max":0,"o":"m 411 635 b 397 617 397 638 396 628 b 244 438 382 529 318 485 b 68 231 153 378 68 319 b 88 151 68 207 74 181 b 386 -22 131 58 246 -22 b 456 -15 408 -22 432 -19 b 672 232 572 6 692 108 b 526 379 667 322 606 379 b 500 371 511 379 494 381 b 526 351 503 360 515 351 b 631 236 583 351 631 289 b 436 24 644 124 529 42 b 372 18 414 19 393 18 b 128 156 253 18 164 82 b 114 217 118 178 114 197 b 271 397 114 300 200 353 b 428 608 349 447 422 497 b 411 635 428 619 422 633 z m 446 739 b 421 758 444 750 433 760 b 403 739 408 758 400 750 b 403 708 407 729 404 719 b 419 682 399 692 407 686 b 444 693 431 678 442 683 b 446 739 449 707 449 728 z "},"\"":{"ha":318,"x_min":0,"x_max":0,"o":"m 76 582 b 108 571 86 571 100 567 b 135 604 121 576 128 589 b 125 668 136 621 135 643 b 97 689 121 679 107 689 b 85 668 86 689 81 679 b 78 610 89 658 100 615 b 76 582 69 604 68 593 z m 160 582 b 193 571 169 571 185 567 b 219 604 204 576 214 589 b 211 668 222 621 221 643 b 181 689 206 679 193 689 b 169 668 169 689 164 679 b 161 610 174 658 183 615 b 160 582 154 604 153 593 z "},"“":{"ha":276,"x_min":0,"x_max":0,"o":"m 114 758 b 88 769 108 769 96 772 b 56 719 68 763 56 742 b 76 674 56 704 63 688 b 110 667 88 663 103 661 b 108 694 117 674 114 686 b 106 699 106 697 106 699 b 114 758 97 713 133 732 z m 210 758 b 183 769 204 769 192 772 b 151 719 164 763 151 742 b 172 674 151 704 158 688 b 206 667 183 663 199 661 b 204 694 213 674 210 686 b 201 699 201 697 201 699 b 210 758 193 713 231 732 z "},"”":{"ha":303,"x_min":0,"x_max":0,"o":"m 79 675 b 108 664 88 664 99 661 b 138 713 126 671 138 690 b 118 760 138 729 132 746 b 85 767 110 771 92 772 b 86 739 78 760 79 747 b 92 735 90 736 92 735 b 79 675 96 721 58 701 z m 175 675 b 204 664 183 664 194 661 b 235 713 222 671 235 690 b 214 760 235 728 228 746 b 181 767 206 771 188 772 b 182 739 174 760 175 747 b 188 735 186 736 188 735 b 175 675 192 721 154 701 z "},"‘":{"ha":211,"x_min":0,"x_max":0,"o":"m 114 758 b 88 769 108 769 96 772 b 56 719 68 763 56 742 b 76 674 56 704 63 688 b 110 667 88 663 103 661 b 108 694 117 674 114 686 b 106 699 106 697 106 699 b 114 758 97 713 133 732 z "},"’":{"ha":179,"x_min":0,"x_max":0,"o":"m 49 675 b 79 664 58 664 68 661 b 110 714 99 671 110 692 b 92 760 110 729 104 746 b 60 767 85 771 67 772 b 60 739 51 760 53 747 b 65 735 63 736 65 735 b 49 675 69 721 31 701 z "},"'":{"ha":418,"x_min":0,"x_max":0,"o":"m 158 582 b 218 604 178 557 210 575 b 210 668 221 621 219 643 b 181 689 204 679 193 689 b 168 668 169 689 163 679 b 160 610 172 654 183 615 b 158 582 153 604 151 593 z "},"r":{"ha":386,"x_min":0,"x_max":0,"o":"m -35 42 b 15 21 -29 21 17 3 b 25 81 21 61 21 69 b 243 260 58 176 174 261 l 242 249 b 279 251 240 238 260 229 b 238 297 289 263 269 292 b 24 185 161 310 58 229 l 25 239 b 4 268 25 247 17 261 b -24 265 -10 275 -24 275 b -35 42 -43 90 -40 54 z "},"":{"ha":514,"x_min":0,"x_max":0,"o":"m 42 331 b -36 182 43 299 -32 208 b -19 149 -39 167 -26 143 b 71 263 -6 161 25 200 b 138 222 88 246 110 231 b 185 94 135 169 151 126 b 292 50 224 58 256 50 b 483 139 322 50 443 81 b 506 219 538 218 528 243 b 272 94 476 188 343 94 b 213 113 253 94 233 94 b 190 178 204 122 190 149 b 200 218 190 192 193 204 b 161 256 207 231 181 256 b 97 321 121 256 85 281 l 113 385 b 63 415 115 403 75 429 b 42 331 50 397 50 374 z "},"":{"ha":986,"x_min":0,"x_max":0,"o":"m 161 256 b 97 321 121 256 85 281 l 113 385 b 63 415 115 403 75 429 b 42 331 50 397 50 374 b -36 182 43 299 -32 208 b -19 149 -39 167 -26 143 b 71 263 -6 161 25 200 b 154 221 88 246 106 231 b 215 -4 147 136 164 57 b 442 -97 271 -74 360 -97 b 942 297 689 -97 861 99 b 939 539 975 379 979 525 b 940 501 933 533 938 513 b 904 321 944 444 931 383 b 425 -65 822 125 643 -65 b 271 -7 367 -65 311 -50 b 211 197 218 49 207 119 b 161 256 211 222 189 253 z "},"®":{"ha":649,"x_min":0,"x_max":0,"o":"m 249 43 b 314 26 268 33 292 26 b 400 58 343 26 375 36 b 440 168 421 78 440 119 b 435 214 440 183 439 199 b 383 300 425 243 410 272 b 258 350 339 340 296 353 b 182 314 222 347 194 332 b 181 301 181 310 182 306 l 185 300 l 182 299 b 161 276 174 292 167 285 b 140 201 147 256 140 229 b 147 153 140 185 142 169 b 249 43 163 110 200 67 z m 340 106 b 363 111 351 100 363 103 b 351 133 365 118 363 129 l 313 154 l 310 156 l 315 157 b 378 194 342 163 372 174 b 371 219 376 203 376 211 b 325 253 361 233 344 243 b 206 267 285 269 238 275 b 279 282 221 282 247 289 b 300 293 292 279 299 285 b 279 314 296 301 290 311 l 264 317 l 269 317 b 361 281 299 319 329 310 b 401 214 382 260 393 236 b 371 86 417 158 394 107 b 306 60 351 68 328 60 b 257 72 288 60 274 65 b 181 153 221 90 193 124 b 192 254 169 190 176 228 l 192 256 b 196 246 193 251 193 249 b 219 233 200 236 211 232 b 257 238 229 236 244 238 b 246 189 250 224 247 207 b 242 185 243 188 243 186 l 240 185 l 239 186 l 233 186 b 238 153 213 186 215 157 b 236 118 235 140 236 128 b 254 99 239 110 246 101 b 271 113 267 97 275 103 b 271 140 269 119 272 129 l 288 133 z m 281 186 b 296 231 285 204 292 221 l 317 222 b 340 210 333 217 339 211 l 343 208 l 333 200 b 300 190 326 196 314 193 b 281 186 294 189 288 186 z "},"˚":{"ha":347,"x_min":0,"x_max":0,"o":"m 181 335 b 247 389 213 339 268 354 b 178 433 228 413 207 432 b 160 424 167 435 158 432 b 211 386 160 408 199 389 b 158 363 203 364 176 363 b 119 372 153 363 122 365 b 156 400 115 383 138 400 b 158 417 164 403 164 410 b 128 429 151 425 136 431 b 76 382 103 426 75 406 b 181 335 79 343 144 331 z "},"s":{"ha":367,"x_min":0,"x_max":0,"o":"m -35 26 b 54 14 -14 18 19 14 b 151 25 90 14 126 18 b 183 100 188 35 214 74 b 61 172 156 122 114 143 b 10 222 33 189 1 203 b 203 300 25 258 151 282 b 164 338 214 314 186 340 b -47 210 93 328 -58 283 b 33 133 -42 168 -3 154 b 149 74 61 118 114 92 b 13 58 113 65 57 58 b -33 63 -6 58 -21 60 b -35 26 -64 69 -51 35 z "},"":{"ha":372,"x_min":0,"x_max":0,"o":"m -11 43 b 78 18 10 29 46 18 b 206 76 118 18 201 29 b 179 106 206 88 193 101 b 26 158 125 122 69 132 b 128 240 -31 193 113 238 l 142 242 b 179 194 144 213 158 194 b 190 213 189 194 190 203 l 186 215 b 201 246 188 217 188 224 b 172 288 213 257 192 283 b 33 263 135 294 82 286 b -24 193 -3 244 -22 219 b 14 128 -26 169 -12 146 b 139 79 49 104 92 92 b 96 67 122 72 110 69 b -4 76 56 61 13 67 b -29 72 -15 83 -26 82 b -11 43 -31 63 -22 50 z "},"":{"ha":1024,"x_min":0,"x_max":0,"o":"m -15 64 b 83 17 -17 32 49 17 b 160 40 101 17 135 26 b 604 82 307 40 482 64 b 963 219 782 108 911 176 b 1001 276 988 243 1004 260 b 969 256 996 275 975 260 b 593 126 861 192 753 157 b 194 76 476 104 325 81 b 183 100 194 85 192 92 b 61 172 156 122 114 143 b 10 222 33 189 1 203 b 203 300 25 258 151 282 b 164 338 214 314 186 340 b -47 210 93 328 -58 283 b 33 133 -42 168 -3 154 b 129 76 58 119 97 99 b 11 89 85 78 44 81 b -15 64 -3 93 -14 71 z "},"":{"ha":1133,"x_min":0,"x_max":0,"o":"m 813 253 b 1082 253 900 257 1003 261 b 1119 246 1089 250 1114 246 b 803 294 1100 297 851 297 b 89 142 625 286 297 244 l 60 158 b 11 208 33 175 3 189 b 133 288 29 244 81 269 b 96 325 144 301 119 328 b -44 196 25 315 -51 251 b 31 119 -39 154 -4 140 l 39 114 b -54 36 1 90 -31 65 b -35 -78 -104 -33 -69 -71 b 158 4 25 -90 119 -43 b 132 117 176 26 172 89 b 813 253 344 206 656 244 z m -33 15 b 79 92 -4 43 33 68 b 133 54 97 81 118 67 b -26 -50 101 -3 17 -49 b -33 15 -57 -51 -61 -24 z "},"":{"ha":385,"x_min":0,"x_max":0,"o":"m 397 215 b 107 126 326 210 210 174 b 6 203 64 146 -6 175 b 139 281 19 239 81 263 b 97 317 150 293 124 319 b -56 190 19 307 -62 244 b 25 107 -50 149 -12 128 b 42 97 31 103 35 101 b -94 1 -14 67 -72 32 b -24 -96 -128 -60 -62 -97 b 167 1 49 -94 131 -47 b 150 101 182 21 181 72 b 393 200 229 140 318 174 b 397 215 401 204 414 210 z m 139 51 b -60 -54 118 4 -43 -78 b 15 28 -74 -35 3 19 b 96 76 39 44 67 61 b 139 51 111 69 126 61 z "},"":{"ha":651,"x_min":0,"x_max":0,"o":"m 250 17 b 446 31 293 7 407 14 b 465 124 479 44 493 92 b 363 201 439 150 411 167 b 314 261 336 222 307 238 b 494 354 329 304 446 332 b 458 399 504 369 478 401 b 261 246 392 386 251 333 b 336 156 267 197 303 181 b 431 92 363 138 399 113 b 238 51 421 81 292 58 b 250 17 208 47 221 24 z m -35 26 b 54 14 -14 18 19 14 b 151 25 90 14 126 18 b 183 100 188 35 214 74 b 61 172 156 122 114 143 b 10 222 33 189 1 203 b 203 300 25 258 151 282 b 164 338 214 314 186 340 b -47 210 93 328 -58 283 b 33 133 -42 168 -3 154 b 149 74 61 118 114 92 b 13 58 113 65 57 58 b -33 63 -6 58 -21 60 b -35 26 -64 69 -51 35 z "},"š":{"ha":429,"x_min":0,"x_max":0,"o":"m -32 54 b 139 28 11 36 81 28 b 219 36 168 28 199 31 b 267 65 239 40 260 49 b 243 97 268 76 254 92 b 89 147 210 108 143 125 b 22 181 60 158 38 169 b 10 201 10 190 10 196 b 24 224 8 208 15 215 b 83 240 38 231 58 236 b 164 247 106 244 136 246 l 182 247 l 178 243 l 178 232 b 182 217 181 228 178 224 b 213 197 189 206 201 197 b 226 215 222 199 228 206 l 224 217 l 224 219 l 233 233 l 249 249 b 225 288 264 257 247 286 b 163 289 204 289 183 289 b 56 282 126 289 90 288 b -39 219 14 274 -37 257 b 6 153 -39 194 -17 169 b 89 110 29 136 60 122 b 175 79 115 99 149 89 l 189 76 l 175 74 b 119 69 163 71 140 69 b -32 92 61 69 1 78 b -53 82 -40 96 -53 92 b -32 54 -53 72 -44 60 z m 85 338 b 108 338 94 331 106 331 b 157 396 118 360 142 374 b 146 419 161 403 154 413 b 122 421 135 426 125 426 b 88 378 113 406 97 393 l 83 375 l 83 376 b 78 385 79 379 78 382 b 35 419 67 394 56 410 b 15 414 28 424 18 422 b 32 392 14 406 24 396 l 54 372 l 65 356 z "},"§":{"ha":629,"x_min":0,"x_max":0,"o":"m 222 -219 b 456 -53 321 -219 449 -156 b 386 65 456 4 428 40 b 493 168 461 89 493 126 b 417 285 493 207 465 249 b 204 383 363 321 271 350 b 118 508 149 413 100 449 b 247 592 132 554 190 586 b 386 535 304 597 364 568 b 379 457 394 519 400 496 b 410 443 371 428 392 428 b 440 506 429 461 440 483 b 424 556 440 522 435 539 b 242 636 389 608 314 643 b 69 524 167 629 93 589 b 151 358 43 451 99 392 b 54 250 90 342 54 299 b 89 168 54 224 65 194 b 185 97 115 135 147 114 b 296 61 222 82 264 72 b 399 -46 357 42 389 14 b 225 -178 389 -131 297 -174 b 71 -74 157 -181 71 -140 b 82 -31 71 -60 75 -46 b 75 14 85 -21 92 10 b 38 -22 60 18 43 -11 b 26 -74 29 -40 26 -57 b 222 -219 26 -164 139 -219 z m 317 97 b 313 97 315 96 313 97 b 213 133 274 110 244 118 b 132 183 179 147 153 161 b 113 240 118 203 113 222 b 168 317 113 274 132 301 b 222 329 182 322 200 328 b 378 256 279 301 344 281 b 436 171 413 235 436 201 b 392 114 436 149 424 126 b 317 97 374 106 351 103 z "},";":{"ha":326,"x_min":0,"x_max":0,"o":"m 121 56 b 139 42 126 49 132 44 b 111 -11 118 18 93 -8 b 214 100 163 -18 214 47 b 201 139 214 115 210 128 b 163 156 190 150 176 156 b 124 139 149 156 135 150 b 104 96 111 128 104 111 b 121 56 104 81 110 67 z m 128 513 b 167 494 138 500 153 494 b 206 513 181 494 194 500 b 224 551 218 522 224 536 b 206 594 224 567 217 583 b 128 594 190 618 157 618 b 113 554 117 583 113 569 b 128 513 113 539 118 524 z "},"/":{"ha":817,"x_min":0,"x_max":0,"o":"m 276 -139 b 301 -133 292 -146 300 -143 b 522 851 310 24 476 721 b 504 881 526 858 517 872 b 475 881 488 889 475 889 b 251 -110 429 751 260 51 b 276 -139 251 -118 264 -132 z "}," ":{"ha":414,"x_min":0,"x_max":0,"o":""},"£":{"ha":631,"x_min":0,"x_max":0,"o":"m 71 286 b 203 285 94 285 147 285 l 204 279 b 131 71 214 176 182 100 l 119 67 l 106 65 b 51 64 83 68 60 68 b 40 54 49 64 40 61 b 65 13 32 42 49 17 b 146 15 96 6 122 8 b 442 -3 181 32 243 11 b 517 74 500 -6 589 42 b 494 49 510 78 499 57 b 207 64 489 49 474 49 l 207 65 b 249 213 233 101 249 153 b 246 263 249 228 249 246 b 247 276 246 267 244 272 l 244 285 l 406 285 b 421 326 428 285 439 326 b 233 332 358 328 296 332 b 193 561 217 422 192 513 b 261 632 194 611 225 632 b 350 515 315 632 378 583 b 346 481 344 501 336 492 b 383 493 356 474 379 479 b 390 533 388 506 390 519 b 242 679 390 607 333 694 b 150 575 197 671 156 629 b 192 332 143 514 172 421 b 78 326 153 332 115 329 b 71 286 57 326 53 286 z "},"":{"ha":4033,"x_min":0,"x_max":0,"o":"m 132 -364 b 169 -379 143 -375 158 -382 b 2150 -192 525 -257 1351 -192 b 3601 -287 2703 -192 3242 -222 b 3617 -272 3617 -290 3622 -283 b 3582 -247 3610 -261 3597 -250 b 2118 -150 3218 -182 2674 -150 b 128 -339 1317 -150 488 -215 b 132 -364 119 -342 121 -353 z "},"":{"ha":1135,"x_min":0,"x_max":0,"o":"m 47 -201 b 83 -219 57 -212 72 -221 b 728 -169 293 -192 501 -169 b 806 -171 753 -169 781 -171 l 811 -171 l 811 -172 b 808 -179 808 -174 807 -176 b 832 -208 807 -189 817 -201 b 860 -206 847 -217 858 -214 b 869 -194 861 -203 863 -199 b 899 -183 878 -190 886 -186 b 931 -178 907 -181 921 -179 b 950 -176 939 -176 947 -176 b 921 -135 975 -175 949 -136 b 706 -128 847 -131 775 -128 b 51 -179 475 -128 261 -150 b 47 -201 40 -181 40 -190 z "},"t":{"ha":207,"x_min":0,"x_max":0,"o":"m -17 -367 b 32 -393 -7 -396 36 -425 b 8 -50 14 -328 8 -192 b 14 296 8 76 13 207 l 24 529 b 56 532 35 529 44 531 b 472 554 161 540 324 554 b 696 538 556 554 633 550 b 713 553 707 536 714 542 b 681 581 707 561 693 575 b 479 596 631 592 558 596 b 67 575 343 596 185 583 b 26 572 53 574 39 572 b 50 858 32 681 40 789 b -7 872 46 886 -8 894 b -25 568 -12 786 -19 676 b -393 525 -196 554 -294 543 b -361 488 -417 519 -387 483 b -26 525 -250 507 -142 515 b -35 293 -31 440 -33 358 b -37 83 -36 239 -37 164 b -17 -367 -37 -103 -32 -318 z "},"":{"ha":374,"x_min":0,"x_max":0,"o":"m 193 0 b 390 224 285 29 378 169 b 378 254 397 257 382 261 b 108 28 344 194 208 25 b 19 181 65 29 36 89 b 228 535 138 297 190 421 b 521 557 319 540 414 546 b 738 611 588 564 713 574 b 722 619 740 622 732 622 b 501 596 674 607 593 604 b 242 579 413 589 325 583 l 246 592 b 271 760 260 639 271 701 b 157 921 271 849 244 926 b -6 706 78 917 29 835 b -29 569 -12 679 -22 631 b -197 567 -94 568 -151 567 b -219 522 -224 567 -244 525 l -35 526 b -43 360 -40 475 -43 417 b 14 63 -43 246 -29 133 b 135 -10 44 14 86 -10 b 193 0 153 -10 172 -7 z m 43 696 b 164 883 65 796 99 879 b 222 771 207 886 222 836 b 200 614 222 721 213 663 b 190 576 196 601 193 589 b 21 571 131 574 72 572 b 43 696 26 611 33 654 z m 178 532 b 11 226 147 433 101 326 b 4 357 7 267 4 310 b 14 526 4 410 7 468 z "},"":{"ha":804,"x_min":0,"x_max":0,"o":"m 57 829 b 32 854 57 836 46 847 b 8 850 18 860 10 858 b -25 631 3 818 -11 733 b -351 629 -147 628 -262 628 b -379 589 -378 629 -403 590 b -32 588 -281 583 -157 583 b 22 8 -57 382 -68 119 b 249 -97 78 -61 167 -97 b 749 297 496 -97 668 99 b 746 539 782 379 786 525 b 747 501 740 533 744 513 b 711 321 751 444 738 383 b 232 -65 629 125 450 -65 b 78 -7 174 -65 118 -50 b 26 590 -17 92 1 378 b 539 635 247 599 461 618 b 597 667 575 649 592 657 b 579 678 597 678 589 683 b 32 632 443 650 233 638 b 57 829 44 732 57 808 z "},"":{"ha":207,"x_min":0,"x_max":0,"o":"m -17 -228 b 32 -254 -7 -257 36 -286 b 6 31 13 -186 6 -81 b 15 296 6 119 10 213 b 33 482 19 346 25 413 b 272 489 101 483 179 485 b 822 554 454 496 708 510 b 840 585 831 560 839 576 b 815 599 835 596 828 600 b 242 531 667 544 403 536 b 39 525 175 528 107 526 b 100 851 53 647 74 775 b 47 876 101 879 49 899 b -12 525 21 781 0 650 b -196 532 -75 525 -136 528 b -208 489 -222 533 -233 493 b -17 482 -153 485 -90 482 b -33 296 -24 414 -29 350 b -39 96 -37 236 -39 165 b -17 -228 -39 -44 -32 -182 z "},"":{"ha":207,"x_min":0,"x_max":0,"o":"m -240 611 b -267 571 -267 613 -290 574 b -119 567 -219 568 -174 567 b -24 568 -90 567 -58 567 b -35 328 -31 493 -35 411 b 25 -256 -35 110 -11 -115 b 74 -282 33 -285 78 -314 b 17 179 47 -199 25 -17 b 217 578 106 294 176 443 b 806 647 404 588 678 603 b 833 679 817 654 829 671 b 815 692 833 690 826 694 b 228 621 661 642 399 628 b 250 781 242 679 250 735 b 157 921 250 868 222 925 b -8 689 78 917 18 840 l -19 613 b -157 608 -64 611 -110 608 b -240 611 -185 608 -212 610 z m 164 883 b 206 797 193 882 206 850 b 178 619 206 750 196 688 b 28 615 128 619 79 617 b 39 683 31 639 35 661 b 164 883 58 790 94 878 z m 104 574 l 156 575 b 167 576 158 575 163 575 b 14 242 131 456 75 325 b 13 324 14 269 13 296 b 24 569 13 410 17 493 z "},"":{"ha":439,"x_min":0,"x_max":0,"o":"m 164 590 l 25 583 b 58 878 33 704 43 844 b 35 903 60 885 50 897 b 6 901 21 910 7 908 b -33 579 -8 861 -24 690 b -264 554 -131 574 -190 565 b -239 514 -287 549 -265 510 b -35 533 -165 524 -101 529 b -36 531 -35 532 -36 531 b -43 331 -40 438 -43 383 b 86 -79 -42 203 -47 -17 b 233 13 151 -106 214 -50 b 265 -290 236 -71 247 -215 b 306 -381 274 -321 285 -360 b 349 -403 317 -390 332 -400 b 364 -387 364 -404 368 -397 b 340 -367 360 -379 350 -371 l 339 -367 l 335 -365 b 315 -314 331 -358 325 -342 b 281 7 288 -207 281 -86 b 283 154 281 51 282 99 b 321 554 297 290 311 425 b 539 560 390 557 465 560 b 821 539 644 560 746 554 b 838 554 832 538 839 543 b 806 582 832 563 819 576 b 528 601 742 597 639 601 b 325 597 461 601 390 600 b 333 831 331 679 333 757 b 279 846 335 857 288 865 b 249 594 267 782 257 693 z m 229 169 b 94 -46 222 124 164 -61 b 14 256 26 -31 14 115 b 21 538 14 351 21 463 l 151 546 b 246 551 178 547 211 549 b 229 169 236 424 229 286 z "},"³":{"ha":425,"x_min":0,"x_max":0,"o":"m 161 379 b 242 438 197 376 235 392 b 196 526 249 469 225 504 b 171 542 192 531 181 538 b 200 563 192 551 188 554 b 221 601 213 574 221 588 b 201 638 221 613 215 625 b 133 654 181 657 153 657 b 79 618 111 649 85 638 b 93 592 76 610 85 597 b 118 597 103 586 113 589 b 151 618 119 607 136 615 b 172 618 158 619 168 619 l 176 618 b 163 588 185 606 174 594 b 103 560 147 574 121 564 b 118 522 79 557 94 522 b 179 500 135 524 160 513 b 207 460 197 488 210 472 b 151 417 200 425 174 415 b 86 443 125 419 97 432 b 57 444 82 447 64 449 b 60 424 54 439 53 431 b 161 379 83 403 125 382 z "},"˜":{"ha":504,"x_min":0,"x_max":0,"o":"m 257 336 b 332 365 290 325 328 333 b 292 403 336 397 306 406 b 283 383 282 401 281 392 b 242 379 283 361 253 375 b 157 401 215 389 185 408 b 147 343 125 393 128 351 b 181 347 158 336 185 340 b 257 336 163 379 246 340 z "},"™":{"ha":467,"x_min":0,"x_max":0,"o":"m 208 342 b 229 347 217 338 226 339 l 249 419 l 257 406 l 267 383 b 313 421 281 347 297 376 b 335 349 326 371 326 358 b 356 333 336 340 346 333 b 363 350 364 333 369 342 b 349 407 360 357 357 364 b 326 474 344 426 339 453 b 301 485 322 482 310 488 b 275 431 285 485 276 442 b 251 474 267 449 261 463 b 222 479 243 489 219 493 b 193 367 215 442 204 407 b 208 342 190 358 197 347 z m 110 338 b 131 343 121 332 128 335 b 133 404 133 363 133 382 b 136 451 133 419 133 436 b 167 450 156 451 163 450 b 176 449 171 450 174 449 b 190 463 186 447 192 454 b 169 482 186 472 176 481 l 53 482 b 49 461 42 479 42 469 b 71 449 53 453 63 447 b 99 451 72 451 86 451 b 93 360 97 417 100 385 b 110 338 94 353 101 342 z "},"²":{"ha":411,"x_min":0,"x_max":0,"o":"m 215 400 l 217 400 b 240 400 226 392 235 392 b 232 426 243 406 240 421 b 138 449 208 443 172 447 l 150 461 b 206 557 176 489 204 526 b 138 651 203 603 172 639 b 38 635 103 665 63 658 b 44 608 35 628 38 615 b 69 604 53 599 63 601 b 132 621 90 622 114 628 b 164 567 149 614 164 596 b 122 490 165 544 149 515 b 54 444 99 471 72 451 l 44 443 b 64 407 24 436 46 406 l 71 407 b 146 413 88 411 117 414 b 192 408 161 413 175 411 b 215 400 200 407 208 403 z "},"u":{"ha":522,"x_min":0,"x_max":0,"o":"m 64 32 b 189 121 121 32 161 81 b 306 42 208 75 251 42 b 500 154 401 36 472 111 b 506 206 517 181 518 222 b 281 82 460 160 376 86 b 226 153 242 86 232 119 b 229 210 226 178 228 200 b 179 236 232 231 183 256 b 18 78 168 186 75 39 b -3 135 3 88 -3 110 b 29 224 -3 171 10 211 b 28 247 36 228 39 236 b -10 264 17 260 1 267 b -37 233 -22 260 -31 247 b -53 168 -49 214 -53 190 b -44 115 -53 150 -50 132 b 64 32 -29 68 18 32 z "},"":{"ha":1006,"x_min":0,"x_max":0,"o":"m 188 292 b 181 117 175 231 172 171 b 229 210 199 143 215 174 b 179 236 232 231 183 256 b 18 78 168 186 75 39 b -3 135 3 88 -3 110 b 29 224 -3 171 10 211 b 28 247 36 228 39 236 b -10 264 17 260 1 267 b -37 233 -22 260 -31 247 b -53 168 -49 214 -53 190 b -44 115 -53 150 -50 132 b 64 32 -29 68 18 32 b 181 117 101 32 144 63 b 235 -4 189 72 206 31 b 461 -97 290 -74 379 -97 b 961 297 708 -97 881 99 b 958 539 994 379 999 525 b 960 501 953 533 957 513 b 924 321 964 444 950 383 b 444 -65 842 125 663 -65 b 290 -7 386 -65 331 -50 b 239 276 219 67 222 169 b 188 292 232 297 193 300 z "},"":{"ha":960,"x_min":0,"x_max":0,"o":"m 229 210 b 179 236 232 231 183 256 b 18 78 168 186 75 39 b -3 135 3 88 -3 110 b 29 224 -3 171 10 211 b 28 247 36 228 39 236 b -10 264 17 260 1 267 b -37 233 -22 260 -31 247 b -53 168 -49 214 -53 190 b -44 115 -53 150 -50 132 b 64 32 -29 68 18 32 b 189 121 121 32 161 81 b 294 40 208 75 251 54 b 421 29 329 33 372 29 b 876 94 575 29 778 63 b 933 131 886 97 944 119 b 865 126 926 142 875 129 b 400 81 803 108 564 81 b 268 92 343 81 297 83 b 229 210 222 104 224 175 z "},"":{"ha":689,"x_min":0,"x_max":0,"o":"m 550 592 b 572 813 557 676 565 761 b 517 831 572 839 519 853 b 500 622 510 789 501 708 l 497 589 b 142 553 324 579 236 569 b 174 515 118 547 147 511 b 490 547 281 533 368 542 b 269 96 460 368 357 114 b 219 168 225 86 219 128 b 218 228 219 193 221 217 b 167 247 208 246 169 263 b 96 124 158 207 128 157 b 6 89 75 106 33 71 b -17 164 -15 103 -18 142 b 17 235 -14 183 -4 229 b -22 275 39 239 1 281 b -51 244 -35 271 -43 258 b -65 179 -61 224 -65 201 b -57 126 -65 161 -62 143 b 50 43 -42 81 4 43 b 176 132 107 43 151 94 b 290 51 196 88 239 50 b 478 322 368 53 438 201 b 474 -3 476 249 474 121 b 488 -315 474 -142 476 -274 b 532 -368 494 -350 521 -376 b 528 -317 542 -361 531 -344 b 522 -104 524 -267 522 -190 b 532 350 522 54 528 242 b 546 550 532 388 540 468 b 951 561 688 551 819 561 b 1307 538 1079 561 1213 556 b 1324 553 1318 536 1325 542 b 1292 581 1318 561 1304 575 b 946 604 1213 597 1081 604 b 550 592 850 604 753 600 z "},"ú":{"ha":508,"x_min":0,"x_max":0,"o":"m 64 307 b 214 372 83 292 119 315 b 168 408 226 390 181 418 b 60 331 144 389 75 350 b 64 307 54 326 50 315 z m 50 32 b 175 121 107 32 147 81 b 292 42 194 75 238 42 b 486 154 388 36 458 111 b 492 206 503 181 504 222 b 267 82 446 160 363 86 b 213 153 228 86 218 119 b 215 210 213 178 214 200 b 165 236 218 231 169 256 b 4 78 154 186 61 39 b -17 135 -11 88 -17 110 b 15 224 -17 171 -4 211 b 14 247 22 228 25 236 b -24 264 3 260 -12 267 b -51 233 -36 260 -44 247 b -67 168 -62 214 -67 190 b -58 115 -67 150 -64 132 b 50 32 -43 68 4 32 z "},"û":{"ha":513,"x_min":0,"x_max":0,"o":"m 54 32 b 179 121 111 32 151 81 b 296 42 199 75 242 42 b 490 154 392 36 463 111 b 496 206 507 181 508 222 b 271 82 450 160 367 86 b 217 153 232 86 222 119 b 219 210 217 178 218 200 b 169 236 222 231 174 256 b 8 78 158 186 65 39 b -12 135 -7 88 -12 110 b 19 224 -12 171 0 211 b 18 247 26 228 29 236 b -19 264 7 260 -8 267 b -47 233 -32 260 -40 247 b -62 168 -58 214 -62 190 b -54 115 -62 150 -60 132 b 54 32 -39 68 8 32 z m 144 313 b 176 310 157 306 171 304 b 171 338 188 318 185 331 b 125 383 150 354 133 367 b 76 399 117 396 90 404 b 17 346 35 360 29 356 b 14 321 8 340 3 328 b 56 321 24 310 47 314 l 99 350 b 144 313 111 336 131 324 z "},"ü":{"ha":513,"x_min":0,"x_max":0,"o":"m 54 32 b 179 121 111 32 151 81 b 296 42 199 75 242 42 b 490 154 392 36 463 111 b 496 206 507 181 508 222 b 271 82 450 160 367 86 b 217 153 232 86 222 119 b 219 210 217 178 218 200 b 169 236 222 231 174 256 b 8 78 158 186 65 39 b -12 135 -7 88 -12 110 b 19 224 -12 171 0 211 b 18 247 26 228 29 236 b -19 264 7 260 -8 267 b -47 233 -32 260 -40 247 b -62 168 -58 214 -62 190 b -54 115 -62 150 -60 132 b 54 32 -39 68 8 32 z m 3 322 b 47 322 15 310 35 310 b 43 368 60 335 56 356 b -1 368 31 381 11 381 b 3 322 -12 356 -10 335 z m 156 322 b 199 322 167 310 186 310 b 194 368 211 335 207 356 b 153 368 183 381 164 381 b 156 322 140 356 144 335 z "},"ù":{"ha":522,"x_min":0,"x_max":0,"o":"m 64 32 b 189 121 121 32 161 81 b 306 42 208 75 251 42 b 500 154 401 36 472 111 b 506 206 517 181 518 222 b 281 82 460 160 376 86 b 226 153 242 86 232 119 b 229 210 226 178 228 200 b 179 236 232 231 183 256 b 18 78 168 186 75 39 b -6 133 1 89 -6 110 b 11 201 -6 158 3 186 b 29 224 18 215 25 222 b 28 247 38 225 39 236 b -10 264 17 260 1 267 b -37 233 -22 260 -31 247 b -53 168 -49 214 -53 190 b -44 115 -53 150 -50 132 b 64 32 -29 68 18 32 z m 14 422 b -7 403 0 426 -7 413 b 8 376 -7 393 -4 382 b 133 318 17 372 26 371 b 160 318 146 311 157 311 b 144 347 163 325 157 338 b 14 422 136 354 78 394 z "},"_":{"ha":715,"x_min":0,"x_max":0,"o":"m 122 -53 b 156 -71 129 -65 144 -71 l 226 -71 b 551 -68 346 -71 474 -67 b 560 -49 563 -68 568 -61 b 526 -26 553 -37 539 -26 b 440 -25 508 -26 475 -25 b 124 -31 325 -25 153 -28 b 122 -53 113 -31 114 -43 z "},"v":{"ha":390,"x_min":0,"x_max":0,"o":"m 13 44 b 75 36 33 24 51 29 b 161 172 110 47 146 121 b 249 153 181 157 214 153 b 365 169 293 153 342 161 b 385 208 396 181 421 214 b 257 196 347 203 301 196 b 174 208 228 196 199 200 l 174 210 b 139 268 186 251 156 275 b 124 208 126 260 115 238 b 40 61 110 168 65 63 b 13 244 13 94 7 201 b -4 274 15 254 4 268 b -32 267 -18 281 -31 276 b -37 207 -36 247 -37 228 b 13 44 -37 149 -22 86 z "},"w":{"ha":586,"x_min":0,"x_max":0,"o":"m 276 190 b 197 88 278 149 260 46 b 161 171 168 106 165 144 b 161 183 163 178 164 181 b 117 206 164 206 121 226 b 114 188 114 203 115 200 b 43 63 110 168 78 75 b 6 81 32 58 11 61 b 0 119 1 93 0 106 b 44 256 0 171 26 228 b 35 285 51 263 44 275 b 7 288 24 293 10 296 b -43 149 -18 257 -42 189 b -35 88 -44 128 -42 107 b 4 33 -29 71 -18 49 b 47 21 19 25 35 21 b 135 107 92 21 119 65 b 246 40 163 65 213 38 b 324 157 301 43 324 114 b 394 146 347 150 369 146 b 522 181 436 146 479 157 b 535 218 544 193 574 231 b 401 189 488 199 442 189 b 321 206 371 189 343 194 b 276 253 324 228 303 268 b 276 190 263 243 258 221 z "},"x":{"ha":429,"x_min":0,"x_max":0,"o":"m -54 11 b -14 35 -43 1 -22 29 b 92 114 15 58 47 83 b 256 28 151 75 213 33 b 267 72 275 25 293 67 b 133 142 235 79 174 114 b 296 229 189 175 246 207 b 269 268 321 240 290 276 b 92 169 213 243 150 207 b 7 247 54 194 25 221 b -21 260 -1 260 -10 264 b -21 228 -28 253 -28 243 b 53 144 -7 199 19 169 b -54 11 22 124 -71 51 z "},"y":{"ha":528,"x_min":0,"x_max":0,"o":"m 240 50 l 206 25 b -67 -325 65 -79 -46 -218 b -14 -464 -74 -375 -51 -425 b 115 -518 25 -503 81 -525 b 285 -128 236 -493 274 -303 l 289 1 l 290 18 l 331 46 b 536 147 389 81 481 131 b 536 164 547 150 549 153 b 290 85 504 193 328 107 l 289 83 l 289 89 b 279 229 288 169 281 226 b 240 261 278 244 254 261 b 228 257 235 261 229 260 b 228 254 226 256 225 256 b 224 249 226 253 224 251 b 40 75 221 204 99 42 b 11 151 17 89 14 129 b 19 203 13 171 17 189 b 39 226 26 217 33 225 b 35 253 46 229 46 242 b 0 267 24 264 8 269 b -28 233 -14 263 -22 249 b -37 176 -35 215 -37 196 b -25 110 -37 153 -32 129 b 83 31 -7 65 38 31 b 233 140 129 31 193 86 z m 78 -476 b 14 -450 61 -481 35 -469 b -15 -353 -3 -431 -24 -396 b 207 -44 0 -260 94 -147 l 239 -15 b 78 -476 240 -210 183 -456 z "},"":{"ha":392,"x_min":0,"x_max":0,"o":"m 156 -490 b 176 -486 167 -497 179 -496 b 218 157 185 -256 197 -54 b 222 250 228 196 228 229 b 172 271 217 272 174 290 b 65 99 164 207 129 124 b 15 121 39 88 26 100 b 6 176 8 139 6 157 b 14 225 6 193 8 210 b 31 249 19 239 28 247 b 25 275 40 251 38 264 b -7 289 17 286 1 292 b -44 197 -31 281 -43 238 b 74 53 -39 125 7 53 b 158 96 106 53 133 71 b 135 -396 146 -72 135 -271 b 136 -447 135 -415 136 -432 b 156 -490 136 -457 143 -482 z "},"":{"ha":439,"x_min":0,"x_max":0,"o":"m 249 -81 b 271 228 265 183 269 226 b 226 260 269 243 243 261 b 204 249 215 263 204 260 b 38 75 201 201 99 35 b 8 146 15 86 8 117 b 17 203 8 168 13 190 b 36 226 22 218 31 225 b 32 253 43 229 43 242 b -3 267 21 264 6 269 b -31 233 -17 263 -25 249 b -39 182 -36 217 -39 200 b -25 110 -39 156 -33 131 b 81 31 -7 65 35 31 b 206 118 117 31 171 58 b 199 -83 201 64 201 -10 b -207 -237 94 -89 -207 -103 b 28 -508 -207 -351 -72 -506 b 243 -187 186 -512 229 -300 l 246 -153 l 246 -132 b 660 -121 375 -125 514 -121 b 1089 -131 797 -121 940 -125 b 1172 -118 1100 -131 1179 -129 b 1108 -97 1164 -107 1119 -97 b 464 -76 900 -85 661 -76 b 249 -81 383 -76 311 -78 z m 103 -447 b 36 -474 88 -467 60 -474 b -162 -265 -49 -474 -156 -347 b 194 -136 -168 -174 36 -146 l 185 -219 b 103 -447 169 -314 144 -399 z "},"":{"ha":435,"x_min":0,"x_max":0,"o":"m -237 -569 b -31 -637 -171 -610 -96 -637 b 35 -625 -7 -637 15 -633 b 235 -189 172 -568 224 -375 l 238 -172 l 242 -172 b 607 -140 356 -158 478 -147 b 1176 -124 792 -129 986 -124 b 2018 -161 1507 -124 1819 -139 b 2028 -143 2031 -162 2035 -154 b 1996 -119 2024 -132 2007 -121 b 1149 -82 1792 -97 1481 -82 b 576 -99 958 -82 761 -87 b 296 -121 478 -104 385 -111 l 239 -128 l 240 -115 b 242 -58 240 -96 242 -76 b 221 236 242 101 222 232 b 172 264 218 257 181 278 b 165 226 169 258 160 250 b 113 115 158 189 138 146 b 64 76 99 97 79 83 b 29 75 46 69 33 72 b 10 99 26 76 19 82 b 0 151 6 114 1 132 b 8 203 1 171 6 189 b 28 226 15 217 22 225 b 24 253 35 229 35 242 b -11 267 13 264 -3 269 b -39 233 -25 263 -33 249 b -46 175 -44 217 -46 196 b -33 110 -46 154 -42 131 b 22 44 -25 89 -10 63 b 72 31 39 35 57 31 b 158 81 110 31 140 56 l 175 101 l 185 128 b 189 -28 188 83 189 31 b 188 -126 189 -60 189 -93 l 188 -133 l 124 -142 b -92 -183 44 -154 -28 -167 b -399 -365 -267 -225 -389 -282 b -368 -454 -400 -393 -390 -424 b -237 -569 -340 -496 -290 -537 z m -4 -586 b -58 -596 -21 -593 -39 -596 b -228 -542 -112 -596 -175 -574 b -325 -454 -269 -515 -303 -485 b -347 -390 -339 -432 -349 -410 b -56 -224 -339 -322 -235 -267 b 160 -183 6 -208 79 -194 l 183 -179 l 181 -201 b -4 -586 168 -374 118 -536 z "},"":{"ha":419,"x_min":0,"x_max":0,"o":"m 240 236 b 182 249 240 260 183 269 b 39 71 178 186 101 50 b 4 150 15 79 4 114 b 32 226 4 182 14 214 b -7 269 50 239 7 275 b -43 140 -46 254 -51 175 b 72 31 -31 82 11 31 b 192 117 110 31 164 63 b 165 -146 189 19 182 -75 b -79 -367 136 -276 50 -367 b -443 -165 -215 -367 -369 -282 b -476 -139 -451 -154 -462 -140 b -468 -179 -487 -137 -475 -168 b -82 -411 -389 -312 -240 -411 b 213 -143 79 -411 176 -283 b 243 103 231 -72 240 11 b 243 171 242 133 243 150 b 240 236 243 188 243 206 z "},"":{"ha":528,"x_min":0,"x_max":0,"o":"m 161 -119 b -272 -460 125 -332 -50 -476 b -512 -225 -407 -450 -532 -339 b -496 -172 -510 -210 -506 -190 b -453 -119 -479 -142 -440 -125 b -539 -206 -515 -94 -537 -194 b -542 -251 -542 -221 -542 -236 b -264 -510 -542 -397 -433 -503 b 214 -97 15 -519 181 -296 b 246 147 225 -25 231 68 b 279 229 267 179 279 208 b 240 261 278 244 254 261 l 239 261 b 224 257 232 263 226 261 b 197 192 213 236 204 215 b 40 75 158 129 82 50 b 10 147 17 89 10 118 b 19 203 10 168 14 190 b 39 226 26 217 33 225 b 35 253 46 229 46 242 b 1 268 24 264 10 268 b -39 233 -4 268 -25 265 b -49 179 -46 217 -49 199 b -36 110 -49 154 -44 129 b 83 31 -18 65 38 33 b 176 72 113 29 146 46 b 161 -119 169 0 169 -72 z "},"":{"ha":1428,"x_min":0,"x_max":0,"o":"m 265 -40 b 279 229 274 40 281 226 b 240 261 278 244 254 261 b 228 257 235 261 229 260 b 228 254 226 256 225 256 b 224 249 226 253 224 251 b 40 75 221 204 99 42 b 11 151 17 89 14 129 b 19 203 13 171 17 189 b 39 226 26 217 33 225 b 35 253 46 229 46 242 b 0 267 24 264 8 269 b -28 233 -14 263 -22 249 b -37 176 -35 215 -37 196 b -25 110 -37 153 -32 129 b 83 31 -7 65 38 31 b 233 140 129 31 193 86 l 221 -75 z m 199 -17 b -125 -306 43 -87 -96 -201 b 46 -511 -149 -424 -46 -522 b 253 -154 140 -500 221 -379 l 271 -1 l 221 -31 b 22 -478 188 -271 124 -467 b -82 -329 -29 -486 -106 -422 b 226 -49 -58 -233 93 -110 b 1415 144 675 157 1321 131 b 1417 161 1426 146 1433 154 b 199 -17 1385 174 639 189 z "},"ý":{"ha":528,"x_min":0,"x_max":0,"o":"m 240 50 l 206 25 b -67 -325 65 -79 -46 -218 b -14 -464 -74 -375 -51 -425 b 115 -518 25 -503 81 -525 b 285 -128 236 -493 274 -303 l 289 1 l 290 18 l 331 46 b 536 147 389 81 481 131 b 536 164 547 150 549 153 b 290 85 504 193 328 107 l 289 83 l 289 89 b 279 229 288 169 281 226 b 240 261 278 244 254 261 b 228 257 235 261 229 260 b 228 254 226 256 225 256 b 224 249 226 253 224 251 b 40 75 221 204 99 42 b 11 151 17 89 14 129 b 19 203 13 171 17 189 b 39 226 26 217 33 225 b 35 253 46 229 46 242 b 0 267 24 264 8 269 b -28 233 -14 263 -22 249 b -37 176 -35 215 -37 196 b -25 110 -37 153 -32 129 b 83 31 -7 65 38 31 b 233 140 129 31 193 86 z m 78 -476 b 14 -450 61 -481 35 -469 b -15 -353 -3 -431 -24 -396 b 207 -44 0 -260 94 -147 l 239 -15 b 78 -476 240 -210 183 -456 z m 106 314 b 256 379 125 299 161 322 b 210 415 268 397 222 425 b 101 338 186 396 117 357 b 106 314 96 333 92 322 z "}}}
